<?xml version="1.0" encoding="utf-8"?>
<!-- Generator: Adobe Illustrator 18.0.0, SVG Export Plug-In . SVG Version: 6.00 Build 0)  -->
<!DOCTYPE svg PUBLIC "-//W3C//DTD SVG 1.1//EN" "http://www.w3.org/Graphics/SVG/1.1/DTD/svg11.dtd">
<svg version="1.1" xmlns="http://www.w3.org/2000/svg" xmlns:xlink="http://www.w3.org/1999/xlink" x="0px" y="0px"
	 viewBox="0 0 792.1 357" enable-background="new 0 0 792.1 357" xml:space="preserve">
<g id="Sin">
</g>
<g id="Layer_9">
	<g>
		<g>
			<path fill-rule="evenodd" clip-rule="evenodd" fill="#DCDBD9" d="M249.2,18.9c3,0,6.1,0,9.1,0c0,0.6,0,1.2,0,1.8
				c-3,0-6.1,0-9.1,0C249.2,20.2,249.2,19.5,249.2,18.9L249.2,18.9z M249.2,50.7c3,0,6.1,0,9.1,0c0,0.6,0,1.2,0,1.8
				c-3,0-6.1,0-9.1,0C249.2,51.9,249.2,51.3,249.2,50.7L249.2,50.7z M249.2,82.4c3,0,6.1,0,9.1,0c0,0.6,0,1.2,0,1.8
				c-3,0-6.1,0-9.1,0C249.2,83.6,249.2,83,249.2,82.4L249.2,82.4z M249.2,114.1c3,0,6.1,0,9.1,0c0,0.6,0,1.2,0,1.8c-3,0-6.1,0-9.1,0
				C249.2,115.4,249.2,114.7,249.2,114.1L249.2,114.1z M249.2,145.9c3,0,6.1,0,9.1,0c0,0.6,0,1.2,0,1.8c-3,0-6.1,0-9.1,0
				C249.2,147.1,249.2,146.5,249.2,145.9L249.2,145.9z M249.2,177.6c3,0,6.1,0,9.1,0c0,0.6,0,1.2,0,1.8c-3,0-6.1,0-9.1,0
				C249.2,178.8,249.2,178.2,249.2,177.6L249.2,177.6z M249.2,209.3c3,0,6.1,0,9.1,0c0,0.6,0,1.2,0,1.8c-3,0-6.1,0-9.1,0
				C249.2,210.6,249.2,209.9,249.2,209.3L249.2,209.3z M249.2,241.1c3,0,6.1,0,9.1,0c0,0.6,0,1.2,0,1.8c-3,0-6.1,0-9.1,0
				C249.2,242.3,249.2,241.7,249.2,241.1L249.2,241.1z M249.2,274.6c0-0.6,0-1.2,0-1.8c3,0,6.1,0,9.1,0c0,0.6,0,1.2,0,1.8
				C255.2,274.6,252.2,274.6,249.2,274.6L249.2,274.6z M249.2,304.5c3,0,6.1,0,9.1,0c0,0.6,0,1.2,0,1.8c-3,0-6.1,0-9.1,0
				C249.2,305.8,249.2,305.1,249.2,304.5L249.2,304.5z M249.2,336.3c3,0,6.1,0,9.1,0c0,0.6,0,1.2,0,1.8c-3,0-6.1,0-9.1,0
				C249.2,337.5,249.2,336.9,249.2,336.3L249.2,336.3z M261.9,18.9c3,0,6.1,0,9.1,0c0,0.6,0,1.2,0,1.8c-3,0-6.1,0-9.1,0
				C261.9,20.2,261.9,19.5,261.9,18.9L261.9,18.9z M261.9,50.7c3,0,6.1,0,9.1,0c0,0.6,0,1.2,0,1.8c-3,0-6.1,0-9.1,0
				C261.9,51.9,261.9,51.3,261.9,50.7L261.9,50.7z M261.9,82.4c3,0,6.1,0,9.1,0c0,0.6,0,1.2,0,1.8c-3,0-6.1,0-9.1,0
				C261.9,83.6,261.9,83,261.9,82.4L261.9,82.4z M261.9,114.1c3,0,6.1,0,9.1,0c0,0.6,0,1.2,0,1.8c-3,0-6.1,0-9.1,0
				C261.9,115.4,261.9,114.7,261.9,114.1L261.9,114.1z M261.9,145.9c3,0,6.1,0,9.1,0c0,0.6,0,1.2,0,1.8c-3,0-6.1,0-9.1,0
				C261.9,147.1,261.9,146.5,261.9,145.9L261.9,145.9z M261.9,177.6c3,0,6.1,0,9.1,0c0,0.6,0,1.2,0,1.8c-3,0-6.1,0-9.1,0
				C261.9,178.8,261.9,178.2,261.9,177.6L261.9,177.6z M261.9,209.3c3,0,6.1,0,9.1,0c0,0.6,0,1.2,0,1.8c-3,0-6.1,0-9.1,0
				C261.9,210.6,261.9,209.9,261.9,209.3L261.9,209.3z M261.9,241.1c3,0,6.1,0,9.1,0c0,0.6,0,1.2,0,1.8c-3,0-6.1,0-9.1,0
				C261.9,242.3,261.9,241.7,261.9,241.1L261.9,241.1z M261.9,274.6c0-0.6,0-1.2,0-1.8c3,0,6.1,0,9.1,0c0,0.6,0,1.2,0,1.8
				C268,274.6,265,274.6,261.9,274.6L261.9,274.6z M261.9,304.5c3,0,6.1,0,9.1,0c0,0.6,0,1.2,0,1.8c-3,0-6.1,0-9.1,0
				C261.9,305.8,261.9,305.1,261.9,304.5L261.9,304.5z M261.9,336.3c3,0,6.1,0,9.1,0c0,0.6,0,1.2,0,1.8c-3,0-6.1,0-9.1,0
				C261.9,337.5,261.9,336.9,261.9,336.3L261.9,336.3z M274.7,18.9c3,0,6.1,0,9.1,0c0,0.6,0,1.2,0,1.8c-3,0-6.1,0-9.1,0
				C274.7,20.2,274.7,19.5,274.7,18.9L274.7,18.9z M274.7,50.7c3,0,6.1,0,9.1,0c0,0.6,0,1.2,0,1.8c-3,0-6.1,0-9.1,0
				C274.7,51.9,274.7,51.3,274.7,50.7L274.7,50.7z M274.7,82.4c3,0,6.1,0,9.1,0c0,0.6,0,1.2,0,1.8c-3,0-6.1,0-9.1,0
				C274.7,83.6,274.7,83,274.7,82.4L274.7,82.4z M274.7,114.1c3,0,6.1,0,9.1,0c0,0.6,0,1.2,0,1.8c-3,0-6.1,0-9.1,0
				C274.7,115.4,274.7,114.7,274.7,114.1L274.7,114.1z M274.7,145.9c3,0,6.1,0,9.1,0c0,0.6,0,1.2,0,1.8c-3,0-6.1,0-9.1,0
				C274.7,147.1,274.7,146.5,274.7,145.9L274.7,145.9z M274.7,177.6c3,0,6.1,0,9.1,0c0,0.6,0,1.2,0,1.8c-3,0-6.1,0-9.1,0
				C274.7,178.8,274.7,178.2,274.7,177.6L274.7,177.6z M274.7,209.3c3,0,6.1,0,9.1,0c0,0.6,0,1.2,0,1.8c-3,0-6.1,0-9.1,0
				C274.7,210.6,274.7,209.9,274.7,209.3L274.7,209.3z M274.7,241.1c3,0,6.1,0,9.1,0c0,0.6,0,1.2,0,1.8c-3,0-6.1,0-9.1,0
				C274.7,242.3,274.7,241.7,274.7,241.1L274.7,241.1z M274.7,274.6c0-0.6,0-1.2,0-1.8c3,0,6.1,0,9.1,0c0,0.6,0,1.2,0,1.8
				C280.8,274.6,277.7,274.6,274.7,274.6L274.7,274.6z M274.7,304.5c3,0,6.1,0,9.1,0c0,0.6,0,1.2,0,1.8c-3,0-6.1,0-9.1,0
				C274.7,305.8,274.7,305.1,274.7,304.5L274.7,304.5z M274.7,336.3c3,0,6.1,0,9.1,0c0,0.6,0,1.2,0,1.8c-3,0-6.1,0-9.1,0
				C274.7,337.5,274.7,336.9,274.7,336.3L274.7,336.3z M287.5,18.9c3,0,6.1,0,9.1,0c0,0.6,0,1.2,0,1.8c-3,0-6.1,0-9.1,0
				C287.5,20.2,287.5,19.5,287.5,18.9L287.5,18.9z M287.5,50.7c3,0,6.1,0,9.1,0c0,0.6,0,1.2,0,1.8c-3,0-6.1,0-9.1,0
				C287.5,51.9,287.5,51.3,287.5,50.7L287.5,50.7z M287.5,82.4c3,0,6.1,0,9.1,0c0,0.6,0,1.2,0,1.8c-3,0-6.1,0-9.1,0
				C287.5,83.6,287.5,83,287.5,82.4L287.5,82.4z M287.5,114.1c3,0,6.1,0,9.1,0c0,0.6,0,1.2,0,1.8c-3,0-6.1,0-9.1,0
				C287.5,115.4,287.5,114.7,287.5,114.1L287.5,114.1z M287.5,145.9c3,0,6.1,0,9.1,0c0,0.6,0,1.2,0,1.8c-3,0-6.1,0-9.1,0
				C287.5,147.1,287.5,146.5,287.5,145.9L287.5,145.9z M287.5,177.6c3,0,6.1,0,9.1,0c0,0.6,0,1.2,0,1.8c-3,0-6.1,0-9.1,0
				C287.5,178.8,287.5,178.2,287.5,177.6L287.5,177.6z M287.5,209.3c3,0,6.1,0,9.1,0c0,0.6,0,1.2,0,1.8c-3,0-6.1,0-9.1,0
				C287.5,210.6,287.5,209.9,287.5,209.3L287.5,209.3z M287.5,241.1c3,0,6.1,0,9.1,0c0,0.6,0,1.2,0,1.8c-3,0-6.1,0-9.1,0
				C287.5,242.3,287.5,241.7,287.5,241.1L287.5,241.1z M287.5,274.6c0-0.6,0-1.2,0-1.8c3,0,6.1,0,9.1,0c0,0.6,0,1.2,0,1.8
				C293.5,274.6,290.5,274.6,287.5,274.6L287.5,274.6z M287.5,304.5c3,0,6.1,0,9.1,0c0,0.6,0,1.2,0,1.8c-3,0-6.1,0-9.1,0
				C287.5,305.8,287.5,305.1,287.5,304.5L287.5,304.5z M287.5,336.3c3,0,6.1,0,9.1,0c0,0.6,0,1.2,0,1.8c-3,0-6.1,0-9.1,0
				C287.5,337.5,287.5,336.9,287.5,336.3L287.5,336.3z M300.2,18.9c3,0,6.1,0,9.1,0c0,0.6,0,1.2,0,1.8c-3,0-6.1,0-9.1,0
				C300.2,20.2,300.2,19.5,300.2,18.9L300.2,18.9z M300.2,50.7c3,0,6.1,0,9.1,0c0,0.6,0,1.2,0,1.8c-3,0-6.1,0-9.1,0
				C300.2,51.9,300.2,51.3,300.2,50.7L300.2,50.7z M300.2,82.4c3,0,6.1,0,9.1,0c0,0.6,0,1.2,0,1.8c-3,0-6.1,0-9.1,0
				C300.2,83.6,300.2,83,300.2,82.4L300.2,82.4z M300.2,114.1c3,0,6.1,0,9.1,0c0,0.6,0,1.2,0,1.8c-3,0-6.1,0-9.1,0
				C300.2,115.4,300.2,114.7,300.2,114.1L300.2,114.1z M300.2,145.9c3,0,6.1,0,9.1,0c0,0.6,0,1.2,0,1.8c-3,0-6.1,0-9.1,0
				C300.2,147.1,300.2,146.5,300.2,145.9L300.2,145.9z M300.2,177.6c3,0,6.1,0,9.1,0c0,0.6,0,1.2,0,1.8c-3,0-6.1,0-9.1,0
				C300.2,178.8,300.2,178.2,300.2,177.6L300.2,177.6z M300.2,209.3c3,0,6.1,0,9.1,0c0,0.6,0,1.2,0,1.8c-3,0-6.1,0-9.1,0
				C300.2,210.6,300.2,209.9,300.2,209.3L300.2,209.3z M300.2,241.1c3,0,6.1,0,9.1,0c0,0.6,0,1.2,0,1.8c-3,0-6.1,0-9.1,0
				C300.2,242.3,300.2,241.7,300.2,241.1L300.2,241.1z M300.2,274.6c0-0.6,0-1.2,0-1.8c3,0,6.1,0,9.1,0c0,0.6,0,1.2,0,1.8
				C306.3,274.6,303.3,274.6,300.2,274.6L300.2,274.6z M300.2,304.5c3,0,6.1,0,9.1,0c0,0.6,0,1.2,0,1.8c-3,0-6.1,0-9.1,0
				C300.2,305.8,300.2,305.1,300.2,304.5L300.2,304.5z M300.2,336.3c3,0,6.1,0,9.1,0c0,0.6,0,1.2,0,1.8c-3,0-6.1,0-9.1,0
				C300.2,337.5,300.2,336.9,300.2,336.3L300.2,336.3z M313,18.9c3,0,6.1,0,9.1,0c0,0.6,0,1.2,0,1.8c-3,0-6.1,0-9.1,0
				C313,20.2,313,19.5,313,18.9L313,18.9z M313,50.7c3,0,6.1,0,9.1,0c0,0.6,0,1.2,0,1.8c-3,0-6.1,0-9.1,0
				C313,51.9,313,51.3,313,50.7L313,50.7z M313,82.4c3,0,6.1,0,9.1,0c0,0.6,0,1.2,0,1.8c-3,0-6.1,0-9.1,0C313,83.6,313,83,313,82.4
				L313,82.4z M313,114.1c3,0,6.1,0,9.1,0c0,0.6,0,1.2,0,1.8c-3,0-6.1,0-9.1,0C313,115.4,313,114.7,313,114.1L313,114.1z M313,145.9
				c3,0,6.1,0,9.1,0c0,0.6,0,1.2,0,1.8c-3,0-6.1,0-9.1,0C313,147.1,313,146.5,313,145.9L313,145.9z M313,177.6c3,0,6.1,0,9.1,0
				c0,0.6,0,1.2,0,1.8c-3,0-6.1,0-9.1,0C313,178.8,313,178.2,313,177.6L313,177.6z M313,209.3c3,0,6.1,0,9.1,0c0,0.6,0,1.2,0,1.8
				c-3,0-6.1,0-9.1,0C313,210.6,313,209.9,313,209.3L313,209.3z M313,241.1c3,0,6.1,0,9.1,0c0,0.6,0,1.2,0,1.8c-3,0-6.1,0-9.1,0
				C313,242.3,313,241.7,313,241.1L313,241.1z M313,274.6c0-0.6,0-1.2,0-1.8c3,0,6.1,0,9.1,0c0,0.6,0,1.2,0,1.8
				C319,274.6,316,274.6,313,274.6L313,274.6z M313,304.5c3,0,6.1,0,9.1,0c0,0.6,0,1.2,0,1.8c-3,0-6.1,0-9.1,0
				C313,305.8,313,305.1,313,304.5L313,304.5z M313,336.3c3,0,6.1,0,9.1,0c0,0.6,0,1.2,0,1.8c-3,0-6.1,0-9.1,0
				C313,337.5,313,336.9,313,336.3L313,336.3z M325.7,18.9c3,0,6.1,0,9.1,0c0,0.6,0,1.2,0,1.8c-3,0-6.1,0-9.1,0
				C325.7,20.2,325.7,19.5,325.7,18.9L325.7,18.9z M325.7,50.7c3,0,6.1,0,9.1,0c0,0.6,0,1.2,0,1.8c-3,0-6.1,0-9.1,0
				C325.7,51.9,325.7,51.3,325.7,50.7L325.7,50.7z M325.7,82.4c3,0,6.1,0,9.1,0c0,0.6,0,1.2,0,1.8c-3,0-6.1,0-9.1,0
				C325.7,83.6,325.7,83,325.7,82.4L325.7,82.4z M325.7,114.1c3,0,6.1,0,9.1,0c0,0.6,0,1.2,0,1.8c-3,0-6.1,0-9.1,0
				C325.7,115.4,325.7,114.7,325.7,114.1L325.7,114.1z M325.7,145.9c3,0,6.1,0,9.1,0c0,0.6,0,1.2,0,1.8c-3,0-6.1,0-9.1,0
				C325.7,147.1,325.7,146.5,325.7,145.9L325.7,145.9z M325.7,177.6c3,0,6.1,0,9.1,0c0,0.6,0,1.2,0,1.8c-3,0-6.1,0-9.1,0
				C325.7,178.8,325.7,178.2,325.7,177.6L325.7,177.6z M325.7,209.3c3,0,6.1,0,9.1,0c0,0.6,0,1.2,0,1.8c-3,0-6.1,0-9.1,0
				C325.7,210.6,325.7,209.9,325.7,209.3L325.7,209.3z M325.7,241.1c3,0,6.1,0,9.1,0c0,0.6,0,1.2,0,1.8c-3,0-6.1,0-9.1,0
				C325.7,242.3,325.7,241.7,325.7,241.1L325.7,241.1z M325.7,274.6c0-0.6,0-1.2,0-1.8c3,0,6.1,0,9.1,0c0,0.6,0,1.2,0,1.8
				C331.8,274.6,328.8,274.6,325.7,274.6L325.7,274.6z M325.7,304.5c3,0,6.1,0,9.1,0c0,0.6,0,1.2,0,1.8c-3,0-6.1,0-9.1,0
				C325.7,305.8,325.7,305.1,325.7,304.5L325.7,304.5z M325.7,336.3c3,0,6.1,0,9.1,0c0,0.6,0,1.2,0,1.8c-3,0-6.1,0-9.1,0
				C325.7,337.5,325.7,336.9,325.7,336.3L325.7,336.3z M338.5,18.9c3,0,6.1,0,9.1,0c0,0.6,0,1.2,0,1.8c-3,0-6.1,0-9.1,0
				C338.5,20.2,338.5,19.5,338.5,18.9L338.5,18.9z M338.5,50.7c3,0,6.1,0,9.1,0c0,0.6,0,1.2,0,1.8c-3,0-6.1,0-9.1,0
				C338.5,51.9,338.5,51.3,338.5,50.7L338.5,50.7z M338.5,82.4c3,0,6.1,0,9.1,0c0,0.6,0,1.2,0,1.8c-3,0-6.1,0-9.1,0
				C338.5,83.6,338.5,83,338.5,82.4L338.5,82.4z M338.5,114.1c3,0,6.1,0,9.1,0c0,0.6,0,1.2,0,1.8c-3,0-6.1,0-9.1,0
				C338.5,115.4,338.5,114.7,338.5,114.1L338.5,114.1z M338.5,145.9c3,0,6.1,0,9.1,0c0,0.6,0,1.2,0,1.8c-3,0-6.1,0-9.1,0
				C338.5,147.1,338.5,146.5,338.5,145.9L338.5,145.9z M338.5,177.6c3,0,6.1,0,9.1,0c0,0.6,0,1.2,0,1.8c-3,0-6.1,0-9.1,0
				C338.5,178.8,338.5,178.2,338.5,177.6L338.5,177.6z M338.5,209.3c3,0,6.1,0,9.1,0c0,0.6,0,1.2,0,1.8c-3,0-6.1,0-9.1,0
				C338.5,210.6,338.5,209.9,338.5,209.3L338.5,209.3z M338.5,241.1c3,0,6.1,0,9.1,0c0,0.6,0,1.2,0,1.8c-3,0-6.1,0-9.1,0
				C338.5,242.3,338.5,241.7,338.5,241.1L338.5,241.1z M338.5,274.6c0-0.6,0-1.2,0-1.8c3,0,6.1,0,9.1,0c0,0.6,0,1.2,0,1.8
				C344.6,274.6,341.5,274.6,338.5,274.6L338.5,274.6z M338.5,304.5c3,0,6.1,0,9.1,0c0,0.6,0,1.2,0,1.8c-3,0-6.1,0-9.1,0
				C338.5,305.8,338.5,305.1,338.5,304.5L338.5,304.5z M338.5,336.3c3,0,6.1,0,9.1,0c0,0.6,0,1.2,0,1.8c-3,0-6.1,0-9.1,0
				C338.5,337.5,338.5,336.9,338.5,336.3L338.5,336.3z M351.3,18.9c3,0,6.1,0,9.1,0c0,0.6,0,1.2,0,1.8c-3,0-6.1,0-9.1,0
				C351.3,20.2,351.3,19.5,351.3,18.9L351.3,18.9z M351.3,50.7c3,0,6.1,0,9.1,0c0,0.6,0,1.2,0,1.8c-3,0-6.1,0-9.1,0
				C351.3,51.9,351.3,51.3,351.3,50.7L351.3,50.7z M351.3,82.4c3,0,6.1,0,9.1,0c0,0.6,0,1.2,0,1.8c-3,0-6.1,0-9.1,0
				C351.3,83.6,351.3,83,351.3,82.4L351.3,82.4z M351.3,114.1c3,0,6.1,0,9.1,0c0,0.6,0,1.2,0,1.8c-3,0-6.1,0-9.1,0
				C351.3,115.4,351.3,114.7,351.3,114.1L351.3,114.1z M351.3,145.9c3,0,6.1,0,9.1,0c0,0.6,0,1.2,0,1.8c-3,0-6.1,0-9.1,0
				C351.3,147.1,351.3,146.5,351.3,145.9L351.3,145.9z M351.3,177.6c3,0,6.1,0,9.1,0c0,0.6,0,1.2,0,1.8c-3,0-6.1,0-9.1,0
				C351.3,178.8,351.3,178.2,351.3,177.6L351.3,177.6z M351.3,209.3c3,0,6.1,0,9.1,0c0,0.6,0,1.2,0,1.8c-3,0-6.1,0-9.1,0
				C351.3,210.6,351.3,209.9,351.3,209.3L351.3,209.3z M351.3,241.1c3,0,6.1,0,9.1,0c0,0.6,0,1.2,0,1.8c-3,0-6.1,0-9.1,0
				C351.3,242.3,351.3,241.7,351.3,241.1L351.3,241.1z M351.3,274.6c0-0.6,0-1.2,0-1.8c3,0,6.1,0,9.1,0c0,0.6,0,1.2,0,1.8
				C357.3,274.6,354.3,274.6,351.3,274.6L351.3,274.6z M351.3,304.5c3,0,6.1,0,9.1,0c0,0.6,0,1.2,0,1.8c-3,0-6.1,0-9.1,0
				C351.3,305.8,351.3,305.1,351.3,304.5L351.3,304.5z M351.3,336.3c3,0,6.1,0,9.1,0c0,0.6,0,1.2,0,1.8c-3,0-6.1,0-9.1,0
				C351.3,337.5,351.3,336.9,351.3,336.3L351.3,336.3z M364,18.9c3,0,6.1,0,9.1,0c0,0.6,0,1.2,0,1.8c-3,0-6.1,0-9.1,0
				C364,20.2,364,19.5,364,18.9L364,18.9z M364,50.7c3,0,6.1,0,9.1,0c0,0.6,0,1.2,0,1.8c-3,0-6.1,0-9.1,0
				C364,51.9,364,51.3,364,50.7L364,50.7z M364,82.4c3,0,6.1,0,9.1,0c0,0.6,0,1.2,0,1.8c-3,0-6.1,0-9.1,0C364,83.6,364,83,364,82.4
				L364,82.4z M364,114.1c3,0,6.1,0,9.1,0c0,0.6,0,1.2,0,1.8c-3,0-6.1,0-9.1,0C364,115.4,364,114.7,364,114.1L364,114.1z M364,145.9
				c3,0,6.1,0,9.1,0c0,0.6,0,1.2,0,1.8c-3,0-6.1,0-9.1,0C364,147.1,364,146.5,364,145.9L364,145.9z M364,177.6c3,0,6.1,0,9.1,0
				c0,0.6,0,1.2,0,1.8c-3,0-6.1,0-9.1,0C364,178.8,364,178.2,364,177.6L364,177.6z M364,209.3c3,0,6.1,0,9.1,0c0,0.6,0,1.2,0,1.8
				c-3,0-6.1,0-9.1,0C364,210.6,364,209.9,364,209.3L364,209.3z M364,241.1c3,0,6.1,0,9.1,0c0,0.6,0,1.2,0,1.8c-3,0-6.1,0-9.1,0
				C364,242.3,364,241.7,364,241.1L364,241.1z M364,274.6c0-0.6,0-1.2,0-1.8c3,0,6.1,0,9.1,0c0,0.6,0,1.2,0,1.8
				C370.1,274.6,367.1,274.6,364,274.6L364,274.6z M364,304.5c3,0,6.1,0,9.1,0c0,0.6,0,1.2,0,1.8c-3,0-6.1,0-9.1,0
				C364,305.8,364,305.1,364,304.5L364,304.5z M364,336.3c3,0,6.1,0,9.1,0c0,0.6,0,1.2,0,1.8c-3,0-6.1,0-9.1,0
				C364,337.5,364,336.9,364,336.3L364,336.3z M376.8,18.9c3,0,6.1,0,9.1,0c0,0.6,0,1.2,0,1.8c-3,0-6.1,0-9.1,0
				C376.8,20.2,376.8,19.5,376.8,18.9L376.8,18.9z M376.8,50.7c3,0,6.1,0,9.1,0c0,0.6,0,1.2,0,1.8c-3,0-6.1,0-9.1,0
				C376.8,51.9,376.8,51.3,376.8,50.7L376.8,50.7z M376.8,82.4c3,0,6.1,0,9.1,0c0,0.6,0,1.2,0,1.8c-3,0-6.1,0-9.1,0
				C376.8,83.6,376.8,83,376.8,82.4L376.8,82.4z M376.8,114.1c3,0,6.1,0,9.1,0c0,0.6,0,1.2,0,1.8c-3,0-6.1,0-9.1,0
				C376.8,115.4,376.8,114.7,376.8,114.1L376.8,114.1z M376.8,145.9c3,0,6.1,0,9.1,0c0,0.6,0,1.2,0,1.8c-3,0-6.1,0-9.1,0
				C376.8,147.1,376.8,146.5,376.8,145.9L376.8,145.9z M376.8,177.6c3,0,6.1,0,9.1,0c0,0.6,0,1.2,0,1.8c-3,0-6.1,0-9.1,0
				C376.8,178.8,376.8,178.2,376.8,177.6L376.8,177.6z M376.8,209.3c3,0,6.1,0,9.1,0c0,0.6,0,1.2,0,1.8c-3,0-6.1,0-9.1,0
				C376.8,210.6,376.8,209.9,376.8,209.3L376.8,209.3z M376.8,241.1c3,0,6.1,0,9.1,0c0,0.6,0,1.2,0,1.8c-3,0-6.1,0-9.1,0
				C376.8,242.3,376.8,241.7,376.8,241.1L376.8,241.1z M376.8,274.6c0-0.6,0-1.2,0-1.8c3,0,6.1,0,9.1,0c0,0.6,0,1.2,0,1.8
				C382.8,274.6,379.8,274.6,376.8,274.6L376.8,274.6z M376.8,304.5c3,0,6.1,0,9.1,0c0,0.6,0,1.2,0,1.8c-3,0-6.1,0-9.1,0
				C376.8,305.8,376.8,305.1,376.8,304.5L376.8,304.5z M376.8,336.3c3,0,6.1,0,9.1,0c0,0.6,0,1.2,0,1.8c-3,0-6.1,0-9.1,0
				C376.8,337.5,376.8,336.9,376.8,336.3L376.8,336.3z M389.5,18.9c3,0,6.1,0,9.1,0c0,0.6,0,1.2,0,1.8c-3,0-6.1,0-9.1,0
				C389.5,20.2,389.5,19.5,389.5,18.9L389.5,18.9z M389.5,50.7c3,0,6.1,0,9.1,0c0,0.6,0,1.2,0,1.8c-3,0-6.1,0-9.1,0
				C389.5,51.9,389.5,51.3,389.5,50.7L389.5,50.7z M389.5,82.4c3,0,6.1,0,9.1,0c0,0.6,0,1.2,0,1.8c-3,0-6.1,0-9.1,0
				C389.5,83.6,389.5,83,389.5,82.4L389.5,82.4z M389.5,114.1c3,0,6.1,0,9.1,0c0,0.6,0,1.2,0,1.8c-3,0-6.1,0-9.1,0
				C389.5,115.4,389.5,114.7,389.5,114.1L389.5,114.1z M389.5,145.9c3,0,6.1,0,9.1,0c0,0.6,0,1.2,0,1.8c-3,0-6.1,0-9.1,0
				C389.5,147.1,389.5,146.5,389.5,145.9L389.5,145.9z M389.5,177.6c3,0,6.1,0,9.1,0c0,0.6,0,1.2,0,1.8c-3,0-6.1,0-9.1,0
				C389.5,178.8,389.5,178.2,389.5,177.6L389.5,177.6z M389.5,209.3c3,0,6.1,0,9.1,0c0,0.6,0,1.2,0,1.8c-3,0-6.1,0-9.1,0
				C389.5,210.6,389.5,209.9,389.5,209.3L389.5,209.3z M389.5,241.1c3,0,6.1,0,9.1,0c0,0.6,0,1.2,0,1.8c-3,0-6.1,0-9.1,0
				C389.5,242.3,389.5,241.7,389.5,241.1L389.5,241.1z M389.5,274.6c0-0.6,0-1.2,0-1.8c3,0,6.1,0,9.1,0c0,0.6,0,1.2,0,1.8
				C395.6,274.6,392.6,274.6,389.5,274.6L389.5,274.6z M389.5,304.5c3,0,6.1,0,9.1,0c0,0.6,0,1.2,0,1.8c-3,0-6.1,0-9.1,0
				C389.5,305.8,389.5,305.1,389.5,304.5L389.5,304.5z M389.5,336.3c3,0,6.1,0,9.1,0c0,0.6,0,1.2,0,1.8c-3,0-6.1,0-9.1,0
				C389.5,337.5,389.5,336.9,389.5,336.3L389.5,336.3z M402.3,18.9c3,0,6.1,0,9.1,0c0,0.6,0,1.2,0,1.8c-3,0-6.1,0-9.1,0
				C402.3,20.2,402.3,19.5,402.3,18.9L402.3,18.9z M402.3,50.7c3,0,6.1,0,9.1,0c0,0.6,0,1.2,0,1.8c-3,0-6.1,0-9.1,0
				C402.3,51.9,402.3,51.3,402.3,50.7L402.3,50.7z M402.3,82.4c3,0,6.1,0,9.1,0c0,0.6,0,1.2,0,1.8c-3,0-6.1,0-9.1,0
				C402.3,83.6,402.3,83,402.3,82.4L402.3,82.4z M402.3,114.1c3,0,6.1,0,9.1,0c0,0.6,0,1.2,0,1.8c-3,0-6.1,0-9.1,0
				C402.3,115.4,402.3,114.7,402.3,114.1L402.3,114.1z M402.3,145.9c3,0,6.1,0,9.1,0c0,0.6,0,1.2,0,1.8c-3,0-6.1,0-9.1,0
				C402.3,147.1,402.3,146.5,402.3,145.9L402.3,145.9z M402.3,177.6c3,0,6.1,0,9.1,0c0,0.6,0,1.2,0,1.8c-3,0-6.1,0-9.1,0
				C402.3,178.8,402.3,178.2,402.3,177.6L402.3,177.6z M402.3,209.3c3,0,6.1,0,9.1,0c0,0.6,0,1.2,0,1.8c-3,0-6.1,0-9.1,0
				C402.3,210.6,402.3,209.9,402.3,209.3L402.3,209.3z M402.3,241.1c3,0,6.1,0,9.1,0c0,0.6,0,1.2,0,1.8c-3,0-6.1,0-9.1,0
				C402.3,242.3,402.3,241.7,402.3,241.1L402.3,241.1z M402.3,274.6c0-0.6,0-1.2,0-1.8c3,0,6.1,0,9.1,0c0,0.6,0,1.2,0,1.8
				C408.4,274.6,405.3,274.6,402.3,274.6L402.3,274.6z M402.3,304.5c3,0,6.1,0,9.1,0c0,0.6,0,1.2,0,1.8c-3,0-6.1,0-9.1,0
				C402.3,305.8,402.3,305.1,402.3,304.5L402.3,304.5z M402.3,336.3c3,0,6.1,0,9.1,0c0,0.6,0,1.2,0,1.8c-3,0-6.1,0-9.1,0
				C402.3,337.5,402.3,336.9,402.3,336.3L402.3,336.3z M415.1,18.9c3,0,6.1,0,9.1,0c0,0.6,0,1.2,0,1.8c-3,0-6.1,0-9.1,0
				C415.1,20.2,415.1,19.5,415.1,18.9L415.1,18.9z M415.1,50.7c3,0,6.1,0,9.1,0c0,0.6,0,1.2,0,1.8c-3,0-6.1,0-9.1,0
				C415.1,51.9,415.1,51.3,415.1,50.7L415.1,50.7z M415.1,82.4c3,0,6.1,0,9.1,0c0,0.6,0,1.2,0,1.8c-3,0-6.1,0-9.1,0
				C415.1,83.6,415.1,83,415.1,82.4L415.1,82.4z M415.1,114.1c3,0,6.1,0,9.1,0c0,0.6,0,1.2,0,1.8c-3,0-6.1,0-9.1,0
				C415.1,115.4,415.1,114.7,415.1,114.1L415.1,114.1z M415.1,145.9c3,0,6.1,0,9.1,0c0,0.6,0,1.2,0,1.8c-3,0-6.1,0-9.1,0
				C415.1,147.1,415.1,146.5,415.1,145.9L415.1,145.9z M415.1,177.6c3,0,6.1,0,9.1,0c0,0.6,0,1.2,0,1.8c-3,0-6.1,0-9.1,0
				C415.1,178.8,415.1,178.2,415.1,177.6L415.1,177.6z M415.1,209.3c3,0,6.1,0,9.1,0c0,0.6,0,1.2,0,1.8c-3,0-6.1,0-9.1,0
				C415.1,210.6,415.1,209.9,415.1,209.3L415.1,209.3z M415.1,241.1c3,0,6.1,0,9.1,0c0,0.6,0,1.2,0,1.8c-3,0-6.1,0-9.1,0
				C415.1,242.3,415.1,241.7,415.1,241.1L415.1,241.1z M415.1,274.6c0-0.6,0-1.2,0-1.8c3,0,6.1,0,9.1,0c0,0.6,0,1.2,0,1.8
				C421.1,274.6,418.1,274.6,415.1,274.6L415.1,274.6z M415.1,304.5c3,0,6.1,0,9.1,0c0,0.6,0,1.2,0,1.8c-3,0-6.1,0-9.1,0
				C415.1,305.8,415.1,305.1,415.1,304.5L415.1,304.5z M415.1,336.3c3,0,6.1,0,9.1,0c0,0.6,0,1.2,0,1.8c-3,0-6.1,0-9.1,0
				C415.1,337.5,415.1,336.9,415.1,336.3L415.1,336.3z M427.8,18.9c3,0,6.1,0,9.1,0c0,0.6,0,1.2,0,1.8c-3,0-6.1,0-9.1,0
				C427.8,20.2,427.8,19.5,427.8,18.9L427.8,18.9z M427.8,50.7c3,0,6.1,0,9.1,0c0,0.6,0,1.2,0,1.8c-3,0-6.1,0-9.1,0
				C427.8,51.9,427.8,51.3,427.8,50.7L427.8,50.7z M427.8,82.4c3,0,6.1,0,9.1,0c0,0.6,0,1.2,0,1.8c-3,0-6.1,0-9.1,0
				C427.8,83.6,427.8,83,427.8,82.4L427.8,82.4z M427.8,114.1c3,0,6.1,0,9.1,0c0,0.6,0,1.2,0,1.8c-3,0-6.1,0-9.1,0
				C427.8,115.4,427.8,114.7,427.8,114.1L427.8,114.1z M427.8,145.9c3,0,6.1,0,9.1,0c0,0.6,0,1.2,0,1.8c-3,0-6.1,0-9.1,0
				C427.8,147.1,427.8,146.5,427.8,145.9L427.8,145.9z M427.8,177.6c3,0,6.1,0,9.1,0c0,0.6,0,1.2,0,1.8c-3,0-6.1,0-9.1,0
				C427.8,178.8,427.8,178.2,427.8,177.6L427.8,177.6z M427.8,209.3c3,0,6.1,0,9.1,0c0,0.6,0,1.2,0,1.8c-3,0-6.1,0-9.1,0
				C427.8,210.6,427.8,209.9,427.8,209.3L427.8,209.3z M427.8,241.1c3,0,6.1,0,9.1,0c0,0.6,0,1.2,0,1.8c-3,0-6.1,0-9.1,0
				C427.8,242.3,427.8,241.7,427.8,241.1L427.8,241.1z M427.8,274.6c0-0.6,0-1.2,0-1.8c3,0,6.1,0,9.1,0c0,0.6,0,1.2,0,1.8
				C433.9,274.6,430.9,274.6,427.8,274.6L427.8,274.6z M427.8,304.5c3,0,6.1,0,9.1,0c0,0.6,0,1.2,0,1.8c-3,0-6.1,0-9.1,0
				C427.8,305.8,427.8,305.1,427.8,304.5L427.8,304.5z M427.8,336.3c3,0,6.1,0,9.1,0c0,0.6,0,1.2,0,1.8c-3,0-6.1,0-9.1,0
				C427.8,337.5,427.8,336.9,427.8,336.3L427.8,336.3z M440.6,18.9c3,0,6.1,0,9.1,0c0,0.6,0,1.2,0,1.8c-3,0-6.1,0-9.1,0
				C440.6,20.2,440.6,19.5,440.6,18.9L440.6,18.9z M440.6,50.7c3,0,6.1,0,9.1,0c0,0.6,0,1.2,0,1.8c-3,0-6.1,0-9.1,0
				C440.6,51.9,440.6,51.3,440.6,50.7L440.6,50.7z M440.6,82.4c3,0,6.1,0,9.1,0c0,0.6,0,1.2,0,1.8c-3,0-6.1,0-9.1,0
				C440.6,83.6,440.6,83,440.6,82.4L440.6,82.4z M440.6,114.1c3,0,6.1,0,9.1,0c0,0.6,0,1.2,0,1.8c-3,0-6.1,0-9.1,0
				C440.6,115.4,440.6,114.7,440.6,114.1L440.6,114.1z M440.6,145.9c3,0,6.1,0,9.1,0c0,0.6,0,1.2,0,1.8c-3,0-6.1,0-9.1,0
				C440.6,147.1,440.6,146.5,440.6,145.9L440.6,145.9z M440.6,177.6c3,0,6.1,0,9.1,0c0,0.6,0,1.2,0,1.8c-3,0-6.1,0-9.1,0
				C440.6,178.8,440.6,178.2,440.6,177.6L440.6,177.6z M440.6,209.3c3,0,6.1,0,9.1,0c0,0.6,0,1.2,0,1.8c-3,0-6.1,0-9.1,0
				C440.6,210.6,440.6,209.9,440.6,209.3L440.6,209.3z M440.6,241.1c3,0,6.1,0,9.1,0c0,0.6,0,1.2,0,1.8c-3,0-6.1,0-9.1,0
				C440.6,242.3,440.6,241.7,440.6,241.1L440.6,241.1z M440.6,274.6c0-0.6,0-1.2,0-1.8c3,0,6.1,0,9.1,0c0,0.6,0,1.2,0,1.8
				C446.7,274.6,443.6,274.6,440.6,274.6L440.6,274.6z M440.6,304.5c3,0,6.1,0,9.1,0c0,0.6,0,1.2,0,1.8c-3,0-6.1,0-9.1,0
				C440.6,305.8,440.6,305.1,440.6,304.5L440.6,304.5z M440.6,336.3c3,0,6.1,0,9.1,0c0,0.6,0,1.2,0,1.8c-3,0-6.1,0-9.1,0
				C440.6,337.5,440.6,336.9,440.6,336.3L440.6,336.3z M453.4,18.9c3,0,6.1,0,9.1,0c0,0.6,0,1.2,0,1.8c-3,0-6.1,0-9.1,0
				C453.4,20.2,453.4,19.5,453.4,18.9L453.4,18.9z M453.4,50.7c3,0,6.1,0,9.1,0c0,0.6,0,1.2,0,1.8c-3,0-6.1,0-9.1,0
				C453.4,51.9,453.4,51.3,453.4,50.7L453.4,50.7z M453.4,82.4c3,0,6.1,0,9.1,0c0,0.6,0,1.2,0,1.8c-3,0-6.1,0-9.1,0
				C453.4,83.6,453.4,83,453.4,82.4L453.4,82.4z M453.4,114.1c3,0,6.1,0,9.1,0c0,0.6,0,1.2,0,1.8c-3,0-6.1,0-9.1,0
				C453.4,115.4,453.4,114.7,453.4,114.1L453.4,114.1z M453.4,145.9c3,0,6.1,0,9.1,0c0,0.6,0,1.2,0,1.8c-3,0-6.1,0-9.1,0
				C453.4,147.1,453.4,146.5,453.4,145.9L453.4,145.9z M453.4,177.6c3,0,6.1,0,9.1,0c0,0.6,0,1.2,0,1.8c-3,0-6.1,0-9.1,0
				C453.4,178.8,453.4,178.2,453.4,177.6L453.4,177.6z M453.4,209.3c3,0,6.1,0,9.1,0c0,0.6,0,1.2,0,1.8c-3,0-6.1,0-9.1,0
				C453.4,210.6,453.4,209.9,453.4,209.3L453.4,209.3z M453.4,241.1c3,0,6.1,0,9.1,0c0,0.6,0,1.2,0,1.8c-3,0-6.1,0-9.1,0
				C453.4,242.3,453.4,241.7,453.4,241.1L453.4,241.1z M453.4,274.6c0-0.6,0-1.2,0-1.8c3,0,6.1,0,9.1,0c0,0.6,0,1.2,0,1.8
				C459.4,274.6,456.4,274.6,453.4,274.6L453.4,274.6z M453.4,304.5c3,0,6.1,0,9.1,0c0,0.6,0,1.2,0,1.8c-3,0-6.1,0-9.1,0
				C453.4,305.8,453.4,305.1,453.4,304.5L453.4,304.5z M453.4,336.3c3,0,6.1,0,9.1,0c0,0.6,0,1.2,0,1.8c-3,0-6.1,0-9.1,0
				C453.4,337.5,453.4,336.9,453.4,336.3L453.4,336.3z M466.1,18.9c3,0,6.1,0,9.1,0c0,0.6,0,1.2,0,1.8c-3,0-6.1,0-9.1,0
				C466.1,20.2,466.1,19.5,466.1,18.9L466.1,18.9z M466.1,50.7c3,0,6.1,0,9.1,0c0,0.6,0,1.2,0,1.8c-3,0-6.1,0-9.1,0
				C466.1,51.9,466.1,51.3,466.1,50.7L466.1,50.7z M466.1,82.4c3,0,6.1,0,9.1,0c0,0.6,0,1.2,0,1.8c-3,0-6.1,0-9.1,0
				C466.1,83.6,466.1,83,466.1,82.4L466.1,82.4z M466.1,114.1c3,0,6.1,0,9.1,0c0,0.6,0,1.2,0,1.8c-3,0-6.1,0-9.1,0
				C466.1,115.4,466.1,114.7,466.1,114.1L466.1,114.1z M466.1,145.9c3,0,6.1,0,9.1,0c0,0.6,0,1.2,0,1.8c-3,0-6.1,0-9.1,0
				C466.1,147.1,466.1,146.5,466.1,145.9L466.1,145.9z M466.1,177.6c3,0,6.1,0,9.1,0c0,0.6,0,1.2,0,1.8c-3,0-6.1,0-9.1,0
				C466.1,178.8,466.1,178.2,466.1,177.6L466.1,177.6z M466.1,209.3c3,0,6.1,0,9.1,0c0,0.6,0,1.2,0,1.8c-3,0-6.1,0-9.1,0
				C466.1,210.6,466.1,209.9,466.1,209.3L466.1,209.3z M466.1,241.1c3,0,6.1,0,9.1,0c0,0.6,0,1.2,0,1.8c-3,0-6.1,0-9.1,0
				C466.1,242.3,466.1,241.7,466.1,241.1L466.1,241.1z M466.1,274.6c0-0.6,0-1.2,0-1.8c3,0,6.1,0,9.1,0c0,0.6,0,1.2,0,1.8
				C472.2,274.6,469.1,274.6,466.1,274.6L466.1,274.6z M466.1,304.5c3,0,6.1,0,9.1,0c0,0.6,0,1.2,0,1.8c-3,0-6.1,0-9.1,0
				C466.1,305.8,466.1,305.1,466.1,304.5L466.1,304.5z M466.1,336.3c3,0,6.1,0,9.1,0c0,0.6,0,1.2,0,1.8c-3,0-6.1,0-9.1,0
				C466.1,337.5,466.1,336.9,466.1,336.3L466.1,336.3z M478.9,18.9c3,0,6.1,0,9.1,0c0,0.6,0,1.2,0,1.8c-3,0-6.1,0-9.1,0
				C478.9,20.2,478.9,19.5,478.9,18.9L478.9,18.9z M478.9,50.7c3,0,6.1,0,9.1,0c0,0.6,0,1.2,0,1.8c-3,0-6.1,0-9.1,0
				C478.9,51.9,478.9,51.3,478.9,50.7L478.9,50.7z M478.9,82.4c3,0,6.1,0,9.1,0c0,0.6,0,1.2,0,1.8c-3,0-6.1,0-9.1,0
				C478.9,83.6,478.9,83,478.9,82.4L478.9,82.4z M478.9,114.1c3,0,6.1,0,9.1,0c0,0.6,0,1.2,0,1.8c-3,0-6.1,0-9.1,0
				C478.9,115.4,478.9,114.7,478.9,114.1L478.9,114.1z M478.9,145.9c3,0,6.1,0,9.1,0c0,0.6,0,1.2,0,1.8c-3,0-6.1,0-9.1,0
				C478.9,147.1,478.9,146.5,478.9,145.9L478.9,145.9z M478.9,177.6c3,0,6.1,0,9.1,0c0,0.6,0,1.2,0,1.8c-3,0-6.1,0-9.1,0
				C478.9,178.8,478.9,178.2,478.9,177.6L478.9,177.6z M478.9,209.3c3,0,6.1,0,9.1,0c0,0.6,0,1.2,0,1.8c-3,0-6.1,0-9.1,0
				C478.9,210.6,478.9,209.9,478.9,209.3L478.9,209.3z M478.9,241.1c3,0,6.1,0,9.1,0c0,0.6,0,1.2,0,1.8c-3,0-6.1,0-9.1,0
				C478.9,242.3,478.9,241.7,478.9,241.1L478.9,241.1z M478.9,274.6c0-0.6,0-1.2,0-1.8c3,0,6.1,0,9.1,0c0,0.6,0,1.2,0,1.8
				C484.9,274.6,481.9,274.6,478.9,274.6L478.9,274.6z M478.9,304.5c3,0,6.1,0,9.1,0c0,0.6,0,1.2,0,1.8c-3,0-6.1,0-9.1,0
				C478.9,305.8,478.9,305.1,478.9,304.5L478.9,304.5z M478.9,336.3c3,0,6.1,0,9.1,0c0,0.6,0,1.2,0,1.8c-3,0-6.1,0-9.1,0
				C478.9,337.5,478.9,336.9,478.9,336.3L478.9,336.3z M491.6,18.9c3,0,6.1,0,9.1,0c0,0.6,0,1.2,0,1.8c-3,0-6.1,0-9.1,0
				C491.6,20.2,491.6,19.5,491.6,18.9L491.6,18.9z M491.6,50.7c3,0,6.1,0,9.1,0c0,0.6,0,1.2,0,1.8c-3,0-6.1,0-9.1,0
				C491.6,51.9,491.6,51.3,491.6,50.7L491.6,50.7z M491.6,82.4c3,0,6.1,0,9.1,0c0,0.6,0,1.2,0,1.8c-3,0-6.1,0-9.1,0
				C491.6,83.6,491.6,83,491.6,82.4L491.6,82.4z M491.6,114.1c3,0,6.1,0,9.1,0c0,0.6,0,1.2,0,1.8c-3,0-6.1,0-9.1,0
				C491.6,115.4,491.6,114.7,491.6,114.1L491.6,114.1z M491.6,145.9c3,0,6.1,0,9.1,0c0,0.6,0,1.2,0,1.8c-3,0-6.1,0-9.1,0
				C491.6,147.1,491.6,146.5,491.6,145.9L491.6,145.9z M491.6,177.6c3,0,6.1,0,9.1,0c0,0.6,0,1.2,0,1.8c-3,0-6.1,0-9.1,0
				C491.6,178.8,491.6,178.2,491.6,177.6L491.6,177.6z M491.6,209.3c3,0,6.1,0,9.1,0c0,0.6,0,1.2,0,1.8c-3,0-6.1,0-9.1,0
				C491.6,210.6,491.6,209.9,491.6,209.3L491.6,209.3z M491.6,241.1c3,0,6.1,0,9.1,0c0,0.6,0,1.2,0,1.8c-3,0-6.1,0-9.1,0
				C491.6,242.3,491.6,241.7,491.6,241.1L491.6,241.1z M491.6,274.6c0-0.6,0-1.2,0-1.8c3,0,6.1,0,9.1,0c0,0.6,0,1.2,0,1.8
				C497.7,274.6,494.7,274.6,491.6,274.6L491.6,274.6z M491.6,304.5c3,0,6.1,0,9.1,0c0,0.6,0,1.2,0,1.8c-3,0-6.1,0-9.1,0
				C491.6,305.8,491.6,305.1,491.6,304.5L491.6,304.5z M491.6,336.3c3,0,6.1,0,9.1,0c0,0.6,0,1.2,0,1.8c-3,0-6.1,0-9.1,0
				C491.6,337.5,491.6,336.9,491.6,336.3L491.6,336.3z M504.4,18.9c3,0,6.1,0,9.1,0c0,0.6,0,1.2,0,1.8c-3,0-6.1,0-9.1,0
				C504.4,20.2,504.4,19.5,504.4,18.9L504.4,18.9z M504.4,50.7c3,0,6.1,0,9.1,0c0,0.6,0,1.2,0,1.8c-3,0-6.1,0-9.1,0
				C504.4,51.9,504.4,51.3,504.4,50.7L504.4,50.7z M504.4,82.4c3,0,6.1,0,9.1,0c0,0.6,0,1.2,0,1.8c-3,0-6.1,0-9.1,0
				C504.4,83.6,504.4,83,504.4,82.4L504.4,82.4z M504.4,114.1c3,0,6.1,0,9.1,0c0,0.6,0,1.2,0,1.8c-3,0-6.1,0-9.1,0
				C504.4,115.4,504.4,114.7,504.4,114.1L504.4,114.1z M504.4,145.9c3,0,6.1,0,9.1,0c0,0.6,0,1.2,0,1.8c-3,0-6.1,0-9.1,0
				C504.4,147.1,504.4,146.5,504.4,145.9L504.4,145.9z M504.4,177.6c3,0,6.1,0,9.1,0c0,0.6,0,1.2,0,1.8c-3,0-6.1,0-9.1,0
				C504.4,178.8,504.4,178.2,504.4,177.6L504.4,177.6z M504.4,209.3c3,0,6.1,0,9.1,0c0,0.6,0,1.2,0,1.8c-3,0-6.1,0-9.1,0
				C504.4,210.6,504.4,209.9,504.4,209.3L504.4,209.3z M504.4,241.1c3,0,6.1,0,9.1,0c0,0.6,0,1.2,0,1.8c-3,0-6.1,0-9.1,0
				C504.4,242.3,504.4,241.7,504.4,241.1L504.4,241.1z M504.4,274.6c0-0.6,0-1.2,0-1.8c3,0,6.1,0,9.1,0c0,0.6,0,1.2,0,1.8
				C510.5,274.6,507.4,274.6,504.4,274.6L504.4,274.6z M504.4,304.5c3,0,6.1,0,9.1,0c0,0.6,0,1.2,0,1.8c-3,0-6.1,0-9.1,0
				C504.4,305.8,504.4,305.1,504.4,304.5L504.4,304.5z M504.4,336.3c3,0,6.1,0,9.1,0c0,0.6,0,1.2,0,1.8c-3,0-6.1,0-9.1,0
				C504.4,337.5,504.4,336.9,504.4,336.3L504.4,336.3z M517.2,18.9c3,0,6.1,0,9.1,0c0,0.6,0,1.2,0,1.8c-3,0-6.1,0-9.1,0
				C517.2,20.2,517.2,19.5,517.2,18.9L517.2,18.9z M517.2,50.7c3,0,6.1,0,9.1,0c0,0.6,0,1.2,0,1.8c-3,0-6.1,0-9.1,0
				C517.2,51.9,517.2,51.3,517.2,50.7L517.2,50.7z M517.2,82.4c3,0,6.1,0,9.1,0c0,0.6,0,1.2,0,1.8c-3,0-6.1,0-9.1,0
				C517.2,83.6,517.2,83,517.2,82.4L517.2,82.4z M517.2,114.1c3,0,6.1,0,9.1,0c0,0.6,0,1.2,0,1.8c-3,0-6.1,0-9.1,0
				C517.2,115.4,517.2,114.7,517.2,114.1L517.2,114.1z M517.2,145.9c3,0,6.1,0,9.1,0c0,0.6,0,1.2,0,1.8c-3,0-6.1,0-9.1,0
				C517.2,147.1,517.2,146.5,517.2,145.9L517.2,145.9z M517.2,177.6c3,0,6.1,0,9.1,0c0,0.6,0,1.2,0,1.8c-3,0-6.1,0-9.1,0
				C517.2,178.8,517.2,178.2,517.2,177.6L517.2,177.6z M517.2,209.3c3,0,6.1,0,9.1,0c0,0.6,0,1.2,0,1.8c-3,0-6.1,0-9.1,0
				C517.2,210.6,517.2,209.9,517.2,209.3L517.2,209.3z M517.2,241.1c3,0,6.1,0,9.1,0c0,0.6,0,1.2,0,1.8c-3,0-6.1,0-9.1,0
				C517.2,242.3,517.2,241.7,517.2,241.1L517.2,241.1z M517.2,274.6c0-0.6,0-1.2,0-1.8c3,0,6.1,0,9.1,0c0,0.6,0,1.2,0,1.8
				C523.2,274.6,520.2,274.6,517.2,274.6L517.2,274.6z M517.2,304.5c3,0,6.1,0,9.1,0c0,0.6,0,1.2,0,1.8c-3,0-6.1,0-9.1,0
				C517.2,305.8,517.2,305.1,517.2,304.5L517.2,304.5z M517.2,336.3c3,0,6.1,0,9.1,0c0,0.6,0,1.2,0,1.8c-3,0-6.1,0-9.1,0
				C517.2,337.5,517.2,336.9,517.2,336.3L517.2,336.3z M529.9,18.9c3,0,6.1,0,9.1,0c0,0.6,0,1.2,0,1.8c-3,0-6.1,0-9.1,0
				C529.9,20.2,529.9,19.5,529.9,18.9L529.9,18.9z M529.9,50.7c3,0,6.1,0,9.1,0c0,0.6,0,1.2,0,1.8c-3,0-6.1,0-9.1,0
				C529.9,51.9,529.9,51.3,529.9,50.7L529.9,50.7z M529.9,82.4c3,0,6.1,0,9.1,0c0,0.6,0,1.2,0,1.8c-3,0-6.1,0-9.1,0
				C529.9,83.6,529.9,83,529.9,82.4L529.9,82.4z M529.9,114.1c3,0,6.1,0,9.1,0c0,0.6,0,1.2,0,1.8c-3,0-6.1,0-9.1,0
				C529.9,115.4,529.9,114.7,529.9,114.1L529.9,114.1z M529.9,145.9c3,0,6.1,0,9.1,0c0,0.6,0,1.2,0,1.8c-3,0-6.1,0-9.1,0
				C529.9,147.1,529.9,146.5,529.9,145.9L529.9,145.9z M529.9,177.6c3,0,6.1,0,9.1,0c0,0.6,0,1.2,0,1.8c-3,0-6.1,0-9.1,0
				C529.9,178.8,529.9,178.2,529.9,177.6L529.9,177.6z M529.9,209.3c3,0,6.1,0,9.1,0c0,0.6,0,1.2,0,1.8c-3,0-6.1,0-9.1,0
				C529.9,210.6,529.9,209.9,529.9,209.3L529.9,209.3z M529.9,241.1c3,0,6.1,0,9.1,0c0,0.6,0,1.2,0,1.8c-3,0-6.1,0-9.1,0
				C529.9,242.3,529.9,241.7,529.9,241.1L529.9,241.1z M529.9,274.6c0-0.6,0-1.2,0-1.8c3,0,6.1,0,9.1,0c0,0.6,0,1.2,0,1.8
				C536,274.6,533,274.6,529.9,274.6L529.9,274.6z M529.9,304.5c3,0,6.1,0,9.1,0c0,0.6,0,1.2,0,1.8c-3,0-6.1,0-9.1,0
				C529.9,305.8,529.9,305.1,529.9,304.5L529.9,304.5z M529.9,336.3c3,0,6.1,0,9.1,0c0,0.6,0,1.2,0,1.8c-3,0-6.1,0-9.1,0
				C529.9,337.5,529.9,336.9,529.9,336.3L529.9,336.3z M542.7,18.9c3,0,6.1,0,9.1,0c0,0.6,0,1.2,0,1.8c-3,0-6.1,0-9.1,0
				C542.7,20.2,542.7,19.5,542.7,18.9L542.7,18.9z M542.7,50.7c3,0,6.1,0,9.1,0c0,0.6,0,1.2,0,1.8c-3,0-6.1,0-9.1,0
				C542.7,51.9,542.7,51.3,542.7,50.7L542.7,50.7z M542.7,82.4c3,0,6.1,0,9.1,0c0,0.6,0,1.2,0,1.8c-3,0-6.1,0-9.1,0
				C542.7,83.6,542.7,83,542.7,82.4L542.7,82.4z M542.7,114.1c3,0,6.1,0,9.1,0c0,0.6,0,1.2,0,1.8c-3,0-6.1,0-9.1,0
				C542.7,115.4,542.7,114.7,542.7,114.1L542.7,114.1z M542.7,145.9c3,0,6.1,0,9.1,0c0,0.6,0,1.2,0,1.8c-3,0-6.1,0-9.1,0
				C542.7,147.1,542.7,146.5,542.7,145.9L542.7,145.9z M542.7,177.6c3,0,6.1,0,9.1,0c0,0.6,0,1.2,0,1.8c-3,0-6.1,0-9.1,0
				C542.7,178.8,542.7,178.2,542.7,177.6L542.7,177.6z M542.7,209.3c3,0,6.1,0,9.1,0c0,0.6,0,1.2,0,1.8c-3,0-6.1,0-9.1,0
				C542.7,210.6,542.7,209.9,542.7,209.3L542.7,209.3z M542.7,241.1c3,0,6.1,0,9.1,0c0,0.6,0,1.2,0,1.8c-3,0-6.1,0-9.1,0
				C542.7,242.3,542.7,241.7,542.7,241.1L542.7,241.1z M542.7,274.6c0-0.6,0-1.2,0-1.8c3,0,6.1,0,9.1,0c0,0.6,0,1.2,0,1.8
				C548.7,274.6,545.7,274.6,542.7,274.6L542.7,274.6z M542.7,304.5c3,0,6.1,0,9.1,0c0,0.6,0,1.2,0,1.8c-3,0-6.1,0-9.1,0
				C542.7,305.8,542.7,305.1,542.7,304.5L542.7,304.5z M542.7,336.3c3,0,6.1,0,9.1,0c0,0.6,0,1.2,0,1.8c-3,0-6.1,0-9.1,0
				C542.7,337.5,542.7,336.9,542.7,336.3L542.7,336.3z M555.4,18.9c3,0,6.1,0,9.1,0c0,0.6,0,1.2,0,1.8c-3,0-6.1,0-9.1,0
				C555.4,20.2,555.4,19.5,555.4,18.9L555.4,18.9z M555.4,50.7c3,0,6.1,0,9.1,0c0,0.6,0,1.2,0,1.8c-3,0-6.1,0-9.1,0
				C555.4,51.9,555.4,51.3,555.4,50.7L555.4,50.7z M555.4,82.4c3,0,6.1,0,9.1,0c0,0.6,0,1.2,0,1.8c-3,0-6.1,0-9.1,0
				C555.4,83.6,555.4,83,555.4,82.4L555.4,82.4z M555.4,114.1c3,0,6.1,0,9.1,0c0,0.6,0,1.2,0,1.8c-3,0-6.1,0-9.1,0
				C555.4,115.4,555.4,114.7,555.4,114.1L555.4,114.1z M555.4,145.9c3,0,6.1,0,9.1,0c0,0.6,0,1.2,0,1.8c-3,0-6.1,0-9.1,0
				C555.4,147.1,555.4,146.5,555.4,145.9L555.4,145.9z M555.4,177.6c3,0,6.1,0,9.1,0c0,0.6,0,1.2,0,1.8c-3,0-6.1,0-9.1,0
				C555.4,178.8,555.4,178.2,555.4,177.6L555.4,177.6z M555.4,209.3c3,0,6.1,0,9.1,0c0,0.6,0,1.2,0,1.8c-3,0-6.1,0-9.1,0
				C555.4,210.6,555.4,209.9,555.4,209.3L555.4,209.3z M555.4,241.1c3,0,6.1,0,9.1,0c0,0.6,0,1.2,0,1.8c-3,0-6.1,0-9.1,0
				C555.4,242.3,555.4,241.7,555.4,241.1L555.4,241.1z M555.4,274.6c0-0.6,0-1.2,0-1.8c3,0,6.1,0,9.1,0c0,0.6,0,1.2,0,1.8
				C561.5,274.6,558.5,274.6,555.4,274.6L555.4,274.6z M555.4,304.5c3,0,6.1,0,9.1,0c0,0.6,0,1.2,0,1.8c-3,0-6.1,0-9.1,0
				C555.4,305.8,555.4,305.1,555.4,304.5L555.4,304.5z M555.4,336.3c3,0,6.1,0,9.1,0c0,0.6,0,1.2,0,1.8c-3,0-6.1,0-9.1,0
				C555.4,337.5,555.4,336.9,555.4,336.3L555.4,336.3z M568.2,18.9c3,0,6.1,0,9.1,0c0,0.6,0,1.2,0,1.8c-3,0-6.1,0-9.1,0
				C568.2,20.2,568.2,19.5,568.2,18.9L568.2,18.9z M568.2,50.7c3,0,6.1,0,9.1,0c0,0.6,0,1.2,0,1.8c-3,0-6.1,0-9.1,0
				C568.2,51.9,568.2,51.3,568.2,50.7L568.2,50.7z M568.2,82.4c3,0,6.1,0,9.1,0c0,0.6,0,1.2,0,1.8c-3,0-6.1,0-9.1,0
				C568.2,83.6,568.2,83,568.2,82.4L568.2,82.4z M568.2,114.1c3,0,6.1,0,9.1,0c0,0.6,0,1.2,0,1.8c-3,0-6.1,0-9.1,0
				C568.2,115.4,568.2,114.7,568.2,114.1L568.2,114.1z M568.2,145.9c3,0,6.1,0,9.1,0c0,0.6,0,1.2,0,1.8c-3,0-6.1,0-9.1,0
				C568.2,147.1,568.2,146.5,568.2,145.9L568.2,145.9z M568.2,177.6c3,0,6.1,0,9.1,0c0,0.6,0,1.2,0,1.8c-3,0-6.1,0-9.1,0
				C568.2,178.8,568.2,178.2,568.2,177.6L568.2,177.6z M568.2,209.3c3,0,6.1,0,9.1,0c0,0.6,0,1.2,0,1.8c-3,0-6.1,0-9.1,0
				C568.2,210.6,568.2,209.9,568.2,209.3L568.2,209.3z M568.2,241.1c3,0,6.1,0,9.1,0c0,0.6,0,1.2,0,1.8c-3,0-6.1,0-9.1,0
				C568.2,242.3,568.2,241.7,568.2,241.1L568.2,241.1z M568.2,274.6c0-0.6,0-1.2,0-1.8c3,0,6.1,0,9.1,0c0,0.6,0,1.2,0,1.8
				C574.3,274.6,571.2,274.6,568.2,274.6L568.2,274.6z M568.2,304.5c3,0,6.1,0,9.1,0c0,0.6,0,1.2,0,1.8c-3,0-6.1,0-9.1,0
				C568.2,305.8,568.2,305.1,568.2,304.5L568.2,304.5z M568.2,336.3c3,0,6.1,0,9.1,0c0,0.6,0,1.2,0,1.8c-3,0-6.1,0-9.1,0
				C568.2,337.5,568.2,336.9,568.2,336.3L568.2,336.3z M581,18.9c3,0,6.1,0,9.1,0c0,0.6,0,1.2,0,1.8c-3,0-6.1,0-9.1,0
				C581,20.2,581,19.5,581,18.9L581,18.9z M581,50.7c3,0,6.1,0,9.1,0c0,0.6,0,1.2,0,1.8c-3,0-6.1,0-9.1,0
				C581,51.9,581,51.3,581,50.7L581,50.7z M581,82.4c3,0,6.1,0,9.1,0c0,0.6,0,1.2,0,1.8c-3,0-6.1,0-9.1,0C581,83.6,581,83,581,82.4
				L581,82.4z M581,114.1c3,0,6.1,0,9.1,0c0,0.6,0,1.2,0,1.8c-3,0-6.1,0-9.1,0C581,115.4,581,114.7,581,114.1L581,114.1z M581,145.9
				c3,0,6.1,0,9.1,0c0,0.6,0,1.2,0,1.8c-3,0-6.1,0-9.1,0C581,147.1,581,146.5,581,145.9L581,145.9z M581,177.6c3,0,6.1,0,9.1,0
				c0,0.6,0,1.2,0,1.8c-3,0-6.1,0-9.1,0C581,178.8,581,178.2,581,177.6L581,177.6z M581,209.3c3,0,6.1,0,9.1,0c0,0.6,0,1.2,0,1.8
				c-3,0-6.1,0-9.1,0C581,210.6,581,209.9,581,209.3L581,209.3z M581,241.1c3,0,6.1,0,9.1,0c0,0.6,0,1.2,0,1.8c-3,0-6.1,0-9.1,0
				C581,242.3,581,241.7,581,241.1L581,241.1z M581,274.6c0-0.6,0-1.2,0-1.8c3,0,6.1,0,9.1,0c0,0.6,0,1.2,0,1.8
				C587,274.6,584,274.6,581,274.6L581,274.6z M581,304.5c3,0,6.1,0,9.1,0c0,0.6,0,1.2,0,1.8c-3,0-6.1,0-9.1,0
				C581,305.8,581,305.1,581,304.5L581,304.5z M581,336.3c3,0,6.1,0,9.1,0c0,0.6,0,1.2,0,1.8c-3,0-6.1,0-9.1,0
				C581,337.5,581,336.9,581,336.3L581,336.3z M593.7,18.9c3,0,6.1,0,9.1,0c0,0.6,0,1.2,0,1.8c-3,0-6.1,0-9.1,0
				C593.7,20.2,593.7,19.5,593.7,18.9L593.7,18.9z M593.7,50.7c3,0,6.1,0,9.1,0c0,0.6,0,1.2,0,1.8c-3,0-6.1,0-9.1,0
				C593.7,51.9,593.7,51.3,593.7,50.7L593.7,50.7z M593.7,82.4c3,0,6.1,0,9.1,0c0,0.6,0,1.2,0,1.8c-3,0-6.1,0-9.1,0
				C593.7,83.6,593.7,83,593.7,82.4L593.7,82.4z M593.7,114.1c3,0,6.1,0,9.1,0c0,0.6,0,1.2,0,1.8c-3,0-6.1,0-9.1,0
				C593.7,115.4,593.7,114.7,593.7,114.1L593.7,114.1z M593.7,145.9c3,0,6.1,0,9.1,0c0,0.6,0,1.2,0,1.8c-3,0-6.1,0-9.1,0
				C593.7,147.1,593.7,146.5,593.7,145.9L593.7,145.9z M593.7,177.6c3,0,6.1,0,9.1,0c0,0.6,0,1.2,0,1.8c-3,0-6.1,0-9.1,0
				C593.7,178.8,593.7,178.2,593.7,177.6L593.7,177.6z M593.7,209.3c3,0,6.1,0,9.1,0c0,0.6,0,1.2,0,1.8c-3,0-6.1,0-9.1,0
				C593.7,210.6,593.7,209.9,593.7,209.3L593.7,209.3z M593.7,241.1c3,0,6.1,0,9.1,0c0,0.6,0,1.2,0,1.8c-3,0-6.1,0-9.1,0
				C593.7,242.3,593.7,241.7,593.7,241.1L593.7,241.1z M593.7,274.6c0-0.6,0-1.2,0-1.8c3,0,6.1,0,9.1,0c0,0.6,0,1.2,0,1.8
				C599.8,274.6,596.8,274.6,593.7,274.6L593.7,274.6z M593.7,304.5c3,0,6.1,0,9.1,0c0,0.6,0,1.2,0,1.8c-3,0-6.1,0-9.1,0
				C593.7,305.8,593.7,305.1,593.7,304.5L593.7,304.5z M593.7,336.3c3,0,6.1,0,9.1,0c0,0.6,0,1.2,0,1.8c-3,0-6.1,0-9.1,0
				C593.7,337.5,593.7,336.9,593.7,336.3L593.7,336.3z"/>
			<path fill-rule="evenodd" clip-rule="evenodd" fill="#DCDBD9" d="M244.8,278.7c0,3,0,6.1,0,9.1c-0.6,0-1.2,0-1.8,0
				c0-3,0-6.1,0-9.1C243.6,278.7,244.2,278.7,244.8,278.7L244.8,278.7z M244.8,291.4c0,3,0,6.1,0,9.1c-0.6,0-1.2,0-1.8,0
				c0-3,0-6.1,0-9.1C243.6,291.4,244.2,291.4,244.8,291.4L244.8,291.4z M244.8,246.9c0,3,0,6.1,0,9.1c-0.6,0-1.2,0-1.8,0
				c0-3,0-6.1,0-9.1C243.6,246.9,244.2,246.9,244.8,246.9L244.8,246.9z M244.8,259.7c0,3,0,6.1,0,9.1c-0.6,0-1.2,0-1.8,0
				c0-3,0-6.1,0-9.1C243.6,259.7,244.2,259.7,244.8,259.7L244.8,259.7z M244.8,215.2c0,3,0,6.1,0,9.1c-0.6,0-1.2,0-1.8,0
				c0-3,0-6.1,0-9.1C243.6,215.2,244.2,215.2,244.8,215.2L244.8,215.2z M244.8,228c0,3,0,6.1,0,9.1c-0.6,0-1.2,0-1.8,0
				c0-3,0-6.1,0-9.1C243.6,228,244.2,228,244.8,228L244.8,228z M244.8,183.5c0,3,0,6.1,0,9.1c-0.6,0-1.2,0-1.8,0c0-3,0-6.1,0-9.1
				C243.6,183.5,244.2,183.5,244.8,183.5L244.8,183.5z M244.8,196.2c0,3,0,6.1,0,9.1c-0.6,0-1.2,0-1.8,0c0-3,0-6.1,0-9.1
				C243.6,196.2,244.2,196.2,244.8,196.2L244.8,196.2z M244.8,151.7c0,3,0,6.1,0,9.1c-0.6,0-1.2,0-1.8,0c0-3,0-6.1,0-9.1
				C243.6,151.7,244.2,151.7,244.8,151.7L244.8,151.7z M244.8,164.5c0,3,0,6.1,0,9.1c-0.6,0-1.2,0-1.8,0c0-3,0-6.1,0-9.1
				C243.6,164.5,244.2,164.5,244.8,164.5L244.8,164.5z M244.8,120c0,3,0,6.1,0,9.1c-0.6,0-1.2,0-1.8,0c0-3,0-6.1,0-9.1
				C243.6,120,244.2,120,244.8,120L244.8,120z M244.8,132.8c0,3,0,6.1,0,9.1c-0.6,0-1.2,0-1.8,0c0-3,0-6.1,0-9.1
				C243.6,132.8,244.2,132.8,244.8,132.8L244.8,132.8z M244.8,88.3c0,3,0,6.1,0,9.1c-0.6,0-1.2,0-1.8,0c0-3,0-6.1,0-9.1
				C243.6,88.3,244.2,88.3,244.8,88.3L244.8,88.3z M244.8,101c0,3,0,6.1,0,9.1c-0.6,0-1.2,0-1.8,0c0-3,0-6.1,0-9.1
				C243.6,101,244.2,101,244.8,101L244.8,101z M244.8,56.5c0,3,0,6.1,0,9.1c-0.6,0-1.2,0-1.8,0c0-3,0-6.1,0-9.1
				C243.6,56.5,244.2,56.5,244.8,56.5L244.8,56.5z M244.8,69.3c0,3,0,6.1,0,9.1c-0.6,0-1.2,0-1.8,0c0-3,0-6.1,0-9.1
				C243.6,69.3,244.2,69.3,244.8,69.3L244.8,69.3z M244.8,310.4c0,3,0,6.1,0,9.1c-0.6,0-1.2,0-1.8,0c0-3,0-6.1,0-9.1
				C243.6,310.4,244.2,310.4,244.8,310.4L244.8,310.4z M244.8,323.2c0,3,0,6.1,0,9.1c-0.6,0-1.2,0-1.8,0c0-3,0-6.1,0-9.1
				C243.6,323.1,244.2,323.1,244.8,323.2L244.8,323.2z M244.8,24.8c0,3,0,6.1,0,9.1c-0.6,0-1.2,0-1.8,0c0-3,0-6.1,0-9.1
				C243.6,24.8,244.2,24.8,244.8,24.8L244.8,24.8z M244.8,37.6c0,3,0,6.1,0,9.1c-0.6,0-1.2,0-1.8,0c0-3,0-6.1,0-9.1
				C243.6,37.6,244.2,37.6,244.8,37.6L244.8,37.6z"/>
			<path fill-rule="evenodd" clip-rule="evenodd" fill="#DCDBD9" d="M366.2,278.7c0,3,0,6.1,0,9.1c-0.6,0-1.2,0-1.8,0
				c0-3,0-6.1,0-9.1C365,278.7,365.6,278.7,366.2,278.7L366.2,278.7z M366.2,291.4c0,3,0,6.1,0,9.1c-0.6,0-1.2,0-1.8,0
				c0-3,0-6.1,0-9.1C365,291.4,365.6,291.4,366.2,291.4L366.2,291.4z M366.2,246.9c0,3,0,6.1,0,9.1c-0.6,0-1.2,0-1.8,0
				c0-3,0-6.1,0-9.1C365,246.9,365.6,246.9,366.2,246.9L366.2,246.9z M366.2,259.7c0,3,0,6.1,0,9.1c-0.6,0-1.2,0-1.8,0
				c0-3,0-6.1,0-9.1C365,259.7,365.6,259.7,366.2,259.7L366.2,259.7z M366.2,215.2c0,3,0,6.1,0,9.1c-0.6,0-1.2,0-1.8,0
				c0-3,0-6.1,0-9.1C365,215.2,365.6,215.2,366.2,215.2L366.2,215.2z M366.2,228c0,3,0,6.1,0,9.1c-0.6,0-1.2,0-1.8,0
				c0-3,0-6.1,0-9.1C365,228,365.6,228,366.2,228L366.2,228z M366.2,183.5c0,3,0,6.1,0,9.1c-0.6,0-1.2,0-1.8,0c0-3,0-6.1,0-9.1
				C365,183.5,365.6,183.5,366.2,183.5L366.2,183.5z M366.2,196.2c0,3,0,6.1,0,9.1c-0.6,0-1.2,0-1.8,0c0-3,0-6.1,0-9.1
				C365,196.2,365.6,196.2,366.2,196.2L366.2,196.2z M366.2,151.7c0,3,0,6.1,0,9.1c-0.6,0-1.2,0-1.8,0c0-3,0-6.1,0-9.1
				C365,151.7,365.6,151.7,366.2,151.7L366.2,151.7z M366.2,164.5c0,3,0,6.1,0,9.1c-0.6,0-1.2,0-1.8,0c0-3,0-6.1,0-9.1
				C365,164.5,365.6,164.5,366.2,164.5L366.2,164.5z M366.2,120c0,3,0,6.1,0,9.1c-0.6,0-1.2,0-1.8,0c0-3,0-6.1,0-9.1
				C365,120,365.6,120,366.2,120L366.2,120z M366.2,132.8c0,3,0,6.1,0,9.1c-0.6,0-1.2,0-1.8,0c0-3,0-6.1,0-9.1
				C365,132.8,365.6,132.8,366.2,132.8L366.2,132.8z M366.2,88.3c0,3,0,6.1,0,9.1c-0.6,0-1.2,0-1.8,0c0-3,0-6.1,0-9.1
				C365,88.3,365.6,88.3,366.2,88.3L366.2,88.3z M366.2,101c0,3,0,6.1,0,9.1c-0.6,0-1.2,0-1.8,0c0-3,0-6.1,0-9.1
				C365,101,365.6,101,366.2,101L366.2,101z M366.2,56.5c0,3,0,6.1,0,9.1c-0.6,0-1.2,0-1.8,0c0-3,0-6.1,0-9.1
				C365,56.5,365.6,56.5,366.2,56.5L366.2,56.5z M366.2,69.3c0,3,0,6.1,0,9.1c-0.6,0-1.2,0-1.8,0c0-3,0-6.1,0-9.1
				C365,69.3,365.6,69.3,366.2,69.3L366.2,69.3z M366.2,310.4c0,3,0,6.1,0,9.1c-0.6,0-1.2,0-1.8,0c0-3,0-6.1,0-9.1
				C365,310.4,365.6,310.4,366.2,310.4L366.2,310.4z M366.2,323.2c0,3,0,6.1,0,9.1c-0.6,0-1.2,0-1.8,0c0-3,0-6.1,0-9.1
				C365,323.1,365.6,323.1,366.2,323.2L366.2,323.2z M366.2,24.8c0,3,0,6.1,0,9.1c-0.6,0-1.2,0-1.8,0c0-3,0-6.1,0-9.1
				C365,24.8,365.6,24.8,366.2,24.8L366.2,24.8z M366.2,37.6c0,3,0,6.1,0,9.1c-0.6,0-1.2,0-1.8,0c0-3,0-6.1,0-9.1
				C365,37.6,365.6,37.6,366.2,37.6L366.2,37.6z"/>
			<path fill-rule="evenodd" clip-rule="evenodd" fill="#DCDBD9" d="M487.6,278.7c0,3,0,6.1,0,9.1c-0.6,0-1.2,0-1.8,0
				c0-3,0-6.1,0-9.1C486.4,278.7,487,278.7,487.6,278.7L487.6,278.7z M487.6,291.4c0,3,0,6.1,0,9.1c-0.6,0-1.2,0-1.8,0
				c0-3,0-6.1,0-9.1C486.4,291.4,487,291.4,487.6,291.4L487.6,291.4z M487.6,246.9c0,3,0,6.1,0,9.1c-0.6,0-1.2,0-1.8,0
				c0-3,0-6.1,0-9.1C486.4,246.9,487,246.9,487.6,246.9L487.6,246.9z M487.6,259.7c0,3,0,6.1,0,9.1c-0.6,0-1.2,0-1.8,0
				c0-3,0-6.1,0-9.1C486.4,259.7,487,259.7,487.6,259.7L487.6,259.7z M487.6,215.2c0,3,0,6.1,0,9.1c-0.6,0-1.2,0-1.8,0
				c0-3,0-6.1,0-9.1C486.4,215.2,487,215.2,487.6,215.2L487.6,215.2z M487.6,228c0,3,0,6.1,0,9.1c-0.6,0-1.2,0-1.8,0
				c0-3,0-6.1,0-9.1C486.4,228,487,228,487.6,228L487.6,228z M487.6,183.5c0,3,0,6.1,0,9.1c-0.6,0-1.2,0-1.8,0c0-3,0-6.1,0-9.1
				C486.4,183.5,487,183.5,487.6,183.5L487.6,183.5z M487.6,196.2c0,3,0,6.1,0,9.1c-0.6,0-1.2,0-1.8,0c0-3,0-6.1,0-9.1
				C486.4,196.2,487,196.2,487.6,196.2L487.6,196.2z M487.6,151.7c0,3,0,6.1,0,9.1c-0.6,0-1.2,0-1.8,0c0-3,0-6.1,0-9.1
				C486.4,151.7,487,151.7,487.6,151.7L487.6,151.7z M487.6,164.5c0,3,0,6.1,0,9.1c-0.6,0-1.2,0-1.8,0c0-3,0-6.1,0-9.1
				C486.4,164.5,487,164.5,487.6,164.5L487.6,164.5z M487.6,120c0,3,0,6.1,0,9.1c-0.6,0-1.2,0-1.8,0c0-3,0-6.1,0-9.1
				C486.4,120,487,120,487.6,120L487.6,120z M487.6,132.8c0,3,0,6.1,0,9.1c-0.6,0-1.2,0-1.8,0c0-3,0-6.1,0-9.1
				C486.4,132.8,487,132.8,487.6,132.8L487.6,132.8z M487.6,88.3c0,3,0,6.1,0,9.1c-0.6,0-1.2,0-1.8,0c0-3,0-6.1,0-9.1
				C486.4,88.3,487,88.3,487.6,88.3L487.6,88.3z M487.6,101c0,3,0,6.1,0,9.1c-0.6,0-1.2,0-1.8,0c0-3,0-6.1,0-9.1
				C486.4,101,487,101,487.6,101L487.6,101z M487.6,56.5c0,3,0,6.1,0,9.1c-0.6,0-1.2,0-1.8,0c0-3,0-6.1,0-9.1
				C486.4,56.5,487,56.5,487.6,56.5L487.6,56.5z M487.6,69.3c0,3,0,6.1,0,9.1c-0.6,0-1.2,0-1.8,0c0-3,0-6.1,0-9.1
				C486.4,69.3,487,69.3,487.6,69.3L487.6,69.3z M487.6,310.4c0,3,0,6.1,0,9.1c-0.6,0-1.2,0-1.8,0c0-3,0-6.1,0-9.1
				C486.4,310.4,487,310.4,487.6,310.4L487.6,310.4z M487.6,323.2c0,3,0,6.1,0,9.1c-0.6,0-1.2,0-1.8,0c0-3,0-6.1,0-9.1
				C486.4,323.1,487,323.1,487.6,323.2L487.6,323.2z M487.6,24.8c0,3,0,6.1,0,9.1c-0.6,0-1.2,0-1.8,0c0-3,0-6.1,0-9.1
				C486.4,24.8,487,24.8,487.6,24.8L487.6,24.8z M487.6,37.6c0,3,0,6.1,0,9.1c-0.6,0-1.2,0-1.8,0c0-3,0-6.1,0-9.1
				C486.4,37.6,487,37.6,487.6,37.6L487.6,37.6z"/>
			<path fill-rule="evenodd" clip-rule="evenodd" fill="#DCDBD9" d="M609,278.7c0,3,0,6.1,0,9.1c-0.6,0-1.2,0-1.8,0c0-3,0-6.1,0-9.1
				C607.8,278.7,608.4,278.7,609,278.7L609,278.7z M609,291.4c0,3,0,6.1,0,9.1c-0.6,0-1.2,0-1.8,0c0-3,0-6.1,0-9.1
				C607.8,291.4,608.4,291.4,609,291.4L609,291.4z M609,246.9c0,3,0,6.1,0,9.1c-0.6,0-1.2,0-1.8,0c0-3,0-6.1,0-9.1
				C607.8,246.9,608.4,246.9,609,246.9L609,246.9z M609,259.7c0,3,0,6.1,0,9.1c-0.6,0-1.2,0-1.8,0c0-3,0-6.1,0-9.1
				C607.8,259.7,608.4,259.7,609,259.7L609,259.7z M609,215.2c0,3,0,6.1,0,9.1c-0.6,0-1.2,0-1.8,0c0-3,0-6.1,0-9.1
				C607.8,215.2,608.4,215.2,609,215.2L609,215.2z M609,228c0,3,0,6.1,0,9.1c-0.6,0-1.2,0-1.8,0c0-3,0-6.1,0-9.1
				C607.8,228,608.4,228,609,228L609,228z M609,183.5c0,3,0,6.1,0,9.1c-0.6,0-1.2,0-1.8,0c0-3,0-6.1,0-9.1
				C607.8,183.5,608.4,183.5,609,183.5L609,183.5z M609,196.2c0,3,0,6.1,0,9.1c-0.6,0-1.2,0-1.8,0c0-3,0-6.1,0-9.1
				C607.8,196.2,608.4,196.2,609,196.2L609,196.2z M609,151.7c0,3,0,6.1,0,9.1c-0.6,0-1.2,0-1.8,0c0-3,0-6.1,0-9.1
				C607.8,151.7,608.4,151.7,609,151.7L609,151.7z M609,164.5c0,3,0,6.1,0,9.1c-0.6,0-1.2,0-1.8,0c0-3,0-6.1,0-9.1
				C607.8,164.5,608.4,164.5,609,164.5L609,164.5z M609,120c0,3,0,6.1,0,9.1c-0.6,0-1.2,0-1.8,0c0-3,0-6.1,0-9.1
				C607.8,120,608.4,120,609,120L609,120z M609,132.8c0,3,0,6.1,0,9.1c-0.6,0-1.2,0-1.8,0c0-3,0-6.1,0-9.1
				C607.8,132.8,608.4,132.8,609,132.8L609,132.8z M609,88.3c0,3,0,6.1,0,9.1c-0.6,0-1.2,0-1.8,0c0-3,0-6.1,0-9.1
				C607.8,88.3,608.4,88.3,609,88.3L609,88.3z M609,101c0,3,0,6.1,0,9.1c-0.6,0-1.2,0-1.8,0c0-3,0-6.1,0-9.1
				C607.8,101,608.4,101,609,101L609,101z M609,56.5c0,3,0,6.1,0,9.1c-0.6,0-1.2,0-1.8,0c0-3,0-6.1,0-9.1
				C607.8,56.5,608.4,56.5,609,56.5L609,56.5z M609,69.3c0,3,0,6.1,0,9.1c-0.6,0-1.2,0-1.8,0c0-3,0-6.1,0-9.1
				C607.8,69.3,608.4,69.3,609,69.3L609,69.3z M609,310.4c0,3,0,6.1,0,9.1c-0.6,0-1.2,0-1.8,0c0-3,0-6.1,0-9.1
				C607.8,310.4,608.4,310.4,609,310.4L609,310.4z M609,323.2c0,3,0,6.1,0,9.1c-0.6,0-1.2,0-1.8,0c0-3,0-6.1,0-9.1
				C607.8,323.1,608.4,323.1,609,323.2L609,323.2z M609,24.8c0,3,0,6.1,0,9.1c-0.6,0-1.2,0-1.8,0c0-3,0-6.1,0-9.1
				C607.8,24.8,608.4,24.8,609,24.8L609,24.8z M609,37.6c0,3,0,6.1,0,9.1c-0.6,0-1.2,0-1.8,0c0-3,0-6.1,0-9.1
				C607.8,37.6,608.4,37.6,609,37.6L609,37.6z"/>
			<path fill-rule="evenodd" clip-rule="evenodd" fill="#009347" d="M330,130.4c23.5,0,47,0,70.5,0c0,69.2,0,138.5,0,207.7
				c-23.5,0-47,0-70.5,0C330,268.9,330,199.6,330,130.4L330,130.4z"/>
			<polyline opacity="0.2" fill-rule="evenodd" clip-rule="evenodd" fill="#478D47" points="349,130.7 381.5,130.7 381.5,238.1 
				395,238.1 365.2,268 335.5,238.1 349,238.1 			"/>
			<path fill-rule="evenodd" clip-rule="evenodd" fill="#51A332" d="M451.5,42.9c23.5,0,47,0,70.5,0c0,98.4,0,196.8,0,295.2
				c-23.5,0-47,0-70.5,0C451.5,239.7,451.5,141.3,451.5,42.9L451.5,42.9z"/>
			<polygon opacity="0.2" fill-rule="evenodd" clip-rule="evenodd" fill="#9BBE48" points="503,337.6 470.5,337.6 470.5,133.7 
				457,133.7 486.7,103.8 516.4,133.7 503,133.7 503,231.6 			"/>
		</g>
		<g>
			<g>
				<path fill="#009347" d="M346.2,215.6c-23.4-31-61.7-45.6-99.7-46.4c-45.8-1-89.6,19.1-128.1,42.1c-2.8,1.7-0.3,6,2.5,4.3
					c36.8-22,77.5-40.6,121.1-41.5c37.3-0.7,76.8,13.5,99.8,44C343.8,220.7,348.2,218.2,346.2,215.6L346.2,215.6z"/>
			</g>
		</g>
		<g>
			
				<polyline fill-rule="evenodd" clip-rule="evenodd" fill="none" stroke="#009347" stroke-width="5.161" stroke-linecap="round" stroke-linejoin="round" stroke-miterlimit="10" points="
				151.2,223.8 116.2,218 122.1,182.9 			"/>
		</g>
		<g>
			<path fill="#868589" d="M33.7,250l-1.6,1.5c-1.1-1.1-2.3-1.9-3.7-2.5c-1.3-0.6-2.6-0.9-3.9-0.9c-1.6,0-3.1,0.4-4.5,1.2
				c-1.4,0.8-2.5,1.8-3.3,3.2c-0.8,1.3-1.2,2.7-1.2,4.2c0,1.5,0.4,3,1.2,4.3c0.8,1.4,1.9,2.4,3.4,3.2c1.4,0.8,3,1.2,4.7,1.2
				c2.1,0,3.8-0.6,5.2-1.8c1.4-1.2,2.3-2.7,2.5-4.5h-6.4V257h8.7c0,3.1-0.9,5.6-2.8,7.4c-1.8,1.8-4.3,2.7-7.3,2.7
				c-3.7,0-6.7-1.3-8.8-3.8c-1.7-2-2.5-4.2-2.5-6.8c0-1.9,0.5-3.7,1.4-5.3c1-1.6,2.3-2.9,3.9-3.8c1.7-0.9,3.6-1.4,5.7-1.4
				c1.7,0,3.3,0.3,4.8,0.9C30.8,247.6,32.3,248.6,33.7,250z"/>
			<path fill="#868589" d="M37.5,251.8h2v2.2c0.6-0.9,1.2-1.5,1.8-1.9c0.6-0.4,1.3-0.6,2-0.6c0.5,0,1.1,0.2,1.7,0.5l-1,1.6
				c-0.4-0.2-0.7-0.3-1-0.3c-0.6,0-1.3,0.3-1.8,0.8c-0.6,0.5-1,1.3-1.4,2.4c-0.2,0.8-0.4,2.6-0.4,5.1v5h-2V251.8z"/>
			<path fill="#868589" d="M61.2,251.8v14.9h-1.9v-2.6c-0.8,1-1.7,1.7-2.7,2.2c-1,0.5-2.1,0.7-3.3,0.7c-2.1,0-3.9-0.8-5.4-2.3
				c-1.5-1.5-2.2-3.4-2.2-5.6c0-2.1,0.8-4,2.3-5.5c1.5-1.5,3.3-2.3,5.4-2.3c1.2,0,2.3,0.3,3.3,0.8c1,0.5,1.9,1.3,2.6,2.3v-2.7H61.2z
				 M53.5,253.3c-1.1,0-2,0.3-2.9,0.8c-0.9,0.5-1.6,1.3-2.2,2.2c-0.5,0.9-0.8,1.9-0.8,3c0,1,0.3,2,0.8,3c0.5,1,1.3,1.7,2.2,2.2
				c0.9,0.5,1.9,0.8,2.9,0.8c1,0,2-0.3,3-0.8c0.9-0.5,1.7-1.2,2.2-2.1c0.5-0.9,0.8-1.9,0.8-3c0-1.7-0.6-3.2-1.7-4.3
				C56.6,253.9,55.2,253.3,53.5,253.3z"/>
			<path fill="#868589" d="M65.3,251.8h1.9v2.7c0.8-1,1.6-1.8,2.6-2.3c1-0.5,2.1-0.8,3.3-0.8c2.1,0,3.9,0.8,5.4,2.3
				c1.5,1.5,2.3,3.4,2.3,5.5c0,2.2-0.7,4-2.2,5.6c-1.5,1.5-3.3,2.3-5.4,2.3c-1.2,0-2.3-0.2-3.3-0.7c-1-0.5-1.9-1.2-2.7-2.2v8h-1.9
				V251.8z M72.9,253.3c-1.7,0-3,0.6-4.2,1.7c-1.1,1.2-1.7,2.6-1.7,4.3c0,1.1,0.3,2.1,0.8,3c0.5,0.9,1.2,1.6,2.2,2.1
				c0.9,0.5,1.9,0.8,3,0.8c1,0,2-0.3,2.9-0.8c0.9-0.5,1.6-1.3,2.2-2.2c0.5-1,0.8-2,0.8-3c0-1.1-0.3-2.1-0.8-3
				c-0.5-0.9-1.2-1.7-2.1-2.2C75,253.5,74,253.3,72.9,253.3z"/>
			<path fill="#868589" d="M84.1,246.1H86v8.4c0.8-1,1.6-1.8,2.6-2.3c0.9-0.5,1.9-0.8,3-0.8c1.1,0,2.1,0.3,3,0.8
				c0.9,0.6,1.5,1.3,1.9,2.3c0.4,1,0.6,2.4,0.6,4.5v7.7h-1.9v-7.1c0-1.7-0.1-2.9-0.2-3.4c-0.2-1-0.7-1.7-1.3-2.2
				c-0.6-0.5-1.4-0.7-2.5-0.7c-1.2,0-2.2,0.4-3.1,1.1c-0.9,0.8-1.5,1.7-1.8,2.8c-0.2,0.7-0.3,2.1-0.3,4v5.5h-1.9V246.1z"/>
			<path fill="#868589" d="M101.6,245.7c0.4,0,0.8,0.2,1.1,0.5c0.3,0.3,0.5,0.7,0.5,1.1c0,0.4-0.2,0.8-0.5,1.1
				c-0.3,0.3-0.7,0.5-1.1,0.5c-0.4,0-0.8-0.2-1.1-0.5c-0.3-0.3-0.5-0.7-0.5-1.1c0-0.4,0.2-0.8,0.5-1.1
				C100.8,245.8,101.1,245.7,101.6,245.7z M100.6,251.8h1.9v14.9h-1.9V251.8z"/>
			<path fill="#868589" d="M120.7,254.9l-1.5,0.9c-1.3-1.7-3.1-2.6-5.4-2.6c-1.8,0-3.3,0.6-4.5,1.7c-1.2,1.2-1.8,2.6-1.8,4.2
				c0,1.1,0.3,2.1,0.8,3.1c0.6,1,1.3,1.7,2.3,2.2c1,0.5,2,0.8,3.2,0.8c2.2,0,4-0.9,5.4-2.6l1.5,1c-0.7,1.1-1.7,1.9-2.9,2.5
				c-1.2,0.6-2.6,0.9-4.1,0.9c-2.4,0-4.3-0.7-5.9-2.2c-1.5-1.5-2.3-3.3-2.3-5.5c0-1.4,0.4-2.8,1.1-4c0.7-1.2,1.7-2.2,3-2.9
				c1.3-0.7,2.7-1,4.3-1c1,0,1.9,0.2,2.9,0.5c0.9,0.3,1.7,0.7,2.3,1.2C119.7,253.5,120.2,254.2,120.7,254.9z"/>
			<path fill="#868589" d="M131.9,246.6h4c2.3,0,3.8,0.1,4.6,0.3c1.1,0.3,2.1,0.9,2.8,1.7c0.7,0.9,1.1,2,1.1,3.3
				c0,1.3-0.4,2.4-1.1,3.3c-0.7,0.9-1.7,1.5-2.9,1.8c-0.9,0.2-2.6,0.3-5.1,0.3h-1.4v9.4h-2V246.6z M133.9,248.5v6.8l3.4,0
				c1.4,0,2.4-0.1,3-0.4c0.6-0.3,1.1-0.7,1.5-1.2c0.4-0.6,0.5-1.2,0.5-1.9c0-0.7-0.2-1.3-0.5-1.8c-0.4-0.6-0.8-1-1.4-1.2
				c-0.6-0.2-1.6-0.4-2.9-0.4H133.9z"/>
			<path fill="#868589" d="M162.8,251.8v14.9h-1.9v-2.6c-0.8,1-1.7,1.7-2.7,2.2c-1,0.5-2.1,0.7-3.3,0.7c-2.1,0-3.9-0.8-5.4-2.3
				c-1.5-1.5-2.2-3.4-2.2-5.6c0-2.1,0.8-4,2.3-5.5c1.5-1.5,3.3-2.3,5.4-2.3c1.2,0,2.3,0.3,3.3,0.8c1,0.5,1.9,1.3,2.6,2.3v-2.7H162.8
				z M155.1,253.3c-1.1,0-2,0.3-2.9,0.8c-0.9,0.5-1.6,1.3-2.2,2.2c-0.5,0.9-0.8,1.9-0.8,3c0,1,0.3,2,0.8,3c0.5,1,1.3,1.7,2.2,2.2
				c0.9,0.5,1.9,0.8,2.9,0.8c1,0,2-0.3,3-0.8c0.9-0.5,1.7-1.2,2.2-2.1c0.5-0.9,0.8-1.9,0.8-3c0-1.7-0.6-3.2-1.7-4.3
				C158.2,253.9,156.8,253.3,155.1,253.3z"/>
			<path fill="#868589" d="M166.8,251.8h1.9v2.7c0.8-1,1.6-1.8,2.6-2.3c1-0.5,2.1-0.8,3.3-0.8c2.1,0,3.9,0.8,5.4,2.3
				c1.5,1.5,2.3,3.4,2.3,5.5c0,2.2-0.7,4-2.2,5.6c-1.5,1.5-3.3,2.3-5.4,2.3c-1.2,0-2.3-0.2-3.3-0.7c-1-0.5-1.9-1.2-2.7-2.2v8h-1.9
				V251.8z M174.5,253.3c-1.7,0-3,0.6-4.2,1.7c-1.1,1.2-1.7,2.6-1.7,4.3c0,1.1,0.3,2.1,0.8,3c0.5,0.9,1.2,1.6,2.2,2.1
				c0.9,0.5,1.9,0.8,3,0.8c1,0,2-0.3,2.9-0.8c0.9-0.5,1.6-1.3,2.2-2.2c0.5-1,0.8-2,0.8-3c0-1.1-0.3-2.1-0.8-3
				c-0.5-0.9-1.2-1.7-2.1-2.2C176.5,253.5,175.6,253.3,174.5,253.3z"/>
			<path fill="#868589" d="M198.2,261.8l1.6,0.8c-0.5,1-1.1,1.9-1.8,2.5c-0.7,0.6-1.5,1.1-2.3,1.5c-0.9,0.3-1.8,0.5-2.9,0.5
				c-2.4,0-4.3-0.8-5.7-2.4c-1.4-1.6-2.1-3.4-2.1-5.4c0-1.9,0.6-3.6,1.7-5c1.5-1.9,3.4-2.8,5.9-2.8c2.5,0,4.6,1,6.1,2.9
				c1.1,1.4,1.6,3.1,1.6,5.1h-13.4c0,1.7,0.6,3.1,1.7,4.2c1.1,1.1,2.4,1.7,4,1.7c0.8,0,1.5-0.1,2.2-0.4c0.7-0.3,1.3-0.6,1.8-1
				C197.1,263.4,197.6,262.7,198.2,261.8z M198.2,257.7c-0.3-1-0.6-1.8-1.1-2.4c-0.5-0.6-1.1-1.1-1.9-1.5c-0.8-0.4-1.6-0.6-2.5-0.6
				c-1.5,0-2.7,0.5-3.8,1.4c-0.8,0.7-1.3,1.7-1.7,3.1H198.2z"/>
			<path fill="#868589" d="M202.9,251.8h2v2.2c0.6-0.9,1.2-1.5,1.8-1.9c0.6-0.4,1.3-0.6,2-0.6c0.5,0,1.1,0.2,1.7,0.5l-1,1.6
				c-0.4-0.2-0.7-0.3-1-0.3c-0.6,0-1.3,0.3-1.8,0.8c-0.6,0.5-1,1.3-1.4,2.4c-0.2,0.8-0.4,2.6-0.4,5.1v5h-2V251.8z"/>
			<path fill="#868589" d="M68.6,290.9l1.7-1c1.2,2.2,2.6,3.3,4.2,3.3c0.7,0,1.3-0.2,1.9-0.5c0.6-0.3,1-0.7,1.4-1.3
				c0.3-0.5,0.5-1.1,0.5-1.7c0-0.7-0.2-1.3-0.7-2c-0.6-0.9-1.8-2-3.4-3.2c-1.7-1.3-2.7-2.2-3.1-2.7c-0.7-0.9-1.1-2-1.1-3.1
				c0-0.9,0.2-1.7,0.6-2.4c0.4-0.7,1-1.3,1.8-1.7c0.8-0.4,1.6-0.6,2.5-0.6c0.9,0,1.8,0.2,2.7,0.7c0.8,0.5,1.7,1.3,2.6,2.6l-1.6,1.2
				c-0.8-1-1.4-1.7-1.9-2c-0.5-0.3-1.1-0.5-1.7-0.5c-0.8,0-1.5,0.2-2,0.7c-0.5,0.5-0.8,1.1-0.8,1.8c0,0.4,0.1,0.9,0.3,1.3
				c0.2,0.4,0.5,0.9,1,1.3c0.3,0.3,1.1,0.9,2.6,2c1.7,1.3,2.9,2.4,3.6,3.4c0.6,1,1,2,1,3c0,1.5-0.6,2.7-1.7,3.8
				c-1.1,1.1-2.5,1.6-4,1.6c-1.2,0-2.3-0.3-3.3-1C70.4,293.6,69.5,292.5,68.6,290.9z"/>
			<path fill="#868589" d="M96.6,289.8l1.6,0.8c-0.5,1-1.1,1.9-1.8,2.5c-0.7,0.6-1.5,1.1-2.3,1.5c-0.9,0.3-1.8,0.5-2.9,0.5
				c-2.4,0-4.3-0.8-5.7-2.4c-1.4-1.6-2.1-3.4-2.1-5.4c0-1.9,0.6-3.6,1.7-5c1.5-1.9,3.4-2.8,5.9-2.8c2.5,0,4.6,1,6.1,2.9
				c1.1,1.4,1.6,3.1,1.6,5.1H85.3c0,1.7,0.6,3.1,1.7,4.2c1.1,1.1,2.4,1.7,4,1.7c0.8,0,1.5-0.1,2.2-0.4c0.7-0.3,1.3-0.6,1.8-1
				C95.5,291.4,96,290.7,96.6,289.8z M96.6,285.7c-0.3-1-0.6-1.8-1.1-2.4c-0.5-0.6-1.1-1.1-1.9-1.5c-0.8-0.4-1.6-0.6-2.5-0.6
				c-1.5,0-2.7,0.5-3.8,1.4c-0.8,0.7-1.3,1.7-1.7,3.1H96.6z"/>
			<path fill="#868589" d="M116.5,282.9l-1.5,0.9c-1.3-1.7-3.1-2.6-5.4-2.6c-1.8,0-3.3,0.6-4.5,1.7c-1.2,1.2-1.8,2.6-1.8,4.2
				c0,1.1,0.3,2.1,0.8,3.1c0.6,1,1.3,1.7,2.3,2.2c1,0.5,2,0.8,3.2,0.8c2.2,0,4-0.9,5.4-2.6l1.5,1c-0.7,1.1-1.7,1.9-2.9,2.5
				c-1.2,0.6-2.6,0.9-4.1,0.9c-2.4,0-4.3-0.7-5.9-2.2c-1.5-1.5-2.3-3.3-2.3-5.5c0-1.4,0.4-2.8,1.1-4c0.7-1.2,1.7-2.2,3-2.9
				c1.3-0.7,2.7-1,4.3-1c1,0,1.9,0.2,2.9,0.5c0.9,0.3,1.7,0.7,2.3,1.2C115.5,281.5,116,282.2,116.5,282.9z"/>
			<path fill="#868589" d="M121.6,274.3h1.9v5.5h3v1.7h-3v13.2h-1.9v-13.2H119v-1.7h2.6V274.3z"/>
			<path fill="#868589" d="M136.2,279.4c2.3,0,4.2,0.8,5.7,2.5c1.4,1.5,2.1,3.3,2.1,5.4c0,2.1-0.7,3.9-2.2,5.4
				c-1.4,1.6-3.3,2.3-5.6,2.3c-2.3,0-4.1-0.8-5.6-2.3c-1.4-1.6-2.2-3.4-2.2-5.4c0-2.1,0.7-3.8,2.1-5.4
				C132,280.3,133.9,279.4,136.2,279.4z M136.2,281.3c-1.6,0-3,0.6-4.1,1.8c-1.1,1.2-1.7,2.6-1.7,4.3c0,1.1,0.3,2.1,0.8,3
				c0.5,0.9,1.2,1.6,2.1,2.2c0.9,0.5,1.9,0.8,2.9,0.8c1.1,0,2-0.3,2.9-0.8c0.9-0.5,1.6-1.2,2.1-2.2c0.5-0.9,0.8-1.9,0.8-3
				c0-1.7-0.6-3.1-1.7-4.3C139.1,281.9,137.8,281.3,136.2,281.3z"/>
			<path fill="#868589" d="M146.5,279.8h2v2.2c0.6-0.9,1.2-1.5,1.8-1.9c0.6-0.4,1.3-0.6,2-0.6c0.5,0,1.1,0.2,1.7,0.5l-1,1.6
				c-0.4-0.2-0.7-0.3-1-0.3c-0.6,0-1.3,0.3-1.8,0.8c-0.6,0.5-1,1.3-1.4,2.4c-0.2,0.8-0.4,2.6-0.4,5.1v5h-2V279.8z"/>
		</g>
		<g>
			<path fill="#868589" d="M637.7,110.6h4c2.3,0,3.8,0.1,4.6,0.3c1.1,0.3,2.1,0.9,2.8,1.7c0.7,0.9,1.1,2,1.1,3.3
				c0,1.3-0.4,2.4-1.1,3.3c-0.7,0.9-1.7,1.5-2.9,1.8c-0.9,0.2-2.6,0.3-5.1,0.3h-1.4v9.4h-2V110.6z M639.7,112.5v6.8l3.4,0
				c1.4,0,2.4-0.1,3-0.4c0.6-0.3,1.1-0.7,1.5-1.2c0.4-0.6,0.5-1.2,0.5-1.9c0-0.7-0.2-1.3-0.5-1.8c-0.4-0.6-0.8-1-1.4-1.2
				c-0.6-0.2-1.6-0.4-2.9-0.4H639.7z"/>
			<path fill="#868589" d="M668.5,115.8v14.9h-1.9v-2.6c-0.8,1-1.7,1.7-2.7,2.2c-1,0.5-2.1,0.7-3.3,0.7c-2.1,0-3.9-0.8-5.4-2.3
				c-1.5-1.5-2.2-3.4-2.2-5.6c0-2.1,0.8-4,2.3-5.5c1.5-1.5,3.3-2.3,5.4-2.3c1.2,0,2.3,0.3,3.3,0.8c1,0.5,1.9,1.3,2.6,2.3v-2.7H668.5
				z M660.8,117.3c-1.1,0-2,0.3-2.9,0.8c-0.9,0.5-1.6,1.3-2.2,2.2c-0.5,0.9-0.8,1.9-0.8,3c0,1,0.3,2,0.8,3c0.5,1,1.3,1.7,2.2,2.2
				c0.9,0.5,1.9,0.8,2.9,0.8c1,0,2-0.3,3-0.8c0.9-0.5,1.7-1.2,2.2-2.1c0.5-0.9,0.8-1.9,0.8-3c0-1.7-0.6-3.2-1.7-4.3
				C663.9,117.9,662.5,117.3,660.8,117.3z"/>
			<path fill="#868589" d="M687,118.9l-1.5,0.9c-1.3-1.7-3.1-2.6-5.4-2.6c-1.8,0-3.3,0.6-4.5,1.7c-1.2,1.2-1.8,2.6-1.8,4.2
				c0,1.1,0.3,2.1,0.8,3.1c0.6,1,1.3,1.7,2.3,2.2c1,0.5,2,0.8,3.2,0.8c2.2,0,4-0.9,5.4-2.6l1.5,1c-0.7,1.1-1.7,1.9-2.9,2.5
				c-1.2,0.6-2.6,0.9-4.1,0.9c-2.4,0-4.3-0.7-5.9-2.2c-1.5-1.5-2.3-3.3-2.3-5.5c0-1.4,0.4-2.8,1.1-4c0.7-1.2,1.7-2.2,3-2.9
				c1.3-0.7,2.7-1,4.3-1c1,0,1.9,0.2,2.9,0.5c0.9,0.3,1.7,0.7,2.3,1.2C686,117.5,686.5,118.2,687,118.9z"/>
			<path fill="#868589" d="M690.4,110.1h1.9v11.7l6.9-6h2.8l-8.2,7.1l8.7,7.8h-2.7l-7.5-6.7v6.7h-1.9V110.1z"/>
			<path fill="#868589" d="M719,115.8v14.9h-1.9v-2.6c-0.8,1-1.7,1.7-2.7,2.2c-1,0.5-2.1,0.7-3.3,0.7c-2.1,0-3.9-0.8-5.4-2.3
				c-1.5-1.5-2.2-3.4-2.2-5.6c0-2.1,0.8-4,2.3-5.5c1.5-1.5,3.3-2.3,5.4-2.3c1.2,0,2.3,0.3,3.3,0.8c1,0.5,1.9,1.3,2.6,2.3v-2.7H719z
				 M711.4,117.3c-1.1,0-2,0.3-2.9,0.8c-0.9,0.5-1.6,1.3-2.2,2.2c-0.5,0.9-0.8,1.9-0.8,3c0,1,0.3,2,0.8,3c0.5,1,1.3,1.7,2.2,2.2
				c0.9,0.5,1.9,0.8,2.9,0.8c1,0,2-0.3,3-0.8c0.9-0.5,1.7-1.2,2.2-2.1c0.5-0.9,0.8-1.9,0.8-3c0-1.7-0.6-3.2-1.7-4.3
				C714.4,117.9,713,117.3,711.4,117.3z"/>
			<path fill="#868589" d="M735.9,115.8h1.9v11.9c0,2.1-0.2,3.6-0.5,4.6c-0.5,1.4-1.4,2.4-2.6,3.2c-1.2,0.7-2.7,1.1-4.5,1.1
				c-1.3,0-2.4-0.2-3.4-0.5c-1-0.4-1.8-0.8-2.5-1.5c-0.6-0.6-1.2-1.5-1.8-2.7h2.1c0.6,1,1.3,1.7,2.2,2.2c0.9,0.5,2,0.7,3.3,0.7
				c1.3,0,2.4-0.2,3.3-0.7c0.9-0.5,1.5-1.1,1.9-1.8c0.4-0.7,0.6-1.9,0.6-3.6v-0.8c-0.7,0.9-1.6,1.6-2.6,2.1c-1,0.5-2.1,0.7-3.3,0.7
				c-1.4,0-2.7-0.3-3.9-1c-1.2-0.7-2.1-1.6-2.8-2.7c-0.7-1.1-1-2.4-1-3.8c0-1.4,0.3-2.7,1-3.8c0.7-1.2,1.6-2.1,2.8-2.8
				c1.2-0.7,2.5-1,3.8-1c1.1,0,2.2,0.2,3.1,0.7c1,0.5,1.9,1.2,2.8,2.3V115.8z M730.3,117.3c-1.1,0-2.1,0.3-3,0.8
				c-0.9,0.5-1.7,1.2-2.2,2.2c-0.5,0.9-0.8,1.9-0.8,3c0,1.6,0.5,3,1.6,4s2.5,1.6,4.3,1.6c1.8,0,3.2-0.5,4.2-1.6
				c1.1-1.1,1.6-2.4,1.6-4.2c0-1.1-0.2-2.1-0.7-3c-0.5-0.9-1.2-1.6-2.1-2.1C732.3,117.5,731.3,117.3,730.3,117.3z"/>
			<path fill="#868589" d="M742.3,109.7c0.4,0,0.8,0.2,1.1,0.5c0.3,0.3,0.5,0.7,0.5,1.1c0,0.4-0.2,0.8-0.5,1.1
				c-0.3,0.3-0.7,0.5-1.1,0.5c-0.4,0-0.8-0.2-1.1-0.5c-0.3-0.3-0.5-0.7-0.5-1.1c0-0.4,0.2-0.8,0.5-1.1
				C741.5,109.8,741.9,109.7,742.3,109.7z M741.4,115.8h1.9v14.9h-1.9V115.8z"/>
			<path fill="#868589" d="M747,115.8h1.9v2.7c0.8-1,1.6-1.8,2.5-2.3c0.9-0.5,1.9-0.8,3-0.8c1.1,0,2.1,0.3,3,0.8
				c0.9,0.6,1.5,1.3,1.9,2.3c0.4,1,0.6,2.4,0.6,4.5v7.7h-1.9v-7.1c0-1.7-0.1-2.9-0.2-3.4c-0.2-1-0.6-1.7-1.3-2.2
				c-0.6-0.5-1.4-0.7-2.5-0.7c-1.2,0-2.2,0.4-3.1,1.1c-0.9,0.8-1.5,1.7-1.8,2.8c-0.2,0.7-0.3,2.1-0.3,4v5.5H747V115.8z"/>
			<path fill="#868589" d="M776.7,115.8h1.9v11.9c0,2.1-0.2,3.6-0.5,4.6c-0.5,1.4-1.4,2.4-2.6,3.2c-1.2,0.7-2.7,1.1-4.5,1.1
				c-1.3,0-2.4-0.2-3.4-0.5c-1-0.4-1.8-0.8-2.5-1.5c-0.6-0.6-1.2-1.5-1.8-2.7h2.1c0.6,1,1.3,1.7,2.2,2.2c0.9,0.5,2,0.7,3.3,0.7
				c1.3,0,2.4-0.2,3.3-0.7c0.9-0.5,1.5-1.1,1.9-1.8c0.4-0.7,0.6-1.9,0.6-3.6v-0.8c-0.7,0.9-1.6,1.6-2.6,2.1c-1,0.5-2.1,0.7-3.3,0.7
				c-1.4,0-2.7-0.3-3.9-1c-1.2-0.7-2.1-1.6-2.8-2.7c-0.7-1.1-1-2.4-1-3.8c0-1.4,0.3-2.7,1-3.8c0.7-1.2,1.6-2.1,2.8-2.8
				c1.2-0.7,2.5-1,3.8-1c1.1,0,2.2,0.2,3.1,0.7c1,0.5,1.9,1.2,2.8,2.3V115.8z M771,117.3c-1.1,0-2.1,0.3-3,0.8
				c-0.9,0.5-1.7,1.2-2.2,2.2c-0.5,0.9-0.8,1.9-0.8,3c0,1.6,0.5,3,1.6,4c1.1,1.1,2.5,1.6,4.3,1.6c1.8,0,3.2-0.5,4.2-1.6
				c1.1-1.1,1.6-2.4,1.6-4.2c0-1.1-0.2-2.1-0.7-3c-0.5-0.9-1.2-1.6-2.1-2.1C773,117.5,772.1,117.3,771,117.3z"/>
			<path fill="#868589" d="M665.6,154.9l1.7-1c1.2,2.2,2.6,3.3,4.2,3.3c0.7,0,1.3-0.2,1.9-0.5c0.6-0.3,1-0.7,1.4-1.3
				c0.3-0.5,0.5-1.1,0.5-1.7c0-0.7-0.2-1.3-0.7-2c-0.6-0.9-1.8-2-3.4-3.2c-1.7-1.3-2.7-2.2-3.1-2.7c-0.7-0.9-1.1-2-1.1-3.1
				c0-0.9,0.2-1.7,0.6-2.4c0.4-0.7,1-1.3,1.8-1.7c0.8-0.4,1.6-0.6,2.5-0.6c0.9,0,1.8,0.2,2.7,0.7c0.8,0.5,1.7,1.3,2.6,2.6l-1.6,1.2
				c-0.8-1-1.4-1.7-1.9-2c-0.5-0.3-1.1-0.5-1.7-0.5c-0.8,0-1.5,0.2-2,0.7c-0.5,0.5-0.8,1.1-0.8,1.8c0,0.4,0.1,0.9,0.3,1.3
				c0.2,0.4,0.5,0.9,1,1.3c0.3,0.3,1.1,0.9,2.6,2c1.7,1.3,2.9,2.4,3.6,3.4c0.6,1,1,2,1,3c0,1.5-0.6,2.7-1.7,3.8
				c-1.1,1.1-2.5,1.6-4,1.6c-1.2,0-2.3-0.3-3.3-1C667.4,157.6,666.5,156.5,665.6,154.9z"/>
			<path fill="#868589" d="M693.6,153.8l1.6,0.8c-0.5,1-1.1,1.9-1.8,2.5c-0.7,0.6-1.5,1.1-2.3,1.5c-0.9,0.3-1.8,0.5-2.9,0.5
				c-2.4,0-4.3-0.8-5.7-2.4c-1.4-1.6-2.1-3.4-2.1-5.4c0-1.9,0.6-3.6,1.7-5c1.5-1.9,3.4-2.8,5.9-2.8c2.5,0,4.6,1,6.1,2.9
				c1.1,1.4,1.6,3.1,1.6,5.1h-13.4c0,1.7,0.6,3.1,1.7,4.2c1.1,1.1,2.4,1.7,4,1.7c0.8,0,1.5-0.1,2.2-0.4c0.7-0.3,1.3-0.6,1.8-1
				C692.5,155.4,693,154.7,693.6,153.8z M693.6,149.7c-0.3-1-0.6-1.8-1.1-2.4c-0.5-0.6-1.1-1.1-1.9-1.5c-0.8-0.4-1.6-0.6-2.5-0.6
				c-1.5,0-2.7,0.5-3.8,1.4c-0.8,0.7-1.3,1.7-1.7,3.1H693.6z"/>
			<path fill="#868589" d="M713.5,146.9l-1.5,0.9c-1.3-1.7-3.1-2.6-5.4-2.6c-1.8,0-3.3,0.6-4.5,1.7c-1.2,1.2-1.8,2.6-1.8,4.2
				c0,1.1,0.3,2.1,0.8,3.1c0.6,1,1.3,1.7,2.3,2.2c1,0.5,2,0.8,3.2,0.8c2.2,0,4-0.9,5.4-2.6l1.5,1c-0.7,1.1-1.7,1.9-2.9,2.5
				c-1.2,0.6-2.6,0.9-4.1,0.9c-2.4,0-4.3-0.7-5.9-2.2c-1.5-1.5-2.3-3.3-2.3-5.5c0-1.4,0.4-2.8,1.1-4c0.7-1.2,1.7-2.2,3-2.9
				c1.3-0.7,2.7-1,4.3-1c1,0,1.9,0.2,2.9,0.5c0.9,0.3,1.7,0.7,2.3,1.2C712.5,145.5,713,146.2,713.5,146.9z"/>
			<path fill="#868589" d="M718.6,138.3h1.9v5.5h3v1.7h-3v13.2h-1.9v-13.2H716v-1.7h2.6V138.3z"/>
			<path fill="#868589" d="M733.2,143.4c2.3,0,4.2,0.8,5.7,2.5c1.4,1.5,2.1,3.3,2.1,5.4c0,2.1-0.7,3.9-2.2,5.4
				c-1.4,1.6-3.3,2.3-5.6,2.3c-2.3,0-4.1-0.8-5.6-2.3c-1.4-1.6-2.2-3.4-2.2-5.4c0-2.1,0.7-3.8,2.1-5.4
				C729,144.3,730.9,143.4,733.2,143.4z M733.2,145.3c-1.6,0-3,0.6-4.1,1.8c-1.1,1.2-1.7,2.6-1.7,4.3c0,1.1,0.3,2.1,0.8,3
				c0.5,0.9,1.2,1.6,2.1,2.2s1.9,0.8,2.9,0.8c1.1,0,2-0.3,2.9-0.8s1.6-1.2,2.1-2.2c0.5-0.9,0.8-1.9,0.8-3c0-1.7-0.6-3.1-1.7-4.3
				C736.1,145.9,734.8,145.3,733.2,145.3z"/>
			<path fill="#868589" d="M743.5,143.8h2v2.2c0.6-0.9,1.2-1.5,1.8-1.9c0.6-0.4,1.3-0.6,2-0.6c0.5,0,1.1,0.2,1.7,0.5l-1,1.6
				c-0.4-0.2-0.7-0.3-1-0.3c-0.6,0-1.3,0.3-1.8,0.8c-0.6,0.5-1,1.3-1.4,2.4c-0.2,0.8-0.4,2.6-0.4,5.1v5h-2V143.8z"/>
		</g>
		<g>
			<g>
				<path fill="#51A332" d="M513.5,317.8c36.5-3.9,68.9-24.2,92.2-52c24-28.5,38.4-63.8,49.2-99c0.9-3.1-3.9-4.4-4.8-1.3
					c-10.4,34.1-24.3,67.6-46.9,95.5c-22.2,27.4-54.2,48-89.7,51.8C510.3,313.1,510.3,318.1,513.5,317.8L513.5,317.8z"/>
			</g>
		</g>
		<g>
			
				<polyline fill-rule="evenodd" clip-rule="evenodd" fill="none" stroke="#51A332" stroke-width="5.161" stroke-linecap="round" stroke-linejoin="round" stroke-miterlimit="10" points="
				622.2,179.5 652.2,160.4 671.3,190.3 			"/>
		</g>
	</g>
	<g>
		<g>
			<g>
				<g>
					<g>
						<path fill="#FFFFFF" d="M510.4,59.5c0-0.2,0-0.3-0.1-0.4c0-0.2-0.1-0.3-0.2-0.4l-4.8-5.6h-36.6l-4.8,5.6
							c-0.1,0.1-0.2,0.3-0.2,0.4c-0.1,0.1-0.1,0.3-0.1,0.4l0,8.3h2.3v32h42.1v-32h2.3V59.5z M469.4,54.6h35.2l3.3,3.9h-41.9
							L469.4,54.6z M506.5,98.3h-39V67.8h39V98.3z M508.9,66.3h-43.7V60h43.7V66.3z M508.9,66.3"/>
						<path fill="#FFFFFF" d="M496.4,71h-18.7v7.8h18.7V71z M494.8,77.2h-15.6v-4.7h15.6V77.2z M494.8,77.2"/>
						<path fill="#FFFFFF" d="M498.7,82.7h-23.4v10.9h23.4L498.7,82.7z M497.2,92h-20.3v-7.8h20.3V92z M497.2,92"/>
						<path fill="#FFFFFF" d="M480.8,90.5h3.9c0.4,0,0.8-0.3,0.8-0.8c0-0.4-0.3-0.8-0.8-0.8h-3.9c-0.4,0-0.8,0.3-0.8,0.8
							C480,90.1,480.3,90.5,480.8,90.5L480.8,90.5z M480.8,90.5"/>
						<path fill="#FFFFFF" d="M484.7,87.4h8.6c0.4,0,0.8-0.3,0.8-0.8c0-0.4-0.4-0.8-0.8-0.8h-8.6c-0.4,0-0.8,0.3-0.8,0.8
							C483.9,87,484.2,87.4,484.7,87.4L484.7,87.4z M484.7,87.4"/>
						<path fill="#FFFFFF" d="M480.8,87.4c0.2,0,0.4-0.1,0.6-0.2c0.1-0.1,0.2-0.4,0.2-0.6c0-0.2-0.1-0.4-0.2-0.6
							c-0.3-0.3-0.8-0.3-1.1,0c-0.1,0.1-0.2,0.4-0.2,0.6c0,0.2,0.1,0.4,0.2,0.6C480.4,87.3,480.6,87.4,480.8,87.4L480.8,87.4z
							 M480.8,87.4"/>
						<path fill="#FFFFFF" d="M488,89.1c-0.1,0.1-0.2,0.4-0.2,0.6c0,0.2,0.1,0.4,0.2,0.6c0.1,0.1,0.4,0.2,0.6,0.2
							c0.2,0,0.4-0.1,0.6-0.2c0.1-0.1,0.2-0.4,0.2-0.6c0-0.2-0.1-0.4-0.2-0.6C488.8,88.8,488.3,88.8,488,89.1L488,89.1z M488,89.1"
							/>
						<path fill="#FFFFFF" d="M493.2,88.9h-0.8c-0.4,0-0.8,0.3-0.8,0.8c0,0.4,0.4,0.8,0.8,0.8h0.8c0.4,0,0.8-0.3,0.8-0.8
							C494,89.3,493.7,88.9,493.2,88.9L493.2,88.9z M493.2,88.9"/>
					</g>
				</g>
			</g>
		</g>
		<g>
			<g>
				<g>
					
						<rect x="346.8" y="278.2" fill="none" stroke="#FFFFFF" stroke-width="1.6215" stroke-miterlimit="10" width="36.4" height="52.9"/>
					<g>
						<g>
							<path fill="none" stroke="#FFFFFF" stroke-width="0.9446" stroke-miterlimit="10" d="M378.9,297.5c0,0.9-0.7,1.7-1.7,1.7
								h-7.9c-0.9,0-1.7-0.7-1.7-1.7v-5.3c0-0.9,0.7-1.7,1.7-1.7h7.9c0.9,0,1.7,0.7,1.7,1.7V297.5z"/>
							<path fill="none" stroke="#FFFFFF" stroke-width="0.9446" stroke-miterlimit="10" d="M378.9,308.1c0,0.9-0.7,1.7-1.7,1.7
								h-7.9c-0.9,0-1.7-0.7-1.7-1.7l0-5.3c0-0.9,0.7-1.7,1.7-1.7h7.9c0.9,0,1.7,0.7,1.7,1.7V308.1z"/>
							<path fill="none" stroke="#FFFFFF" stroke-width="0.9446" stroke-miterlimit="10" d="M364.8,326.2c0,0.9-0.7,1.7-1.7,1.7
								l-10.8,0c-0.9,0-1.7-0.7-1.7-1.7v-14.3c0-0.9,0.7-1.7,1.7-1.7l10.8,0c0.9,0,1.7,0.7,1.7,1.7V326.2z"/>
						</g>
					</g>
				</g>
				
					<line fill="none" stroke="#FFFFFF" stroke-width="0.9446" stroke-linecap="round" stroke-miterlimit="10" x1="367.3" y1="312.1" x2="379.7" y2="312.1"/>
				
					<line fill="none" stroke="#FFFFFF" stroke-width="0.9446" stroke-linecap="round" stroke-miterlimit="10" x1="367.3" y1="314.6" x2="379.7" y2="314.6"/>
				
					<line fill="none" stroke="#FFFFFF" stroke-width="0.9446" stroke-linecap="round" stroke-miterlimit="10" x1="367.3" y1="316.3" x2="379.7" y2="316.3"/>
				
					<line fill="none" stroke="#FFFFFF" stroke-width="0.9446" stroke-linecap="round" stroke-miterlimit="10" x1="367.3" y1="318.1" x2="379.7" y2="318.1"/>
				
					<line fill="none" stroke="#FFFFFF" stroke-width="0.9446" stroke-linecap="round" stroke-miterlimit="10" x1="367.3" y1="319.8" x2="379.7" y2="319.8"/>
				
					<line fill="none" stroke="#FFFFFF" stroke-width="0.9446" stroke-linecap="round" stroke-miterlimit="10" x1="367.3" y1="321.5" x2="379.7" y2="321.5"/>
				
					<line fill="none" stroke="#FFFFFF" stroke-width="0.9446" stroke-linecap="round" stroke-miterlimit="10" x1="367.3" y1="323.3" x2="379.7" y2="323.3"/>
				
					<line fill="none" stroke="#FFFFFF" stroke-width="0.9446" stroke-linecap="round" stroke-miterlimit="10" x1="367.3" y1="325" x2="379.7" y2="325"/>
				
					<line fill="none" stroke="#FFFFFF" stroke-width="0.9446" stroke-linecap="round" stroke-miterlimit="10" x1="367.3" y1="326.7" x2="379.7" y2="326.7"/>
				
					<line fill="none" stroke="#FFFFFF" stroke-width="0.9446" stroke-linecap="round" stroke-miterlimit="10" x1="367.3" y1="328.4" x2="379.7" y2="328.4"/>
			</g>
			
				<line fill="none" stroke="#FFFFFF" stroke-width="0.9446" stroke-linecap="round" stroke-linejoin="round" stroke-miterlimit="10" x1="350.1" y1="283.6" x2="380.2" y2="283.6"/>
			
				<line fill="none" stroke="#FFFFFF" stroke-width="0.9446" stroke-linecap="round" stroke-linejoin="round" stroke-miterlimit="10" x1="351.1" y1="287.4" x2="378.2" y2="287.4"/>
			
				<line fill="none" stroke="#FFFFFF" stroke-width="0.9446" stroke-linecap="round" stroke-linejoin="round" stroke-miterlimit="10" x1="350.3" y1="291.9" x2="365.2" y2="291.9"/>
			
				<line fill="none" stroke="#FFFFFF" stroke-width="0.9446" stroke-linecap="round" stroke-linejoin="round" stroke-miterlimit="10" x1="350.3" y1="293.8" x2="365.2" y2="293.8"/>
			
				<line fill="none" stroke="#FFFFFF" stroke-width="0.9446" stroke-linecap="round" stroke-linejoin="round" stroke-miterlimit="10" x1="350.3" y1="295.7" x2="365.2" y2="295.7"/>
			
				<line fill="none" stroke="#FFFFFF" stroke-width="0.9446" stroke-linecap="round" stroke-linejoin="round" stroke-miterlimit="10" x1="350.3" y1="297.6" x2="365.2" y2="297.6"/>
			
				<line fill="none" stroke="#FFFFFF" stroke-width="0.9446" stroke-linecap="round" stroke-linejoin="round" stroke-miterlimit="10" x1="350.3" y1="299.5" x2="365.2" y2="299.5"/>
			
				<line fill="none" stroke="#FFFFFF" stroke-width="0.9446" stroke-linecap="round" stroke-linejoin="round" stroke-miterlimit="10" x1="350.3" y1="301.4" x2="365.2" y2="301.4"/>
			
				<line fill="none" stroke="#FFFFFF" stroke-width="0.9446" stroke-linecap="round" stroke-linejoin="round" stroke-miterlimit="10" x1="350.3" y1="303.3" x2="365.2" y2="303.3"/>
			
				<line fill="none" stroke="#FFFFFF" stroke-width="0.9446" stroke-linecap="round" stroke-linejoin="round" stroke-miterlimit="10" x1="350.3" y1="305.1" x2="365.2" y2="305.1"/>
			
				<line fill="none" stroke="#FFFFFF" stroke-width="0.9446" stroke-linecap="round" stroke-linejoin="round" stroke-miterlimit="10" x1="350.3" y1="307" x2="365.2" y2="307"/>
		</g>
	</g>
</g>
<g id="B1" display="none">
</g>
</svg>
