<?xml version="1.0" encoding="utf-8"?>
<!-- Generator: Adobe Illustrator 18.0.0, SVG Export Plug-In . SVG Version: 6.00 Build 0)  -->
<!DOCTYPE svg PUBLIC "-//W3C//DTD SVG 1.1//EN" "http://www.w3.org/Graphics/SVG/1.1/DTD/svg11.dtd">
<svg version="1.1" xmlns="http://www.w3.org/2000/svg" xmlns:xlink="http://www.w3.org/1999/xlink" x="0px" y="0px"
	 viewBox="0 0 888.1 636.1" enable-background="new 0 0 888.1 636.1" xml:space="preserve">
<g id="Sin">
</g>
<g id="Layer_9">
	<g>
		<path d="M109.5,133.1"/>
		
			<circle fill="none" stroke="#51A332" stroke-width="5.769" stroke-linecap="round" stroke-linejoin="round" stroke-miterlimit="10" cx="121.4" cy="366.6" r="87.8"/>
		<g>
			<path fill="#51A332" d="M95.8,328.9c0-6.6,3-10.2,9.5-10.2c6.1,0,9.2,3.6,9.2,9.9v1h-5.9v-1.4c0-2.8-1.2-3.9-3.2-3.9
				c-2.2,0-3.4,1.1-3.4,4.8v7.1h0.1c1.1-2.3,2.9-3.4,5.6-3.4c4.6,0,6.9,3.2,6.9,9v7.2c0,6.3-3.3,9.9-9.4,9.9c-6.1,0-9.4-3.6-9.4-9.9
				V328.9z M102,342.3v7.1c0,2.8,1.2,3.8,3.2,3.8c2,0,3.2-1,3.2-3.8v-7.1c0-2.8-1.2-3.9-3.2-3.9C103.3,338.5,102,339.5,102,342.3z"
				/>
			<path fill="#51A332" d="M124.5,352.5v6h-6v-6H124.5z"/>
			<path fill="#51A332" d="M127.5,345.7l11.3-26.6h6.8v26.6h2.9v5.6h-2.9v7.1h-6.2v-7.1h-11.8V345.7z M139.3,345.7v-14.6h-0.1
				l-6,14.6H139.3z"/>
			<path fill="#51A332" d="M77.9,375v1.4c0,4.1-1.2,6.6-4,7.9v0.1c3.3,1.3,4.6,4.2,4.6,8.4v3.2c0,6.1-3.2,9.3-9.4,9.3h-9.7v-39.4
				h9.3C75.1,365.9,77.9,368.9,77.9,375z M65.6,371.5v10.4H68c2.3,0,3.7-1,3.7-4.2v-2.2c0-2.8-1-4.1-3.2-4.1H65.6z M65.6,387.6v12.1
				h3.5c2.1,0,3.2-1,3.2-3.9v-3.4c0-3.7-1.2-4.8-4-4.8H65.6z"/>
			<path fill="#51A332" d="M82.2,365.9h6.2v39.4h-6.2V365.9z"/>
			<path fill="#51A332" d="M92.9,365.9h6.2v33.8h10.2v5.6H92.9V365.9z"/>
			<path fill="#51A332" d="M112,365.9h6.2v33.8h10.2v5.6H112V365.9z"/>
			<path fill="#51A332" d="M131.1,365.9h6.2v39.4h-6.2V365.9z"/>
			<path fill="#51A332" d="M141.3,375.4c0-6.3,3.3-9.9,9.4-9.9c6.1,0,9.4,3.6,9.4,9.9v20.5c0,6.3-3.3,9.9-9.4,9.9
				c-6.1,0-9.4-3.6-9.4-9.9V375.4z M147.5,396.2c0,2.8,1.2,3.9,3.2,3.9s3.2-1.1,3.2-3.9V375c0-2.8-1.2-3.9-3.2-3.9s-3.2,1.1-3.2,3.9
				V396.2z"/>
			<path fill="#51A332" d="M169.7,376.8h-0.1v28.5H164v-39.4h7.8l6.2,23.6h0.1v-23.6h5.5v39.4h-6.4L169.7,376.8z"/>
		</g>
		
			<circle fill="none" stroke="#51A332" stroke-width="5.769" stroke-linecap="round" stroke-linejoin="round" stroke-miterlimit="10" cx="387.3" cy="332.5" r="121.9"/>
		<g>
			<path fill="#51A332" d="M377.6,266.5v7.5l-12.7,47.2h-8.6l12.6-46.9h-17.1l0-7.8H377.6z"/>
			<path fill="#51A332" d="M391.6,312.9v8.3h-8.3v-8.3H391.6z"/>
			<path fill="#51A332" d="M405.6,303.5v5.1c0,3.9,1.7,5.3,4.5,5.3c2.7,0,4.5-1.4,4.5-5.3v-12c0-3.9-1.7-5.4-4.5-5.4
				c-2.7,0-4.5,1.5-4.5,5.4v1.6h-8.1l1.6-31.7h22.7l0,7.8h-15l-0.7,13.1h0.2c1.6-2.6,4-4,7.4-4c6.3,0,9.5,4.5,9.5,12.5v12.2
				c0,8.8-4.4,13.8-12.8,13.8c-8.4,0-12.8-5-12.8-13.8v-4.5H405.6z"/>
			<path fill="#51A332" d="M326.9,344.1v2c0,5.6-1.7,9.1-5.6,10.9v0.2c4.6,1.8,6.4,5.9,6.4,11.6l0,4.5c0,8.4-4.5,13-13.1,13h-13.5
				l0-54.7h13C323.1,331.5,326.9,335.6,326.9,344.1z M309.8,361.6l0,16.8h4.9c2.9,0,4.5-1.3,4.5-5.4l0-4.8c0-5.1-1.6-6.6-5.6-6.6
				H309.8z M309.8,339.3v14.5h3.4c3.2,0,5.2-1.4,5.2-5.8v-3c0-3.9-1.3-5.6-4.4-5.6H309.8z"/>
			<path fill="#51A332" d="M332.9,331.5h8.6l0,54.7h-8.6L332.9,331.5z"/>
			<path fill="#51A332" d="M347.8,331.5h8.6l0,46.9h14.2v7.8h-22.8L347.8,331.5z"/>
			<path fill="#51A332" d="M374.3,331.5h8.6l0,46.9H397v7.8h-22.8L374.3,331.5z"/>
			<path fill="#51A332" d="M400.8,331.5h8.6l0,54.7h-8.6L400.8,331.5z"/>
			<path fill="#51A332" d="M414.9,344.6c0-8.8,4.6-13.8,13.1-13.8c8.4,0,13.1,5,13.1,13.8l0,28.5c0,8.8-4.6,13.8-13.1,13.8
				c-8.4,0-13.1-5-13.1-13.8L414.9,344.6z M423.5,373.6c0,3.9,1.7,5.4,4.5,5.4c2.7,0,4.5-1.5,4.5-5.4l0-29.6c0-3.9-1.7-5.4-4.5-5.4
				c-2.7,0-4.5,1.5-4.5,5.4L423.5,373.6z"/>
			<path fill="#51A332" d="M454.4,346.6h-0.2l0,39.6h-7.7l0-54.7h10.8l8.7,32.8h0.2v-32.8h7.7l0,54.7H465L454.4,346.6z"/>
		</g>
		
			<circle fill="none" stroke="#51A332" stroke-width="5.769" stroke-linecap="round" stroke-linejoin="round" stroke-miterlimit="10" cx="708.5" cy="308.5" r="145.9"/>
		<g>
			<path fill="#51A332" d="M681.5,295.7c-10.4,0-16.1-6-16.1-16.5l0-5.1c0-6.3,1.9-11,6.4-13.6v-0.2c-4.3-2.3-6.4-6.6-6.4-13.1v-2.1
				c0-10.5,5.7-16.5,16.1-16.5s16.1,6,16.1,16.5v2.1c0,6.5-2.2,10.8-6.4,13.1v0.2c4.5,2.5,6.4,7.3,6.4,13.6l0,5.1
				C697.6,289.7,691.8,295.7,681.5,295.7z M681.5,286.3c3.3,0,5.7-1.6,5.8-7.4l0-6.1c0-5.1-2.2-7.4-5.8-7.4s-5.8,2.2-5.8,7.4l0,6.1
				C675.7,284.7,678.2,286.3,681.5,286.3z M675.7,249.2c0,5.2,2.4,6.9,5.8,6.9c3.3,0,5.8-1.7,5.8-6.9v-3.6c0-5.9-2.5-7.5-5.8-7.5
				s-5.8,1.6-5.8,7.5V249.2z"/>
			<path fill="#51A332" d="M713.7,285v9.9h-9.9V285H713.7z"/>
			<path fill="#51A332" d="M736.2,238c-3.3,0-5.3,1.8-5.3,6.5v7h-9.7v-6.4c0-10.5,5.2-16.5,15.3-16.5c10.1,0,15.3,6,15.3,16.5
				c0,8.7-3.2,15.7-12.7,25.9c-6.1,6.6-7.8,9.6-7.8,13.1c0,0.5,0,0.9,0.1,1.4h19.5v9.4h-29.8v-8c0-7.3,2.6-12.8,10.3-20.9
				c7.9-8.3,10.1-13.5,10.1-20.5C741.5,239.6,739.5,238,736.2,238z"/>
			<path fill="#51A332" d="M636.2,322.3l0,2.3c0,6.7-2.1,10.9-6.6,13.1v0.2c5.5,2.2,7.7,7,7.7,13.9v5.3c0,10.1-5.3,15.5-15.6,15.5
				h-16.2l0-65.5H621C631.6,307.2,636.2,312.2,636.2,322.3z M615.7,316.6l0,17.3h4c3.8,0,6.2-1.7,6.2-6.9v-3.6
				c0-4.7-1.6-6.7-5.2-6.7H615.7z M615.7,343.3v20.1h5.9c3.5,0,5.3-1.6,5.3-6.5v-5.7c0-6.1-2-8-6.6-8H615.7z"/>
			<path fill="#51A332" d="M643.4,307.2h10.3l0,65.5h-10.3L643.4,307.2z"/>
			<path fill="#51A332" d="M661.2,307.2h10.3l0,56.1h16.9l0,9.4h-27.2L661.2,307.2z"/>
			<path fill="#51A332" d="M692.9,307.2h10.3l0,56.1h16.9l0,9.4h-27.2L692.9,307.2z"/>
			<path fill="#51A332" d="M724.6,307.2h10.3l0,65.5h-10.3L724.6,307.2z"/>
			<path fill="#51A332" d="M741.6,323c0-10.5,5.5-16.5,15.6-16.5c10.1,0,15.6,6,15.6,16.5l0,34.1c0,10.5-5.5,16.5-15.6,16.5
				c-10.1,0-15.6-6-15.6-16.5L741.6,323z M751.9,357.7c0,4.7,2.1,6.5,5.3,6.5s5.3-1.8,5.3-6.5l0-35.4c0-4.7-2.1-6.5-5.3-6.5
				s-5.3,1.8-5.3,6.5L751.9,357.7z"/>
			<path fill="#51A332" d="M788.8,325.3h-0.2l0,47.4h-9.3l0-65.5h12.9l10.4,39.2h0.2l0-39.2h9.2l0,65.5h-10.6L788.8,325.3z"/>
		</g>
		<g>
			<path fill="#51A332" d="M74.8,482.8c-2.4,0-3.9,1.3-3.9,4.8v5.2h-7.2V488c0-7.8,3.9-12.2,11.4-12.2s11.4,4.4,11.4,12.2
				c0,6.4-2.4,11.6-9.4,19.2c-4.5,4.8-5.7,7.1-5.7,9.7c0,0.3,0,0.7,0.1,1h14.4v6.9h-22v-6c0-5.4,1.9-9.5,7.6-15.4
				c5.8-6.2,7.5-10,7.5-15.2C78.8,483.9,77.3,482.8,74.8,482.8z"/>
			<path fill="#51A332" d="M90.5,488c0-7.8,4.1-12.2,11.6-12.2s11.6,4.4,11.6,12.2v25.2c0,7.8-4.1,12.2-11.6,12.2
				s-11.6-4.4-11.6-12.2V488z M98.1,513.7c0,3.5,1.5,4.8,3.9,4.8c2.4,0,3.9-1.3,3.9-4.8v-26.2c0-3.5-1.5-4.8-3.9-4.8
				c-2.4,0-3.9,1.3-3.9,4.8V513.7z"/>
			<path fill="#51A332" d="M117.9,488c0-7.8,4.1-12.2,11.6-12.2c7.5,0,11.6,4.4,11.6,12.2v25.2c0,7.8-4.1,12.2-11.6,12.2
				c-7.5,0-11.6-4.4-11.6-12.2V488z M125.5,513.7c0,3.5,1.5,4.8,3.9,4.8c2.4,0,3.9-1.3,3.9-4.8v-26.2c0-3.5-1.5-4.8-3.9-4.8
				c-2.4,0-3.9,1.3-3.9,4.8V513.7z"/>
			<path fill="#51A332" d="M152.8,509.2v4.5c0,3.5,1.5,4.7,3.9,4.7c2.4,0,3.9-1.2,3.9-4.7V503c0-3.5-1.5-4.8-3.9-4.8
				c-2.4,0-3.9,1.3-3.9,4.8v1.5h-7.2l1.4-28.1h20.1v6.9h-13.3l-0.6,11.6h0.1c1.4-2.3,3.5-3.5,6.6-3.5c5.6,0,8.4,3.9,8.4,11.1v10.8
				c0,7.8-3.9,12.2-11.4,12.2c-7.5,0-11.4-4.4-11.4-12.2v-4H152.8z"/>
		</g>
		<g>
			<path fill="#51A332" d="M344,482.8c-2.4,0-3.9,1.3-3.9,4.8v5.2h-7.2V488c0-7.8,3.9-12.2,11.4-12.2c7.5,0,11.4,4.4,11.4,12.2
				c0,6.4-2.4,11.6-9.4,19.2c-4.5,4.8-5.7,7.1-5.7,9.7c0,0.3,0,0.7,0.1,1h14.4v6.9h-22v-6c0-5.4,1.9-9.5,7.6-15.4
				c5.8-6.2,7.5-10,7.5-15.2C348,483.9,346.5,482.8,344,482.8z"/>
			<path fill="#51A332" d="M359.7,488c0-7.8,4.1-12.2,11.6-12.2c7.5,0,11.6,4.4,11.6,12.2v25.2c0,7.8-4.1,12.2-11.6,12.2
				c-7.5,0-11.6-4.4-11.6-12.2V488z M367.3,513.7c0,3.5,1.5,4.8,3.9,4.8c2.4,0,3.9-1.3,3.9-4.8v-26.2c0-3.5-1.5-4.8-3.9-4.8
				c-2.4,0-3.9,1.3-3.9,4.8V513.7z"/>
			<path fill="#51A332" d="M398.9,482.8c-2.4,0-3.9,1.3-3.9,4.8v5.2h-7.2V488c0-7.8,3.9-12.2,11.4-12.2c7.5,0,11.4,4.4,11.4,12.2
				c0,6.4-2.4,11.6-9.4,19.2c-4.5,4.8-5.7,7.1-5.7,9.7c0,0.3,0,0.7,0.1,1h14.4v6.9h-22v-6c0-5.4,1.9-9.5,7.6-15.4
				c5.8-6.2,7.5-10,7.5-15.2C402.8,483.9,401.3,482.8,398.9,482.8z"/>
			<path fill="#51A332" d="M414.5,488c0-7.8,4.1-12.2,11.6-12.2c7.5,0,11.6,4.4,11.6,12.2v25.2c0,7.8-4.1,12.2-11.6,12.2
				c-7.5,0-11.6-4.4-11.6-12.2V488z M422.2,513.7c0,3.5,1.5,4.8,3.9,4.8c2.4,0,3.9-1.3,3.9-4.8v-26.2c0-3.5-1.5-4.8-3.9-4.8
				c-2.4,0-3.9,1.3-3.9,4.8V513.7z"/>
		</g>
		<g>
			<path fill="#51A332" d="M667.5,482.8c-2.4,0-3.9,1.3-3.9,4.8v5.2h-7.2V488c0-7.8,3.9-12.2,11.4-12.2c7.5,0,11.4,4.4,11.4,12.2
				c0,6.4-2.4,11.6-9.4,19.2c-4.5,4.8-5.7,7.1-5.7,9.7c0,0.3,0,0.7,0.1,1h14.4v6.9h-22v-6c0-5.4,1.9-9.5,7.6-15.4
				c5.8-6.2,7.5-10,7.5-15.2C671.5,483.9,669.9,482.8,667.5,482.8z"/>
			<path fill="#51A332" d="M683.2,488c0-7.8,4.1-12.2,11.6-12.2c7.5,0,11.6,4.4,11.6,12.2v25.2c0,7.8-4.1,12.2-11.6,12.2
				c-7.5,0-11.6-4.4-11.6-12.2V488z M690.8,513.7c0,3.5,1.5,4.8,3.9,4.8c2.4,0,3.9-1.3,3.9-4.8v-26.2c0-3.5-1.5-4.8-3.9-4.8
				c-2.4,0-3.9,1.3-3.9,4.8V513.7z"/>
			<path fill="#51A332" d="M725.9,488.3c0-4.4-1.5-5.5-3.9-5.5c-2.4,0-3.9,1.3-3.9,4.8v3.1h-7.2V488c0-7.8,3.9-12.2,11.4-12.2
				c7.5,0,11.4,4.4,11.4,12.2v1.2c0,5.2-1.7,8.4-5.3,9.9v0.1c3.8,1.7,5.3,5.2,5.3,10.1v3.8c0,7.8-3.9,12.2-11.4,12.2
				c-7.5,0-11.4-4.4-11.4-12.2v-4h7.2v4.5c0,3.5,1.5,4.8,3.9,4.8c2.4,0,3.9-1.2,3.9-5.5v-3.8c0-4.5-1.5-6.2-5-6.2h-2.6v-6.9h3
				c2.8,0,4.6-1.2,4.6-5.1V488.3z"/>
			<path fill="#51A332" d="M738,488c0-7.8,4.1-12.2,11.6-12.2c7.5,0,11.6,4.4,11.6,12.2v25.2c0,7.8-4.1,12.2-11.6,12.2
				c-7.5,0-11.6-4.4-11.6-12.2V488z M745.6,513.7c0,3.5,1.5,4.8,3.9,4.8c2.4,0,3.9-1.3,3.9-4.8v-26.2c0-3.5-1.5-4.8-3.9-4.8
				c-2.4,0-3.9,1.3-3.9,4.8V513.7z"/>
		</g>
		<g>
			<g>
				<path fill="#868589" d="M136.2,566h12.2v3.6h-4.1v21.6h-4v-21.6h-4.1V566z"/>
				<path fill="#868589" d="M154.1,591.2h-4V566h4v10.8h4.5V566h4v25.2h-4v-10.8h-4.5V591.2z"/>
				<path fill="#868589" d="M169.5,576.6h5.4v3.6h-5.4v7.4h6.8v3.6h-10.8V566h10.8v3.6h-6.8V576.6z"/>
				<path fill="#868589" d="M193.2,577.7L193.2,577.7l-1.5,13.4h-5.4l-2.8-25.2h3.9l2.1,19.9h0.1l1.9-19.9h3.8l1.9,20h0.1l2-20h3.5
					l-2.8,25.2h-5.3L193.2,577.7z"/>
				<path fill="#868589" d="M204.3,572c0-4,2.1-6.3,6-6.3c3.9,0,6,2.3,6,6.3v13.1c0,4-2.1,6.3-6,6.3c-3.9,0-6-2.3-6-6.3V572z
					 M208.3,585.4c0,1.8,0.8,2.5,2.1,2.5c1.3,0,2.1-0.7,2.1-2.5v-13.6c0-1.8-0.8-2.5-2.1-2.5c-1.3,0-2.1,0.7-2.1,2.5V585.4z"/>
				<path fill="#868589" d="M227.2,591.2c-0.2-0.6-0.4-1-0.4-3.1v-4c0-2.3-0.8-3.2-2.6-3.2h-1.4v10.3h-4V566h6
					c4.1,0,5.9,1.9,5.9,5.8v2c0,2.6-0.8,4.2-2.6,5.1v0.1c2,0.8,2.6,2.7,2.6,5.3v3.9c0,1.2,0,2.1,0.4,3.1H227.2z M222.9,569.6v7.7
					h1.5c1.5,0,2.4-0.6,2.4-2.7v-2.5c0-1.8-0.6-2.6-2-2.6H222.9z"/>
				<path fill="#868589" d="M233.4,566h4v21.6h6.5v3.6h-10.5V566z"/>
				<path fill="#868589" d="M245.6,566h6.3c4,0,5.9,2.2,5.9,6.2v12.7c0,4-1.9,6.2-5.9,6.2h-6.3V566z M249.5,569.6v18h2.2
					c1.3,0,2-0.6,2-2.4V572c0-1.8-0.8-2.4-2-2.4H249.5z"/>
				<path fill="#868589" d="M259.9,569.8V566h3.8v3.4l-1.7,4h-1.6l1-3.6H259.9z"/>
				<path fill="#868589" d="M271.8,565.7c3.9,0,5.8,2.3,5.8,6.3v0.8h-3.7v-1c0-1.8-0.7-2.5-2-2.5c-1.3,0-2,0.7-2,2.5
					c0,1.8,0.8,3.2,3.4,5.5c3.3,2.9,4.4,5,4.4,7.9c0,4-2,6.3-5.9,6.3c-3.9,0-5.9-2.3-5.9-6.3v-1.5h3.7v1.8c0,1.8,0.8,2.4,2.1,2.4
					s2.1-0.6,2.1-2.4c0-1.8-0.8-3.2-3.4-5.5c-3.3-2.9-4.4-5-4.4-7.9C265.9,568,267.9,565.7,271.8,565.7z"/>
				<path fill="#868589" d="M297.2,572.2v3.3c0,4-1.9,6.2-5.9,6.2h-1.9v9.5h-4V566h5.8C295.3,566,297.2,568.2,297.2,572.2z
					 M289.4,569.6v8.5h1.9c1.3,0,1.9-0.6,1.9-2.4v-3.8c0-1.8-0.7-2.4-1.9-2.4H289.4z"/>
				<path fill="#868589" d="M298.7,572c0-4,2.1-6.3,6-6.3c3.9,0,6,2.3,6,6.3v13.1c0,4-2.1,6.3-6,6.3c-3.9,0-6-2.3-6-6.3V572z
					 M302.7,585.4c0,1.8,0.8,2.5,2.1,2.5c1.3,0,2.1-0.7,2.1-2.5v-13.6c0-1.8-0.8-2.5-2.1-2.5c-1.3,0-2.1,0.7-2.1,2.5V585.4z"/>
				<path fill="#868589" d="M325,572.2v3.3c0,4-1.9,6.2-5.9,6.2h-1.9v9.5h-4V566h5.8C323.1,566,325,568.2,325,572.2z M317.3,569.6
					v8.5h1.9c1.3,0,1.9-0.6,1.9-2.4v-3.8c0-1.8-0.7-2.4-1.9-2.4H317.3z"/>
				<path fill="#868589" d="M330.6,566v19.4c0,1.8,0.8,2.4,2.1,2.4s2.1-0.6,2.1-2.4V566h3.7v19.2c0,4-2,6.3-5.9,6.3
					c-3.9,0-5.9-2.3-5.9-6.3V566H330.6z"/>
				<path fill="#868589" d="M341.2,566h4v21.6h6.5v3.6h-10.5V566z"/>
				<path fill="#868589" d="M366.2,591.2h-4l-0.7-4.6h-4.9l-0.7,4.6h-3.6l4-25.2h5.8L366.2,591.2z M357.2,583.2h3.8l-1.9-12.7h-0.1
					L357.2,583.2z"/>
				<path fill="#868589" d="M365.5,566h12.2v3.6h-4.1v21.6h-4v-21.6h-4.1V566z"/>
				<path fill="#868589" d="M379.5,566h4v25.2h-4V566z"/>
				<path fill="#868589" d="M386,572c0-4,2.1-6.3,6-6.3c3.9,0,6,2.3,6,6.3v13.1c0,4-2.1,6.3-6,6.3c-3.9,0-6-2.3-6-6.3V572z
					 M390,585.4c0,1.8,0.8,2.5,2.1,2.5c1.3,0,2.1-0.7,2.1-2.5v-13.6c0-1.8-0.8-2.5-2.1-2.5c-1.3,0-2.1,0.7-2.1,2.5V585.4z"/>
				<path fill="#868589" d="M404.2,572.9L404.2,572.9l-0.1,18.2h-3.6V566h5l4,15.1h0.1V566h3.5v25.2h-4.1L404.2,572.9z"/>
				<path fill="#868589" d="M421.5,566h4v25.2h-4V566z"/>
				<path fill="#868589" d="M433.7,565.7c3.9,0,5.8,2.3,5.8,6.3v0.8h-3.7v-1c0-1.8-0.7-2.5-2-2.5s-2,0.7-2,2.5
					c0,1.8,0.8,3.2,3.4,5.5c3.3,2.9,4.4,5,4.4,7.9c0,4-2,6.3-5.9,6.3c-3.9,0-5.9-2.3-5.9-6.3v-1.5h3.7v1.8c0,1.8,0.8,2.4,2.1,2.4
					c1.3,0,2.1-0.6,2.1-2.4c0-1.8-0.8-3.2-3.4-5.5c-3.3-2.9-4.4-5-4.4-7.9C427.9,568,429.9,565.7,433.7,565.7z"/>
				<path fill="#868589" d="M459.2,572.2v3.3c0,4-1.9,6.2-5.9,6.2h-1.9v9.5h-4V566h5.8C457.2,566,459.2,568.2,459.2,572.2z
					 M451.4,569.6v8.5h1.9c1.3,0,1.9-0.6,1.9-2.4v-3.8c0-1.8-0.7-2.4-1.9-2.4H451.4z"/>
				<path fill="#868589" d="M469.3,591.2c-0.2-0.6-0.4-1-0.4-3.1v-4c0-2.3-0.8-3.2-2.6-3.2H465v10.3h-4V566h6c4.1,0,5.9,1.9,5.9,5.8
					v2c0,2.6-0.8,4.2-2.6,5.1v0.1c2,0.8,2.6,2.7,2.6,5.3v3.9c0,1.2,0,2.1,0.4,3.1H469.3z M465,569.6v7.7h1.5c1.5,0,2.4-0.6,2.4-2.7
					v-2.5c0-1.8-0.6-2.6-2-2.6H465z"/>
				<path fill="#868589" d="M475.1,572c0-4,2.1-6.3,6-6.3c3.9,0,6,2.3,6,6.3v13.1c0,4-2.1,6.3-6,6.3c-3.9,0-6-2.3-6-6.3V572z
					 M479.1,585.4c0,1.8,0.8,2.5,2.1,2.5c1.3,0,2.1-0.7,2.1-2.5v-13.6c0-1.8-0.8-2.5-2.1-2.5c-1.3,0-2.1,0.7-2.1,2.5V585.4z"/>
				<path fill="#868589" d="M488.6,587.6c0.4,0,0.9,0,1.4,0c1.3,0,2.3-0.5,2.3-2.4V566h4v18.9c0,5-2.7,6.3-5.7,6.3
					c-0.7,0-1.3,0-1.9-0.1V587.6z"/>
				<path fill="#868589" d="M502.9,576.6h5.4v3.6h-5.4v7.4h6.8v3.6h-10.8V566h10.8v3.6h-6.8V576.6z"/>
				<path fill="#868589" d="M523.7,581.8v3.3c0,4-2,6.3-5.9,6.3c-3.9,0-5.9-2.3-5.9-6.3V572c0-4,2-6.3,5.9-6.3
					c3.9,0,5.9,2.3,5.9,6.3v2.4h-3.7v-2.7c0-1.8-0.8-2.5-2.1-2.5c-1.3,0-2.1,0.7-2.1,2.5v13.6c0,1.8,0.8,2.4,2.1,2.4
					c1.3,0,2.1-0.6,2.1-2.4v-3.6H523.7z"/>
				<path fill="#868589" d="M524.9,566h12.2v3.6H533v21.6h-4v-21.6h-4.1V566z"/>
				<path fill="#868589" d="M542.9,576.6h5.4v3.6h-5.4v7.4h6.8v3.6h-10.8V566h10.8v3.6h-6.8V576.6z"/>
				<path fill="#868589" d="M552.2,566h6.3c4,0,5.9,2.2,5.9,6.2v12.7c0,4-1.9,6.2-5.9,6.2h-6.3V566z M556.1,569.6v18h2.2
					c1.3,0,2-0.6,2-2.4V572c0-1.8-0.8-2.4-2-2.4H556.1z"/>
				<path fill="#868589" d="M571.3,566h12.2v3.6h-4.1v21.6h-4v-21.6h-4.1V566z"/>
				<path fill="#868589" d="M584.9,572c0-4,2.1-6.3,6-6.3c3.9,0,6,2.3,6,6.3v13.1c0,4-2.1,6.3-6,6.3c-3.9,0-6-2.3-6-6.3V572z
					 M588.9,585.4c0,1.8,0.8,2.5,2.1,2.5c1.3,0,2.1-0.7,2.1-2.5v-13.6c0-1.8-0.8-2.5-2.1-2.5c-1.3,0-2.1,0.7-2.1,2.5V585.4z"/>
				<path fill="#868589" d="M605.1,566h4v25.2h-4V566z"/>
				<path fill="#868589" d="M615.5,572.9L615.5,572.9l-0.1,18.2h-3.6V566h5l4,15.1h0.1V566h3.5v25.2h-4.1L615.5,572.9z"/>
				<path fill="#868589" d="M638.8,581.8v3.3c0,4-2,6.3-5.9,6.3c-3.9,0-5.9-2.3-5.9-6.3V572c0-4,2-6.3,5.9-6.3
					c3.9,0,5.9,2.3,5.9,6.3v2.4H635v-2.7c0-1.8-0.8-2.5-2.1-2.5c-1.3,0-2.1,0.7-2.1,2.5v13.6c0,1.8,0.8,2.4,2.1,2.4
					c1.3,0,2.1-0.6,2.1-2.4v-3.6H638.8z"/>
				<path fill="#868589" d="M649.5,591.2c-0.2-0.6-0.4-1-0.4-3.1v-4c0-2.3-0.8-3.2-2.6-3.2h-1.4v10.3h-4V566h6
					c4.1,0,5.9,1.9,5.9,5.8v2c0,2.6-0.8,4.2-2.6,5.1v0.1c2,0.8,2.6,2.7,2.6,5.3v3.9c0,1.2,0,2.1,0.4,3.1H649.5z M645.1,569.6v7.7
					h1.5c1.5,0,2.4-0.6,2.4-2.7v-2.5c0-1.8-0.6-2.6-2-2.6H645.1z"/>
				<path fill="#868589" d="M659.6,576.6h5.4v3.6h-5.4v7.4h6.8v3.6h-10.8V566h10.8v3.6h-6.8V576.6z"/>
				<path fill="#868589" d="M681.7,591.2h-4l-0.7-4.6h-4.9l-0.7,4.6h-3.6l4-25.2h5.8L681.7,591.2z M672.7,583.2h3.8l-1.9-12.7h-0.1
					L672.7,583.2z"/>
				<path fill="#868589" d="M688.9,565.7c3.9,0,5.8,2.3,5.8,6.3v0.8H691v-1c0-1.8-0.7-2.5-2-2.5c-1.3,0-2,0.7-2,2.5
					c0,1.8,0.8,3.2,3.4,5.5c3.3,2.9,4.4,5,4.4,7.9c0,4-2,6.3-5.9,6.3c-3.9,0-5.9-2.3-5.9-6.3v-1.5h3.7v1.8c0,1.8,0.8,2.4,2.1,2.4
					c1.3,0,2.1-0.6,2.1-2.4c0-1.8-0.8-3.2-3.4-5.5c-3.3-2.9-4.4-5-4.4-7.9C683,568,685,565.7,688.9,565.7z"/>
				<path fill="#868589" d="M701,576.6h5.4v3.6H701v7.4h6.8v3.6H697V566h10.8v3.6H701V576.6z"/>
				<path fill="#868589" d="M714.1,587.3v3.8h-3.8v-3.8H714.1z"/>
				<path fill="#868589" d="M720.8,587.3v3.8H717v-3.8H720.8z"/>
				<path fill="#868589" d="M727.5,587.3v3.8h-3.8v-3.8H727.5z"/>
			</g>
		</g>
		<g>
			<g>
				<path fill="#51A332" d="M134.5,280.1h-29.7c-1,0-1.8-0.8-1.8-1.8v-35h-0.4c-5.3,0-9.6-4.3-9.6-9.6v-23.2c0-5.3,4.3-9.6,9.6-9.6
					h34.1c5.3,0,9.6,4.3,9.6,9.6v23.2c0,5.3-4.3,9.6-9.6,9.6h-0.4v35C136.2,279.3,135.4,280.1,134.5,280.1L134.5,280.1z
					 M106.5,276.5h26.1v-35c0-1,0.8-1.8,1.8-1.8h2.2c3.3,0,6-2.7,6-6v-23.2c0-3.3-2.7-6-6-6h-34.1c-3.3,0-6,2.7-6,6v23.2
					c0,3.3,2.7,6,6,6h2.2c1,0,1.8,0.8,1.8,1.8V276.5z M106.5,276.5"/>
				<path fill="#51A332" d="M119.6,196.7c-9.8,0-17.8-8-17.8-17.8c0-9.8,8-17.8,17.8-17.8s17.8,8,17.8,17.8
					C137.4,188.8,129.4,196.7,119.6,196.7L119.6,196.7z M119.6,164.8c-7.8,0-14.2,6.3-14.2,14.2c0,7.8,6.4,14.2,14.2,14.2
					c7.8,0,14.2-6.3,14.2-14.2C133.7,171.2,127.4,164.8,119.6,164.8L119.6,164.8z M119.6,164.8"/>
			</g>
		</g>
		<g>
			<g>
				<path fill="#51A332" d="M403.4,213.2h-29.7c-1,0-1.8-0.8-1.8-1.8v-35h-0.4c-5.3,0-9.6-4.3-9.6-9.6v-23.2c0-5.3,4.3-9.6,9.6-9.6
					h34.1c5.3,0,9.6,4.3,9.6,9.6v23.2c0,5.3-4.3,9.6-9.6,9.6h-0.4v35C405.2,212.5,404.4,213.2,403.4,213.2L403.4,213.2z
					 M375.5,209.7h26.1v-35c0-1,0.8-1.8,1.8-1.8h2.2c3.3,0,6-2.7,6-6v-23.2c0-3.3-2.7-6-6-6h-34.1c-3.3,0-6,2.7-6,6v23.2
					c0,3.3,2.7,6,6,6h2.2c1,0,1.8,0.8,1.8,1.8V209.7z M375.5,209.7"/>
				<path fill="#51A332" d="M388.5,129.9c-9.8,0-17.8-8-17.8-17.8c0-9.8,8-17.8,17.8-17.8s17.8,8,17.8,17.8
					C406.3,121.9,398.3,129.9,388.5,129.9L388.5,129.9z M388.5,98c-7.8,0-14.2,6.3-14.2,14.2c0,7.8,6.4,14.2,14.2,14.2
					c7.8,0,14.2-6.3,14.2-14.2C402.7,104.3,396.3,98,388.5,98L388.5,98z M388.5,98"/>
			</g>
		</g>
		<g>
			<g>
				<path fill="#51A332" d="M364.9,213.3l-24.8,8c-0.8,0.3-1.7-0.2-2-1l-9.4-29.1l-0.3,0.1c-4.4,1.4-9.2-1-10.6-5.4l-6.3-19.3
					c-1.4-4.4,1-9.2,5.4-10.6l28.4-9.2c4.4-1.4,9.2,1,10.6,5.4l6.3,19.3c1.4,4.4-1,9.2-5.4,10.6l-0.3,0.1l9.4,29.1
					C366.2,212.2,365.7,213.1,364.9,213.3L364.9,213.3z M340.7,217.9l21.8-7l-9.4-29.1c-0.3-0.8,0.2-1.7,1-2l1.8-0.6
					c2.8-0.9,4.3-3.9,3.4-6.6l-6.3-19.3c-0.9-2.8-3.9-4.3-6.6-3.4l-28.4,9.2c-2.8,0.9-4.3,3.9-3.4,6.6l6.3,19.3
					c0.9,2.8,3.9,4.3,6.6,3.4l1.8-0.6c0.8-0.3,1.7,0.2,2,1L340.7,217.9z M340.7,217.9"/>
				<path fill="#51A332" d="M330,147.9c-8.2,2.6-16.9-1.8-19.6-10c-2.6-8.2,1.8-16.9,10-19.6c8.2-2.6,16.9,1.8,19.6,10
					C342.7,136.5,338.2,145.3,330,147.9L330,147.9z M321.4,121.3c-6.5,2.1-10.1,9.1-8,15.6c2.1,6.5,9.1,10.1,15.6,8
					c6.5-2.1,10.1-9.1,8-15.6C334.9,122.8,327.9,119.2,321.4,121.3L321.4,121.3z M321.4,121.3"/>
			</g>
		</g>
		<g>
			<g>
				<path fill="#51A332" d="M414.8,213.3c-0.8-0.3-1.3-1.1-1-2l9.4-29.1l-0.3-0.1c-4.4-1.4-6.8-6.2-5.4-10.6l6.3-19.3
					c1.4-4.4,6.2-6.8,10.6-5.4l28.4,9.2c4.4,1.4,6.8,6.2,5.4,10.6l-6.3,19.3c-1.4,4.4-6.2,6.8-10.6,5.4l-0.3-0.1l-9.4,29.1
					c-0.3,0.8-1.2,1.3-2,1L414.8,213.3L414.8,213.3z M448.4,188.8c0.3-0.8,1.2-1.3,2-1l1.8,0.6c2.8,0.9,5.7-0.6,6.6-3.4l6.3-19.3
					c0.9-2.8-0.6-5.7-3.4-6.6l-28.4-9.2c-2.8-0.9-5.7,0.6-6.6,3.4l-6.3,19.3c-0.9,2.8,0.6,5.7,3.4,6.6l1.8,0.6c0.8,0.3,1.3,1.2,1,2
					l-9.4,29.1l21.8,7L448.4,188.8z M439,217.9"/>
				<path fill="#51A332" d="M449.6,147.9c-8.1-2.6-12.6-11.4-10-19.6c2.6-8.2,11.4-12.6,19.6-10c8.2,2.6,12.7,11.4,10,19.6
					C466.6,146.1,457.8,150.6,449.6,147.9L449.6,147.9z M458.2,121.3c-6.5-2.1-13.5,1.5-15.6,8c-2.1,6.5,1.5,13.5,8,15.6
					c6.5,2.1,13.5-1.5,15.6-8C468.3,130.5,464.8,123.5,458.2,121.3L458.2,121.3z M458.2,121.3"/>
			</g>
		</g>
		<g>
			<g>
				<path fill="#51A332" d="M723.6,163.5h-29.7c-1,0-1.8-0.8-1.8-1.8v-35h-0.4c-5.3,0-9.6-4.3-9.6-9.6V93.9c0-5.3,4.3-9.6,9.6-9.6
					h34.1c5.3,0,9.6,4.3,9.6,9.6v23.2c0,5.3-4.3,9.6-9.6,9.6h-0.4v35C725.4,162.7,724.6,163.5,723.6,163.5L723.6,163.5z
					 M695.7,159.9h26.1v-35c0-1,0.8-1.8,1.8-1.8h2.2c3.3,0,6-2.7,6-6V93.9c0-3.3-2.7-6-6-6h-34.1c-3.3,0-6,2.7-6,6v23.2
					c0,3.3,2.7,6,6,6h2.2c1,0,1.8,0.8,1.8,1.8V159.9z M695.7,159.9"/>
				<path fill="#51A332" d="M708.8,80.1c-9.8,0-17.8-8-17.8-17.8c0-9.8,8-17.8,17.8-17.8c9.8,0,17.8,8,17.8,17.8
					C726.5,72.1,718.5,80.1,708.8,80.1L708.8,80.1z M708.8,48.2c-7.8,0-14.2,6.3-14.2,14.2c0,7.8,6.4,14.2,14.2,14.2
					c7.8,0,14.2-6.3,14.2-14.2C722.9,54.5,716.6,48.2,708.8,48.2L708.8,48.2z M708.8,48.2"/>
			</g>
		</g>
		<g>
			<g>
				<path fill="#51A332" d="M685.1,163.6l-24.8,8c-0.8,0.3-1.7-0.2-2-1l-9.4-29.1l-0.3,0.1c-4.4,1.4-9.2-1-10.6-5.4l-6.3-19.3
					c-1.4-4.4,1-9.2,5.4-10.6l28.4-9.2c4.4-1.4,9.2,1,10.6,5.4l6.3,19.3c1.4,4.4-1,9.2-5.4,10.6l-0.3,0.1l9.4,29.1
					C686.4,162.4,686,163.3,685.1,163.6L685.1,163.6z M660.9,168.1l21.8-7l-9.4-29.1c-0.3-0.8,0.2-1.7,1-2l1.8-0.6
					c2.8-0.9,4.3-3.9,3.4-6.6l-6.3-19.3c-0.9-2.8-3.9-4.3-6.6-3.4l-28.4,9.2c-2.8,0.9-4.3,3.9-3.4,6.6l6.3,19.3
					c0.9,2.8,3.9,4.3,6.6,3.4l1.8-0.6c0.8-0.3,1.7,0.2,2,1L660.9,168.1z M660.9,168.1"/>
				<path fill="#51A332" d="M650.3,98.2c-8.2,2.6-16.9-1.8-19.6-10c-2.6-8.2,1.8-16.9,10-19.6c8.2-2.6,16.9,1.8,19.6,10
					C662.9,86.7,658.4,95.5,650.3,98.2L650.3,98.2z M641.7,71.6c-6.5,2.1-10.1,9.1-8,15.6c2.1,6.5,9.1,10.1,15.6,8
					c6.5-2.1,10.1-9.1,8-15.6C655.2,73,648.2,69.5,641.7,71.6L641.7,71.6z M641.7,71.6"/>
			</g>
		</g>
		<g>
			<g>
				<path fill="#51A332" d="M735,163.6c-0.8-0.3-1.3-1.1-1-2l9.4-29.1l-0.3-0.1c-4.4-1.4-6.8-6.2-5.4-10.6l6.3-19.3
					c1.4-4.4,6.2-6.8,10.6-5.4l28.4,9.2c4.4,1.4,6.8,6.2,5.4,10.6l-6.3,19.3c-1.4,4.4-6.2,6.8-10.6,5.4l-0.3-0.1l-9.4,29.1
					c-0.3,0.8-1.2,1.3-2,1L735,163.6L735,163.6z M768.7,139c0.3-0.8,1.2-1.3,2-1l1.8,0.6c2.8,0.9,5.7-0.6,6.6-3.4l6.3-19.3
					c0.9-2.8-0.6-5.7-3.4-6.6l-28.4-9.2c-2.8-0.9-5.7,0.6-6.6,3.4l-6.3,19.3c-0.9,2.8,0.6,5.7,3.4,6.6l1.8,0.6c0.8,0.3,1.3,1.2,1,2
					l-9.4,29.1l21.8,7L768.7,139z M759.3,168.1"/>
				<path fill="#51A332" d="M769.9,98.2c-8.1-2.6-12.6-11.4-10-19.6c2.6-8.2,11.4-12.6,19.6-10c8.2,2.6,12.7,11.4,10,19.6
					C786.8,96.3,778,100.8,769.9,98.2L769.9,98.2z M778.5,71.6c-6.5-2.1-13.5,1.5-15.6,8c-2.1,6.5,1.5,13.5,8,15.6
					c6.5,2.1,13.5-1.5,15.6-8C788.6,80.7,785,73.7,778.5,71.6L778.5,71.6z M778.5,71.6"/>
			</g>
		</g>
		<g>
			<g>
				<path fill="#51A332" d="M772.6,177.7c-0.7-0.4-0.9-1.2-0.5-1.9l13.5-23.2l-0.3-0.2c-3.5-2-4.7-6.6-2.7-10.1l8.9-15.4
					c2-3.5,6.6-4.7,10.1-2.7l22.7,13.2c3.5,2,4.7,6.6,2.7,10.1l-8.9,15.4c-2,3.5-6.6,4.7-10.1,2.7l-0.3-0.2l-13.5,23.2
					c-0.4,0.7-1.2,0.9-1.9,0.5L772.6,177.7L772.6,177.7z M806,162.9c0.4-0.7,1.2-0.9,1.9-0.5l1.5,0.8c2.2,1.3,5,0.5,6.3-1.7
					l8.9-15.4c1.3-2.2,0.5-5-1.7-6.3l-22.7-13.2c-2.2-1.3-5-0.5-6.3,1.7l-8.9,15.4c-1.3,2.2-0.5,5,1.7,6.3l1.5,0.8
					c0.7,0.4,0.9,1.2,0.5,1.9l-13.5,23.2l17.3,10.1L806,162.9z M792.6,186.1"/>
				<path fill="#51A332" d="M814.6,128.1c-6.5-3.8-8.7-12.1-4.9-18.7c3.8-6.5,12.1-8.7,18.6-4.9c6.5,3.8,8.7,12.1,5,18.7
					C829.5,129.7,821.1,131.9,814.6,128.1L814.6,128.1z M826.9,106.9c-5.2-3-11.9-1.2-14.9,3.9c-3,5.2-1.2,11.9,3.9,14.9
					c5.2,3,11.9,1.3,14.9-3.9C833.9,116.6,832.1,109.9,826.9,106.9L826.9,106.9z M826.9,106.9"/>
			</g>
		</g>
		<g>
			<g>
				<path fill="#51A332" d="M647.9,175.8l-19.8,11.5c-0.7,0.4-1.5,0.2-1.9-0.5l-13.5-23.2l-0.3,0.2c-3.5,2-8,0.8-10.1-2.7l-8.9-15.4
					c-2-3.5-0.8-8,2.7-10.1l22.7-13.2c3.5-2,8-0.8,10.1,2.7l8.9,15.4c2,3.5,0.8,8-2.7,10.1l-0.3,0.2l13.5,23.2
					C648.8,174.6,648.6,175.4,647.9,175.8L647.9,175.8z M628,184.2l17.3-10.1l-13.5-23.2c-0.4-0.7-0.2-1.5,0.5-1.9l1.5-0.8
					c2.2-1.3,2.9-4.1,1.7-6.3l-8.9-15.4c-1.3-2.2-4.1-2.9-6.3-1.7l-22.7,13.2c-2.2,1.3-2.9,4.1-1.7,6.3l8.9,15.4
					c1.3,2.2,4.1,3,6.3,1.7l1.5-0.8c0.7-0.4,1.5-0.2,1.9,0.5L628,184.2z M628,184.2"/>
				<path fill="#51A332" d="M605.9,126.2c-6.5,3.8-14.9,1.6-18.7-5c-3.8-6.5-1.6-14.9,5-18.7c6.5-3.8,14.9-1.6,18.6,4.9
					C614.7,114,612.4,122.4,605.9,126.2L605.9,126.2z M593.6,105c-5.2,3-7,9.7-4,14.9c3,5.2,9.7,7,14.9,3.9c5.2-3,7-9.7,3.9-14.9
					C605.5,103.7,598.8,102,593.6,105L593.6,105z M593.6,105"/>
			</g>
		</g>
	</g>
</g>
<g id="B1" display="none">
</g>
</svg>
