<?xml version="1.0" encoding="utf-8"?>
<!-- Generator: Adobe Illustrator 18.0.0, SVG Export Plug-In . SVG Version: 6.00 Build 0)  -->
<!DOCTYPE svg PUBLIC "-//W3C//DTD SVG 1.1//EN" "http://www.w3.org/Graphics/SVG/1.1/DTD/svg11.dtd">
<svg version="1.1" xmlns="http://www.w3.org/2000/svg" xmlns:xlink="http://www.w3.org/1999/xlink" x="0px" y="0px"
	 viewBox="0 0 579.1 498" enable-background="new 0 0 579.1 498" xml:space="preserve">
<g id="Sin">
</g>
<g id="Layer_9">
	<g>
		<g>
			<g>
				<path fill="#51A332" d="M349.6,413.3l-13,13l-4.2-11.4c-0.5-1.4-1.7-2.4-3.1-2.7c-1.4-0.3-2.9,0.1-4,1.2L309.7,429
					c-1.7,1.7-1.7,4.4,0,6.1c1.7,1.7,4.4,1.7,6.1,0l10.9-10.9l4.2,11.4c0.5,1.4,1.7,2.4,3.1,2.7c0.3,0.1,0.6,0.1,0.9,0.1
					c1.1,0,2.2-0.4,3-1.3l17.7-17.7c1.7-1.7,1.7-4.4,0-6.1C354,411.6,351.2,411.6,349.6,413.3z"/>
				<path fill="#51A332" d="M540.7,287.5h-10h-5.1v-27.8c0-2.4-1.9-4.3-4.3-4.3s-4.3,1.9-4.3,4.3v27.8h-25.7v-27.8
					c0-2.4-1.9-4.3-4.3-4.3c-2.4,0-4.3,1.9-4.3,4.3v27.8h-5.1h-10c-2.4,0-4.3,1.9-4.3,4.3c0,2.4,1.9,4.3,4.3,4.3h5.7v24.7
					c0,15.6,11.6,28.5,26.6,30.6v43.9c0,14.5-11.8,26.3-26.3,26.3H366.4c-2.4,0-4.3,1.9-4.3,4.3s1.9,4.3,4.3,4.3h107.2
					c19.2,0,34.9-15.7,34.9-34.9v-43.9c15-2.1,26.6-15,26.6-30.6v-24.7h5.7c2.4,0,4.3-1.9,4.3-4.3C545,289.4,543,287.5,540.7,287.5z
					 M526.4,320.7c0,12.3-10,22.3-22.3,22.3c-12.3,0-22.3-10-22.3-22.3l0-24.7h5.1h34.3h5.1L526.4,320.7L526.4,320.7z"/>
				<circle fill="#51A332" cx="494.9" cy="317" r="4.3"/>
				<circle fill="#51A332" cx="513.4" cy="317" r="4.3"/>
			</g>
			<g>
				<path fill="#51A332" d="M136.8,344.9"/>
				<path fill="#51A332" d="M63.1,422.9h222.4c2.4,0,4.3,1.9,4.3,4.3c0,2.4-1.9,4.3-4.3,4.3H63.1"/>
			</g>
			<g>
				<path fill="#51A332" d="M542.4,85.4c1.9-4,2.1-8.5,0.6-12.7l-0.7-1.9c-1.5-4.2-4.5-7.5-8.5-9.4c-4-1.9-8.5-2.1-12.7-0.6
					l-17.8,6.4l-16.9-6c-4.4-1.6-9.2-1.3-13.5,0.7c-4.3,2-7.5,5.6-9.1,10c-0.7,1.9-1,3.9-1,5.9c0,2.7,0.6,5.3,1.8,7.7
					c-0.2,0.3-0.3,0.6-0.4,0.9c-1.9,4-2.1,8.5-0.6,12.7l0.7,1.9c1.4,3.8,4,7,7.6,8.9c-3.3,1.7-6,4.4-7.6,7.8
					c-1.9,4-2.1,8.5-0.6,12.7l0.7,1.9c1.3,3.7,3.8,6.7,7.1,8.6c-3.1,1.7-5.6,4.3-7.1,7.5c-1.9,4-2.1,8.5-0.6,12.7l0.7,1.9
					c1.5,4.2,4.5,7.5,8.5,9.4c0.3,0.1,0.6,0.3,0.9,0.4l0,10.7c-3.6,1.7-6.1,5.4-6.1,9.7v1.1c0,3.7,1.9,7,4.8,9
					c-1.2,1.7-1.9,3.8-1.9,6v1.1c0,3.7,1.8,6.9,4.6,8.8c-1.2,1.7-1.9,3.9-1.9,6.2v1.1c0,5.9,4.8,10.8,10.8,10.8h2.8
					c1.5,7.7,8.3,13.5,16.5,13.5c8.1,0,14.9-5.8,16.5-13.5h2.8c5.9,0,10.8-4.8,10.8-10.8v-1.1c0-2.3-0.7-4.4-1.9-6.2
					c2.8-1.9,4.6-5.2,4.6-8.8v-1.1c0-2.2-0.7-4.3-1.9-6c2.9-1.9,4.8-5.2,4.8-9v-1.1c0-3.7-1.9-7-4.8-8.9l0-28.7
					c3.6-1.6,6.5-4.4,8.2-8.1c1.9-4,2.1-8.5,0.6-12.7l-0.7-1.9c-1.3-3.7-3.8-6.7-7.1-8.6c3.1-1.7,5.6-4.3,7.1-7.5
					c1.9-4,2.1-8.5,0.6-12.7l-0.7-1.9c-1.4-3.8-4-7-7.6-8.9C538.2,91.6,540.8,88.9,542.4,85.4z M470,74c1-2.8,3-5,5.7-6.3
					c2.7-1.3,5.7-1.4,8.5-0.4l9.4,3.3l-20,7.1c-1.5,0.5-2.8,1.2-4,2.1c-0.1-0.7-0.2-1.4-0.2-2.1C469.3,76.4,469.5,75.2,470,74z
					 M532.5,194.4c0,2.3-1.9,4.2-4.2,4.2l-49.9,0c-2.3,0-4.2-1.9-4.2-4.2v-1.1c0-2.3,1.9-4.2,4.2-4.2l49.9,0c2.3,0,4.2,1.9,4.2,4.2
					V194.4z M529.5,210.5c0,2.3-1.9,4.2-4.2,4.2l-44,0c-2.3,0-4.2-1.9-4.2-4.2v-1.1c0-2.3,1.9-4.2,4.2-4.2l44,0
					c2.3,0,4.2,1.9,4.2,4.2V210.5z M517.8,182.5l0-20.9l9.8-3.5l0,24.5H517.8z M511.3,182.5h-14.8v-13.3l14.8-5.3L511.3,182.5z
					 M490,182.5l-9.8,0l0-8.4c1.8,0,3.6-0.4,5.3-1l4.5-1.6L490,182.5L490,182.5z M503.3,244.5c-4.5,0-8.4-2.9-9.7-7l19.5,0
					C511.6,241.5,507.8,244.5,503.3,244.5z M526.8,226.7c0,2.3-1.9,4.2-4.2,4.2l-38.6,0c-2.3,0-4.2-1.9-4.2-4.2v-1.1
					c0-2.3,1.9-4.2,4.2-4.2l38.6,0c2.3,0,4.2,1.9,4.2,4.2V226.7z M536.9,137.1c0.9,2.5,0.8,5.3-0.4,7.7c-1.2,2.4-3.2,4.3-5.7,5.2
					l-47.6,17c-2.5,0.9-5.3,0.8-7.7-0.4c-2.4-1.2-4.3-3.2-5.2-5.7l-0.7-1.9c-0.9-2.5-0.8-5.3,0.4-7.7c1.2-2.4,3.2-4.3,5.7-5.2
					l47.6-17c1.1-0.4,2.3-0.6,3.4-0.6c1.5,0,2.9,0.3,4.3,1c2.4,1.2,4.3,3.2,5.2,5.7L536.9,137.1z M536.9,106.3
					c1.9,5.3-0.9,11.1-6.1,12.9l-47.6,17c-2.5,0.9-5.3,0.8-7.7-0.4c-2.4-1.2-4.3-3.2-5.2-5.7l-0.7-1.9c-0.9-2.5-0.8-5.3,0.4-7.7
					c1.2-2.4,3.2-4.3,5.7-5.2l47.6-17c1.1-0.4,2.3-0.6,3.4-0.6c1.5,0,2.9,0.3,4.3,1c2.4,1.2,4.3,3.2,5.2,5.7L536.9,106.3z
					 M530.8,87.8l-47.6,17c-2.5,0.9-5.3,0.8-7.7-0.4c-2.4-1.2-4.3-3.2-5.2-5.7l-0.7-1.9c-0.9-2.5-0.8-5.3,0.4-7.7
					c1.2-2.4,3.2-4.3,5.7-5.2l47.6-17c1.1-0.4,2.3-0.6,3.4-0.6c1.5,0,2.9,0.3,4.3,1c2.4,1.2,4.3,3.2,5.2,5.7l0.7,1.9
					C538.8,80.2,536.1,86,530.8,87.8z"/>
			</g>
		</g>
		<g>
			<g>
				<path fill="#51A332" d="M233.5,429l-25.2,0c-2.2,0-4-1.8-4-4l0-124.3c-8.7,3.9-18.2,5.9-27.8,5.9c-37.7,0-68.3-30.6-68.3-68.3
					c0-20.3,9.1-39.5,24.6-52.5c-5.9-5.2-9.5-12.7-9.5-20.8c0-15.2,12.4-27.6,27.6-27.6c1.5,0,2.9,0.1,4.4,0.4
					c1.8-28.1,25.2-50.3,53.7-50.3c21,0,39.7,11.9,48.6,30.7c3.4-1,6.9-1.5,10.5-1.5c20.5,0,37.2,16.7,37.2,37.2c0,4.1-0.7,8.1-2,12
					c16.2,13.3,25.4,32.8,25.4,53.9c0,11.5-2.8,22.8-8.3,32.9c2.3,4,3.4,8.5,3.4,13.1c0,14.7-12,26.7-26.7,26.7
					c-5.3,0-10.4-1.5-14.7-4.4c-3,18.1-18.9,32-37.7,32c-2.5,0-4.9-0.2-7.3-0.7l0,105.6C237.5,427.2,235.7,429,233.5,429L233.5,429z
					 M212.3,421h17.1l0-166.3c0-1.1,0.4-2.1,1.2-2.8l27.3-27.3l-4.1-4.1l-17.5,17.5c-1.1,1.1-2.9,1.5-4.4,0.9
					c-1.2-0.5-2-1.5-2.3-2.7c-0.1-0.4-0.2-0.8-0.2-1.3l0-67.9h-17.1l0,90.5c0,1.6-1,3.1-2.5,3.7c-1.5,0.6-3.2,0.3-4.4-0.9
					l-28.8-28.8l-4.2,4.2l38.6,38.6c0.5,0.5,0.9,1.2,1.1,1.9c0.1,0.4,0.2,0.8,0.2,1.2l0,16.9c0,0.3,0,0.5-0.1,0.8L212.3,421z
					 M237.6,311.1c2.4,0.6,4.8,0.9,7.2,0.9c16.3,0,29.8-13.3,30.1-29.5c0-1.7,1.2-3.2,2.8-3.7c0.7-0.2,1.4-0.5,2.1-0.7
					c1.5-0.5,3.1-0.2,4.2,0.9c3.5,3.5,8.2,5.5,13.2,5.5c10.3,0,18.6-8.4,18.6-18.6c0-3.8-1.2-7.5-3.4-10.6c-0.9-1.3-1-3-0.2-4.3
					c5.5-9.4,8.4-20.1,8.4-31c0-19.6-9-37.6-24.6-49.4c-1.5-1.1-2-3.1-1.3-4.8c1.6-3.7,2.4-7.6,2.4-11.7c0-16.1-13.1-29.2-29.2-29.2
					c-3.8,0-7.6,0.7-11.1,2.2c-1,0.4-2.1,0.4-3.1,0c-1-0.4-1.8-1.2-2.2-2.2c-6.9-17.7-23.7-29.1-42.7-29.1
					c-25.3,0-45.8,20.5-45.8,45.8c0,0.4,0,0.8,0,1.2l0,0.3c0,1.3-0.6,2.6-1.7,3.4c-1.1,0.8-2.5,1-3.8,0.5c-2.2-0.8-4.6-1.3-6.9-1.3
					c-10.8,0-19.6,8.8-19.6,19.6c0,7.1,3.9,13.7,10.2,17.1c1.2,0.7,2,1.9,2.1,3.3c0.1,1.4-0.6,2.7-1.7,3.5
					c-16.1,11.3-25.6,29.7-25.6,49.3c0,33.2,27,60.3,60.3,60.3c9.7,0,19.3-2.4,27.8-6.8l0-13L164,238.4c-0.5-0.5-0.8-1.1-1-1.7
					c-0.2-0.4-0.3-0.9-0.3-1.4c0-1.1,0.4-2.1,1.2-2.8l9.9-9.9c1.6-1.6,4.1-1.6,5.7,0l24.8,24.8l0-84.8c0-2.2,1.8-4,4-4l25.2,0
					c1.9,0,3.4,1.2,3.9,3c0.1,0.4,0.2,0.8,0.2,1.3l0,62.2l13.4-13.4c1.5-1.5,4.2-1.5,5.7,0l10,9.9c0.5,0.5,0.8,1,1,1.6
					c0.5,1.4,0.2,3.1-0.9,4.3l-29.1,29.1L237.6,311.1z M237.6,311.1"/>
			</g>
		</g>
		<g>
			<g>
				<path fill="#51A332" d="M117.9,197.9l0,13.8c0.1-0.3,0.2-0.6,0.3-0.8c0-0.1,0-0.1,0.1-0.2c0,0,0,0,0,0c0.2-0.4,0.3-0.8,0.5-1.2
					c0.9-1.9,2.6-2.6,4.3-2.5c0-5,0.7-8.9,4.5-12.6h-6.2C119.4,194.4,117.9,196,117.9,197.9z"/>
				<path fill="#51A332" d="M198.8,304c-4.3,0-8.4-1.7-11.5-4.8c-1-1-2.4-1.3-3.7-0.8c-0.6,0.2-1.2,0.4-1.8,0.6
					c-1.4,0.5-2.4,1.8-2.4,3.3c-0.3,14.2-12,25.7-26.2,25.7c-2.1,0-4.2-0.3-6.3-0.8l0-39.1c-2.6-1.1-5-2.5-7.1-4.4l0,139.2l-14.9,0
					l0-109.8c0-0.2,0.1-0.4,0.1-0.7l0-14.8c0-0.3-0.1-0.7-0.2-1c-0.2-0.6-0.5-1.2-0.9-1.6l-33.6-33.6l3.7-3.7l25.1,25.1
					c1,1,2.5,1.3,3.8,0.8c1.3-0.5,2.2-1.8,2.2-3.2l0-13.1c-3-6-5.6-12.2-7.1-18.6l0,23.1l-21.6-21.6c-1.4-1.4-3.6-1.4-4.9,0
					l-8.7,8.7c-0.7,0.7-1,1.5-1,2.5c0,0.4,0.1,0.8,0.2,1.2c0.2,0.5,0.5,1,0.9,1.4l35.2,35.2l0,11.3c-7.5,3.9-15.8,5.9-24.2,5.9
					c-29,0-52.5-23.6-52.5-52.5c0-17.1,8.3-33.1,22.3-43c1-0.7,1.5-1.9,1.5-3.1c-0.1-1.2-0.7-2.3-1.8-2.9c-5.5-3-8.8-8.7-8.8-14.9
					c0-9.4,7.6-17,17-17c2,0,4,0.4,6,1.1c1.1,0.4,2.3,0.3,3.3-0.4c1-0.7,1.5-1.8,1.5-3l0-0.2c0-0.4,0-0.7,0-1.1
					c0-22,17.9-39.9,39.9-39.9c5.3,0,10.5,1,15.2,3c0.2-0.1,0.4-0.2,0.6-0.3c2.9-1.1,5.9-1.9,8.8-2.7c-7.2-4.5-15.7-7-24.7-7
					c-24.8,0-45.2,19.4-46.8,43.8c-1.3-0.2-2.5-0.3-3.8-0.3c-13.2,0-24,10.8-24,24c0,7,3.1,13.6,8.3,18.1
					c-13.5,11.3-21.4,28-21.4,45.7c0,32.8,26.7,59.5,59.5,59.5c8.4,0,16.6-1.8,24.2-5.2l0,108.3c0,1.9,1.6,3.5,3.5,3.5l21.9,0
					c1.9,0,3.5-1.6,3.5-3.5l0-92c2.1,0.4,4.2,0.6,6.4,0.6c16.4,0,30.2-12.2,32.8-27.9c3.8,2.5,8.2,3.9,12.8,3.9
					c4.1,0,7.9-1.1,11.3-2.9V301c0-0.7,0.1-1.3,0.3-1.9C207.4,302.2,203.3,304,198.8,304z"/>
				<path fill="#51A332" d="M146.9,327.3"/>
			</g>
		</g>
	</g>
</g>
<g id="B1" display="none">
</g>
</svg>
