<?xml version="1.0" encoding="utf-8"?>
<!-- Generator: Adobe Illustrator 18.0.0, SVG Export Plug-In . SVG Version: 6.00 Build 0)  -->
<!DOCTYPE svg PUBLIC "-//W3C//DTD SVG 1.1//EN" "http://www.w3.org/Graphics/SVG/1.1/DTD/svg11.dtd">
<svg version="1.1" id="Sustainability_Vision" xmlns="http://www.w3.org/2000/svg" xmlns:xlink="http://www.w3.org/1999/xlink"
	 x="0px" y="0px" viewBox="0 0 64.7 62.7" enable-background="new 0 0 64.7 62.7" xml:space="preserve">
<g>
	<g>
		<g>
			<g>
				<path fill="#DFE0DE" d="M32.3,54.4c-12.7,0-23.1-10.4-23.1-23.1c0-12.7,10.4-23.1,23.1-23.1s23.1,10.4,23.1,23.1
					C55.4,44.1,45.1,54.4,32.3,54.4z M32.3,11.3c-11,0-20,9-20,20s9,20,20,20s20-9,20-20C52.4,20.3,43.4,11.3,32.3,11.3z"/>
			</g>
		</g>
	</g>
	<g>
		<polygon fill="#DFE0DE" points="32.3,42.5 20.8,31 22.9,28.8 32.3,38.2 41.7,28.8 43.9,31 		"/>
	</g>
</g>
</svg>
