<?xml version="1.0" encoding="UTF-8"?>
<!DOCTYPE svg PUBLIC "-//W3C//DTD SVG 1.0//EN" "http://www.w3.org/TR/2001/REC-SVG-20010904/DTD/svg10.dtd">
<!-- Creator: CorelDRAW X7 -->
<?xml-stylesheet href="logo-CEPI.css" type="text/css"?>
<svg xmlns="http://www.w3.org/2000/svg" xml:space="preserve" width="210mm" height="297mm" version="1.0" style="shape-rendering:geometricPrecision; text-rendering:geometricPrecision; image-rendering:optimizeQuality; fill-rule:evenodd; clip-rule:evenodd"
viewBox="0 0 21000 29700"
 xmlns:xlink="http://www.w3.org/1999/xlink">
 <g id="Capa_x0020_1">
  <metadata id="CorelCorpID_0Corel-Layer"/>
  <path class="fil0" d="M8697 13699c-225,0 -364,110 -364,110l308 -536c12,-20 34,-32 56,-32 25,0 47,12 59,32l309 536c0,0 -142,-110 -368,-110z"/>
  <path class="fil0" d="M8034 15259c-37,-34 -79,-54 -125,-54 -91,0 -176,69 -176,199 0,110 78,188 186,188 44,0 85,-24 117,-54l57 69c-49,49 -118,71 -187,71 -164,0 -271,-130 -271,-277 0,-152 120,-282 274,-282 81,0 149,35 186,69l-61 71z"/>
  <path class="fil0" d="M8306 15359c9,-73 63,-154 176,-154 95,0 166,66 176,154l-352 0 0 0zm362 147c-46,57 -105,86 -171,86 -103,0 -177,-66 -191,-157l458 0c0,-188 -116,-316 -282,-316 -167,0 -274,128 -274,280 0,142 100,279 291,279 93,0 169,-34 240,-115l-71 -57 0 0z"/>
  <path class="fil0" d="M9400 15394c0,125 -95,198 -191,198 -105,0 -193,-86 -193,-191 0,-108 88,-196 188,-196 128,0 196,101 196,191l0 -2zm-475 494l91 0 0 -306 2 0c39,54 108,93 201,93 147,0 282,-115 282,-284 0,-154 -128,-274 -279,-274 -79,0 -160,34 -204,98l-2 0 0 -86 -91 0 0 759z"/>
  <path class="fil0" d="M9711 14894c40,0 71,32 71,74 0,39 -31,71 -71,71 -39,0 -71,-32 -71,-71 0,-42 32,-74 71,-74z"/>
  <polygon class="fil0" points="9667,15132 9758,15132 9758,15666 9667,15666 "/>
  <path class="fil0" d="M8967 14365c0,149 -120,269 -270,269 -149,0 -271,-120 -271,-269 0,-149 122,-272 271,-272 150,0 270,123 270,272z"/>
  <path class="fil0" d="M8034 15259c-37,-34 -79,-54 -125,-54 -91,0 -176,69 -176,199 0,110 78,188 186,188 44,0 85,-24 117,-54l57 69c-49,49 -118,71 -187,71 -164,0 -271,-130 -271,-277 0,-152 120,-282 274,-282 81,0 149,35 186,69l-61 71z"/>
  <path class="fil0" d="M8306 15359c9,-73 63,-154 176,-154 95,0 166,66 176,154l-352 0 0 0zm362 147c-46,57 -105,86 -171,86 -103,0 -177,-66 -191,-157l458 0c0,-188 -116,-316 -282,-316 -167,0 -274,128 -274,280 0,142 100,279 291,279 93,0 169,-34 240,-115l-71 -57 0 0z"/>
  <path class="fil0" d="M9400 15394c0,125 -95,198 -191,198 -105,0 -193,-86 -193,-191 0,-108 88,-196 188,-196 128,0 196,101 196,191l0 -2zm-475 494l91 0 0 -306 2 0c39,54 108,93 201,93 147,0 282,-115 282,-284 0,-154 -128,-274 -279,-274 -79,0 -160,34 -204,98l-2 0 0 -86 -91 0 0 759z"/>
  <polygon class="fil0" points="9667,15132 9758,15132 9758,15666 9667,15666 "/>
  <path class="fil0" d="M8122 14696c105,179 267,259 267,259l-605 0c-22,0 -44,-12 -56,-34 -13,-20 -13,-44 0,-64l306 -531c0,0 -20,193 88,370z"/>
  <path class="fil0" d="M9273 14688c113,-203 86,-367 86,-367l294 507c0,0 -44,15 -69,54 -24,37 -24,73 -24,73l-564 0c0,0 164,-66 277,-267l0 0z"/>
  <path class="fil0" d="M10118 15227c-10,-10 -20,-15 -32,-15 -22,0 -42,18 -42,49 0,27 18,47 45,47 12,0 22,-5 29,-12l15 14c-13,13 -30,20 -47,20 -39,0 -66,-32 -66,-69 0,-39 29,-68 66,-68 20,0 37,7 47,15l-15 19 0 0z"/>
  <path class="fil0" d="M10162 15261c0,37 27,69 71,69 42,0 71,-32 71,-69 0,-39 -29,-68 -71,-68 -42,0 -71,29 -71,68zm71 -49c25,0 47,23 47,49 0,25 -22,47 -47,47 -27,0 -46,-22 -46,-47 0,-26 19,-49 46,-49z"/>
  <path class="fil0" d="M10431 15249c0,-19 -9,-37 -31,-37 -20,0 -35,15 -35,40l0 73 -22 0 0 -130 22 0 0 15 3 0c5,-12 19,-17 34,-17 27,0 51,12 51,49l0 83 -22 0 0 -76z"/>
  <path class="fil0" d="M10502 15176c0,-30 20,-42 47,-42l0 22 -5 0c-12,0 -17,10 -17,20l0 19 20 0 0 20 -20 0 0 110 -25 0 0 -110 -19 0 0 -20 19 0 0 -19z"/>
  <path class="fil0" d="M10686 15286c-12,15 -27,22 -44,22 -24,0 -42,-17 -46,-39l112 0c0,-47 -27,-76 -68,-76 -42,0 -69,29 -69,68 0,35 27,69 73,69 23,0 42,-10 59,-29l-17 -15 0 0zm-90 -34c2,-20 17,-40 44,-40 22,0 41,18 44,40l-88 0 0 0z"/>
  <path class="fil0" d="M10858 15215l0 0c-13,-15 -32,-22 -52,-22 -37,0 -66,29 -66,66 0,42 32,71 69,71 22,0 39,-10 49,-24l0 0 0 19 22 0 0 -191 -22 0 0 81zm0 46c0,25 -22,47 -47,47 -24,0 -49,-20 -49,-49 0,-22 20,-47 49,-47 25,0 47,23 47,49z"/>
  <path class="fil0" d="M11031 15286c-12,15 -26,22 -41,22 -25,0 -44,-17 -47,-39l113 0c0,-47 -29,-76 -71,-76 -39,0 -66,29 -66,68 0,35 24,69 71,69 22,0 41,-10 59,-29l-18 -15 0 0zm-88 -34c3,-20 15,-40 42,-40 24,0 42,18 44,40l-86 0 0 0z"/>
  <path class="fil0" d="M11093 15195l22 0 0 17 0 0c12,-19 22,-19 41,-19l0 22c-2,0 -7,0 -9,0 -20,0 -32,12 -32,37l0 73 -22 0 0 -130 0 0z"/>
  <path class="fil0" d="M11271 15252c-9,-10 -24,-15 -39,-15 -36,0 -56,22 -56,44 0,29 24,49 56,49 17,0 30,-5 42,-17l0 12 22 0 0 -88c0,-32 -29,-44 -61,-44 -13,0 -27,0 -47,10l10 17c12,-5 22,-8 34,-8 20,0 39,5 39,27l0 13 0 0zm3 31c0,13 -10,25 -37,25 -29,0 -37,-12 -37,-25 0,-12 8,-26 37,-26 27,0 37,14 37,26z"/>
  <path class="fil0" d="M11343 15163l22 0 0 32 22 0 0 20 -22 0 0 81c0,7 2,10 12,10l10 0 0 19c-3,0 -10,0 -15,0 -22,0 -29,-7 -29,-27l0 -83 -20 0 0 -20 20 0 0 -32 0 0z"/>
  <path class="fil0" d="M11431 15137c9,0 17,7 17,17 0,7 -8,14 -17,14 -8,0 -15,-7 -15,-14 0,-10 7,-17 15,-17zm-10 58l22 0 0 130 -22 0 0 -130z"/>
  <path class="fil0" d="M11485 15261c0,37 29,69 71,69 44,0 71,-32 71,-69 0,-39 -30,-68 -71,-68 -42,0 -71,29 -71,68zm71 -49c24,0 46,23 46,49 0,25 -22,47 -46,47 -25,0 -47,-22 -47,-47 0,-26 22,-49 47,-49z"/>
  <path class="fil0" d="M11754 15249c0,-19 -7,-37 -29,-37 -22,0 -35,15 -35,40l0 73 -24 0 0 -130 24 0 0 15 0 0c8,-12 22,-17 37,-17 25,0 49,12 49,49l0 83 -22 0 0 -76z"/>
  <path class="fil0" d="M11891 15261c0,37 27,69 71,69 42,0 71,-32 71,-69 0,-39 -32,-68 -71,-68 -42,0 -71,29 -71,68zm71 -49c25,0 47,23 47,49 0,25 -22,47 -47,47 -27,0 -49,-22 -49,-47 0,-26 22,-49 49,-49z"/>
  <path class="fil0" d="M12080 15176c0,-30 19,-42 44,-42l0 22 -5 0c-10,0 -17,10 -17,20l0 19 22 0 0 20 -22 0 0 110 -22 0 0 -110 -20 0 0 -20 20 0 0 -19z"/>
  <path class="fil0" d="M10133 15592c-13,15 -27,22 -42,22 -27,0 -44,-17 -49,-39l113 0c0,-47 -27,-76 -69,-76 -39,0 -66,29 -66,69 0,34 24,68 71,68 22,0 42,-10 59,-29l-17 -15 0 0zm-91 -34c2,-20 17,-39 44,-39 25,0 42,17 44,39l-88 0 0 0z"/>
  <path class="fil0" d="M10280 15617l-3 0c-5,12 -19,19 -34,19 -27,0 -52,-15 -52,-51l0 -84 22 0 0 76c0,20 10,37 32,37 20,0 35,-15 35,-39l0 -74 22 0 0 130 -22 0 0 -14z"/>
  <path class="fil0" d="M10346 15501l22 0 0 18 0 0c12,-20 22,-20 41,-20l0 22c-2,0 -7,0 -9,0 -20,0 -32,12 -32,37l0 73 -22 0 0 -130 0 0z"/>
  <path class="fil0" d="M10434 15568c0,36 27,68 71,68 42,0 71,-32 71,-68 0,-40 -29,-69 -71,-69 -42,0 -71,29 -71,69zm71 -49c24,0 46,22 46,49 0,24 -22,46 -46,46 -25,0 -47,-22 -47,-46 0,-27 22,-49 47,-49z"/>
  <path class="fil0" d="M10618 15688l22 0 0 -76 0 0c9,14 27,24 49,24 36,0 71,-29 71,-71 0,-37 -32,-66 -69,-66 -20,0 -39,7 -51,22l0 0 0 -20 -22 0 0 187 0 0zm117 -123c0,30 -24,49 -49,49 -24,0 -46,-22 -46,-46 0,-27 22,-49 46,-49 32,0 49,24 49,46z"/>
  <path class="fil0" d="M10902 15592c-10,15 -25,22 -42,22 -24,0 -44,-17 -46,-39l112 0c0,-47 -29,-76 -68,-76 -42,0 -69,29 -69,69 0,34 24,68 71,68 25,0 42,-10 61,-29l-19 -15 0 0zm-89 -34c3,-20 15,-39 45,-39 22,0 41,17 41,39l-86 0 0 0z"/>
  <path class="fil0" d="M11051 15558c-12,-10 -27,-15 -42,-15 -36,0 -56,22 -56,44 0,30 25,49 56,49 18,0 30,-5 42,-17l0 12 22 0 0 -88c0,-32 -29,-46 -61,-46 -12,0 -27,2 -47,12l10 17c12,-5 22,-7 37,-7 17,0 39,5 39,27l0 12 0 0zm0 32c0,12 -10,24 -37,24 -29,0 -36,-12 -36,-24 0,-13 7,-27 36,-27 27,0 37,14 37,27z"/>
  <path class="fil0" d="M11200 15555c0,-19 -7,-36 -29,-36 -22,0 -34,14 -34,39l0 73 -22 0 0 -130 22 0 0 15 0 0c7,-12 22,-19 37,-19 24,0 51,14 51,51l0 83 -25 0 0 -76z"/>
  <path class="fil0" d="M11340 15688l25 0 0 -76 0 0c9,14 26,24 49,24 36,0 68,-29 68,-71 0,-37 -32,-66 -68,-66 -20,0 -40,7 -49,22l0 0 0 -20 -25 0 0 187zm118 -123c0,30 -22,49 -47,49 -27,0 -46,-22 -46,-46 0,-27 19,-49 46,-49 29,0 47,24 47,46z"/>
  <path class="fil0" d="M11607 15558c-12,-10 -27,-15 -39,-15 -37,0 -59,22 -59,44 0,30 27,49 59,49 17,0 29,-5 41,-17l0 12 22 0 0 -88c0,-32 -29,-46 -61,-46 -12,0 -27,2 -49,12l10 17c12,-5 25,-7 37,-7 17,0 39,5 39,27l0 12 0 0zm2 32c0,12 -9,24 -39,24 -27,0 -36,-12 -36,-24 0,-13 9,-27 36,-27 30,0 39,14 39,27z"/>
  <path class="fil0" d="M11673 15688l22 0 0 -76 0 0c10,14 27,24 49,24 37,0 71,-29 71,-71 0,-37 -32,-66 -68,-66 -20,0 -40,7 -52,22l0 0 0 -20 -22 0 0 187 0 0zm118 -123c0,30 -25,49 -47,49 -27,0 -49,-22 -49,-46 0,-27 22,-49 47,-49 32,0 49,24 49,46z"/>
  <path class="fil0" d="M11960 15592c-13,15 -27,22 -42,22 -27,0 -44,-17 -49,-39l113 0c0,-47 -27,-76 -69,-76 -41,0 -68,29 -68,69 0,34 27,68 73,68 22,0 42,-10 59,-29l-17 -15 0 0zm-91 -34c3,-20 17,-39 44,-39 25,0 42,17 44,39l-88 0 0 0z"/>
  <path class="fil0" d="M12018 15501l25 0 0 18 0 0c12,-20 22,-20 42,-20l0 22c-5,0 -8,0 -10,0 -20,0 -32,12 -32,37l0 73 -25 0 0 -130 0 0z"/>
  <path class="fil0" d="M12200 15443c9,0 17,7 17,17 0,7 -8,15 -17,15 -8,0 -15,-8 -15,-15 0,-10 7,-17 15,-17zm-10 58l22 0 0 130 -22 0 0 -130z"/>
  <path class="fil0" d="M12342 15555c0,-19 -8,-36 -30,-36 -22,0 -34,14 -34,39l0 73 -22 0 0 -130 22 0 0 15 0 0c7,-12 22,-19 37,-19 24,0 51,14 51,51l0 83 -24 0 0 -76z"/>
  <path class="fil0" d="M12521 15521l0 0c-10,-15 -30,-22 -49,-22 -37,-2 -69,29 -69,66 0,42 32,71 69,71 22,0 39,-10 49,-24l0 0 0 19 24 0 0 -191 -24 0 0 81zm0 47c0,24 -20,46 -47,46 -24,0 -47,-19 -47,-49 0,-22 18,-46 47,-46 24,0 47,22 47,49z"/>
  <path class="fil0" d="M12675 15617l0 0c-8,12 -22,19 -37,19 -24,0 -51,-15 -51,-51l0 -84 24 0 0 76c0,20 7,37 30,37 22,0 34,-15 34,-39l0 -74 22 0 0 130 -22 0 0 -14z"/>
  <path class="fil0" d="M12753 15595c3,14 15,19 27,19 22,0 27,-10 27,-17 0,-10 -5,-15 -24,-20l-22 -5c-20,-7 -27,-19 -27,-34 0,-22 17,-39 46,-39 34,0 47,20 47,39l-22 0c-3,-14 -10,-22 -25,-22 -15,0 -24,10 -24,20 0,7 5,12 14,14l32 10c20,5 27,17 27,35 0,26 -22,41 -46,41 -32,0 -49,-17 -52,-41l22 0z"/>
  <path class="fil0" d="M12871 15470l22 0 0 31 19 0 0 20 -19 0 0 81c0,7 2,10 10,10l12 0 0 19c-5,0 -10,0 -15,0 -22,0 -29,-7 -29,-27l0 -83 -20 0 0 -20 20 0 0 -31 0 0z"/>
  <path class="fil0" d="M12947 15501l24 0 0 18 0 0c12,-20 22,-20 42,-20l0 22c-5,0 -8,0 -10,0 -20,0 -32,12 -32,37l0 73 -24 0 0 -130 0 0z"/>
  <path class="fil0" d="M13054 15443c10,0 18,7 18,17 0,7 -8,15 -18,15 -7,0 -14,-8 -14,-15 0,-10 7,-17 14,-17zm-9 58l22 0 0 130 -22 0 0 -130z"/>
  <path class="fil0" d="M13219 15592c-13,15 -27,22 -42,22 -27,0 -44,-17 -49,-39l113 0c0,-47 -27,-76 -69,-76 -42,0 -66,29 -66,69 0,34 24,68 71,68 22,0 42,-10 59,-29l-17 -15 0 0zm-91 -34c2,-20 17,-39 44,-39 24,0 42,17 44,39l-88 0 0 0z"/>
  <path class="fil0" d="M13290 15595c2,14 14,19 29,19 20,0 24,-10 24,-17 0,-10 -4,-15 -22,-20l-24 -5c-20,-7 -27,-19 -27,-34 0,-22 17,-39 49,-39 32,0 44,20 44,39l-22 0c0,-14 -7,-22 -25,-22 -12,0 -22,10 -22,20 0,7 3,12 15,14l30 10c22,5 26,17 26,35 0,26 -22,41 -46,41 -32,0 -49,-17 -49,-41l20 0z"/>
  <path class="fil0" d="M10118 15227c-10,-10 -20,-15 -32,-15 -22,0 -42,18 -42,49 0,27 18,47 45,47 12,0 22,-5 29,-12l15 14c-13,13 -30,20 -47,20 -39,0 -66,-32 -66,-69 0,-39 29,-68 66,-68 20,0 37,7 47,15l-15 19 0 0z"/>
  <path class="fil0" d="M10162 15261c0,37 27,69 71,69 42,0 71,-32 71,-69 0,-39 -29,-68 -71,-68 -42,0 -71,29 -71,68zm71 -49c25,0 47,23 47,49 0,25 -22,47 -47,47 -27,0 -46,-22 -46,-47 0,-26 19,-49 46,-49z"/>
  <path class="fil0" d="M10431 15249c0,-19 -9,-37 -31,-37 -20,0 -35,15 -35,40l0 73 -22 0 0 -130 22 0 0 15 3 0c5,-12 19,-17 34,-17 27,0 51,12 51,49l0 83 -22 0 0 -76z"/>
  <path class="fil0" d="M10502 15176c0,-30 20,-42 47,-42l0 22 -5 0c-12,0 -17,10 -17,20l0 19 20 0 0 20 -20 0 0 110 -25 0 0 -110 -19 0 0 -20 19 0 0 -19z"/>
  <path class="fil0" d="M10686 15286c-12,15 -27,22 -44,22 -24,0 -42,-17 -46,-39l112 0c0,-47 -27,-76 -68,-76 -42,0 -69,29 -69,68 0,35 27,69 73,69 23,0 42,-10 59,-29l-17 -15 0 0zm-90 -34c2,-20 17,-40 44,-40 22,0 41,18 44,40l-88 0 0 0z"/>
  <path class="fil0" d="M10858 15215l0 0c-13,-15 -32,-22 -52,-22 -37,0 -66,29 -66,66 0,42 32,71 69,71 22,0 39,-10 49,-24l0 0 0 19 22 0 0 -191 -22 0 0 81zm0 46c0,25 -22,47 -47,47 -24,0 -49,-20 -49,-49 0,-22 20,-47 49,-47 25,0 47,23 47,49z"/>
  <path class="fil0" d="M11031 15286c-12,15 -26,22 -41,22 -25,0 -44,-17 -47,-39l113 0c0,-47 -29,-76 -71,-76 -39,0 -66,29 -66,68 0,35 24,69 71,69 22,0 41,-10 59,-29l-18 -15 0 0zm-88 -34c3,-20 15,-40 42,-40 24,0 42,18 44,40l-86 0 0 0z"/>
  <path class="fil0" d="M11093 15195l22 0 0 17 0 0c12,-19 22,-19 41,-19l0 22c-2,0 -7,0 -9,0 -20,0 -32,12 -32,37l0 73 -22 0 0 -130 0 0z"/>
  <path class="fil0" d="M11271 15252c-9,-10 -24,-15 -39,-15 -36,0 -56,22 -56,44 0,29 24,49 56,49 17,0 30,-5 42,-17l0 12 22 0 0 -88c0,-32 -29,-44 -61,-44 -13,0 -27,0 -47,10l10 17c12,-5 22,-8 34,-8 20,0 39,5 39,27l0 13 0 0zm3 31c0,13 -10,25 -37,25 -29,0 -37,-12 -37,-25 0,-12 8,-26 37,-26 27,0 37,14 37,26z"/>
  <path class="fil0" d="M11343 15163l22 0 0 32 22 0 0 20 -22 0 0 81c0,7 2,10 12,10l10 0 0 19c-3,0 -10,0 -15,0 -22,0 -29,-7 -29,-27l0 -83 -20 0 0 -20 20 0 0 -32 0 0z"/>
  <path class="fil0" d="M11431 15137c9,0 17,7 17,17 0,7 -8,14 -17,14 -8,0 -15,-7 -15,-14 0,-10 7,-17 15,-17zm-10 58l22 0 0 130 -22 0 0 -130z"/>
  <path class="fil0" d="M11485 15261c0,37 29,69 71,69 44,0 71,-32 71,-69 0,-39 -30,-68 -71,-68 -42,0 -71,29 -71,68zm71 -49c24,0 46,23 46,49 0,25 -22,47 -46,47 -25,0 -47,-22 -47,-47 0,-26 22,-49 47,-49z"/>
  <path class="fil0" d="M11754 15249c0,-19 -7,-37 -29,-37 -22,0 -35,15 -35,40l0 73 -24 0 0 -130 24 0 0 15 0 0c8,-12 22,-17 37,-17 25,0 49,12 49,49l0 83 -22 0 0 -76z"/>
  <path class="fil0" d="M11891 15261c0,37 27,69 71,69 42,0 71,-32 71,-69 0,-39 -32,-68 -71,-68 -42,0 -71,29 -71,68zm71 -49c25,0 47,23 47,49 0,25 -22,47 -47,47 -27,0 -49,-22 -49,-47 0,-26 22,-49 49,-49z"/>
  <path class="fil0" d="M12080 15176c0,-30 19,-42 44,-42l0 22 -5 0c-10,0 -17,10 -17,20l0 19 22 0 0 20 -22 0 0 110 -22 0 0 -110 -20 0 0 -20 20 0 0 -19z"/>
  <path class="fil0" d="M10133 15592c-13,15 -27,22 -42,22 -27,0 -44,-17 -49,-39l113 0c0,-47 -27,-76 -69,-76 -39,0 -66,29 -66,69 0,34 24,68 71,68 22,0 42,-10 59,-29l-17 -15 0 0zm-91 -34c2,-20 17,-39 44,-39 25,0 42,17 44,39l-88 0 0 0z"/>
  <path class="fil0" d="M10280 15617l-3 0c-5,12 -19,19 -34,19 -27,0 -52,-15 -52,-51l0 -84 22 0 0 76c0,20 10,37 32,37 20,0 35,-15 35,-39l0 -74 22 0 0 130 -22 0 0 -14z"/>
  <path class="fil0" d="M10346 15501l22 0 0 18 0 0c12,-20 22,-20 41,-20l0 22c-2,0 -7,0 -9,0 -20,0 -32,12 -32,37l0 73 -22 0 0 -130 0 0z"/>
  <path class="fil0" d="M10434 15568c0,36 27,68 71,68 42,0 71,-32 71,-68 0,-40 -29,-69 -71,-69 -42,0 -71,29 -71,69zm71 -49c24,0 46,22 46,49 0,24 -22,46 -46,46 -25,0 -47,-22 -47,-46 0,-27 22,-49 47,-49z"/>
  <path class="fil0" d="M10618 15688l22 0 0 -76 0 0c9,14 27,24 49,24 36,0 71,-29 71,-71 0,-37 -32,-66 -69,-66 -20,0 -39,7 -51,22l0 0 0 -20 -22 0 0 187 0 0zm117 -123c0,30 -24,49 -49,49 -24,0 -46,-22 -46,-46 0,-27 22,-49 46,-49 32,0 49,24 49,46z"/>
  <path class="fil0" d="M10902 15592c-10,15 -25,22 -42,22 -24,0 -44,-17 -46,-39l112 0c0,-47 -29,-76 -68,-76 -42,0 -69,29 -69,69 0,34 24,68 71,68 25,0 42,-10 61,-29l-19 -15 0 0zm-89 -34c3,-20 15,-39 45,-39 22,0 41,17 41,39l-86 0 0 0z"/>
  <path class="fil0" d="M11051 15558c-12,-10 -27,-15 -42,-15 -36,0 -56,22 -56,44 0,30 25,49 56,49 18,0 30,-5 42,-17l0 12 22 0 0 -88c0,-32 -29,-46 -61,-46 -12,0 -27,2 -47,12l10 17c12,-5 22,-7 37,-7 17,0 39,5 39,27l0 12 0 0zm0 32c0,12 -10,24 -37,24 -29,0 -36,-12 -36,-24 0,-13 7,-27 36,-27 27,0 37,14 37,27z"/>
  <path class="fil0" d="M11200 15555c0,-19 -7,-36 -29,-36 -22,0 -34,14 -34,39l0 73 -22 0 0 -130 22 0 0 15 0 0c7,-12 22,-19 37,-19 24,0 51,14 51,51l0 83 -25 0 0 -76z"/>
  <path class="fil0" d="M11340 15688l25 0 0 -76 0 0c9,14 26,24 49,24 36,0 68,-29 68,-71 0,-37 -32,-66 -68,-66 -20,0 -40,7 -49,22l0 0 0 -20 -25 0 0 187zm118 -123c0,30 -22,49 -47,49 -27,0 -46,-22 -46,-46 0,-27 19,-49 46,-49 29,0 47,24 47,46z"/>
  <path class="fil0" d="M11607 15558c-12,-10 -27,-15 -39,-15 -37,0 -59,22 -59,44 0,30 27,49 59,49 17,0 29,-5 41,-17l0 12 22 0 0 -88c0,-32 -29,-46 -61,-46 -12,0 -27,2 -49,12l10 17c12,-5 25,-7 37,-7 17,0 39,5 39,27l0 12 0 0zm2 32c0,12 -9,24 -39,24 -27,0 -36,-12 -36,-24 0,-13 9,-27 36,-27 30,0 39,14 39,27z"/>
  <path class="fil0" d="M11673 15688l22 0 0 -76 0 0c10,14 27,24 49,24 37,0 71,-29 71,-71 0,-37 -32,-66 -68,-66 -20,0 -40,7 -52,22l0 0 0 -20 -22 0 0 187 0 0zm118 -123c0,30 -25,49 -47,49 -27,0 -49,-22 -49,-46 0,-27 22,-49 47,-49 32,0 49,24 49,46z"/>
  <path class="fil0" d="M11960 15592c-13,15 -27,22 -42,22 -27,0 -44,-17 -49,-39l113 0c0,-47 -27,-76 -69,-76 -41,0 -68,29 -68,69 0,34 27,68 73,68 22,0 42,-10 59,-29l-17 -15 0 0zm-91 -34c3,-20 17,-39 44,-39 25,0 42,17 44,39l-88 0 0 0z"/>
  <path class="fil0" d="M12018 15501l25 0 0 18 0 0c12,-20 22,-20 42,-20l0 22c-5,0 -8,0 -10,0 -20,0 -32,12 -32,37l0 73 -25 0 0 -130 0 0z"/>
  <path class="fil0" d="M12200 15443c9,0 17,7 17,17 0,7 -8,15 -17,15 -8,0 -15,-8 -15,-15 0,-10 7,-17 15,-17zm-10 58l22 0 0 130 -22 0 0 -130z"/>
  <path class="fil0" d="M12342 15555c0,-19 -8,-36 -30,-36 -22,0 -34,14 -34,39l0 73 -22 0 0 -130 22 0 0 15 0 0c7,-12 22,-19 37,-19 24,0 51,14 51,51l0 83 -24 0 0 -76z"/>
  <path class="fil0" d="M12521 15521l0 0c-10,-15 -30,-22 -49,-22 -37,-2 -69,29 -69,66 0,42 32,71 69,71 22,0 39,-10 49,-24l0 0 0 19 24 0 0 -191 -24 0 0 81zm0 47c0,24 -20,46 -47,46 -24,0 -47,-19 -47,-49 0,-22 18,-46 47,-46 24,0 47,22 47,49z"/>
  <path class="fil0" d="M12675 15617l0 0c-8,12 -22,19 -37,19 -24,0 -51,-15 -51,-51l0 -84 24 0 0 76c0,20 7,37 30,37 22,0 34,-15 34,-39l0 -74 22 0 0 130 -22 0 0 -14z"/>
  <path class="fil0" d="M12753 15595c3,14 15,19 27,19 22,0 27,-10 27,-17 0,-10 -5,-15 -24,-20l-22 -5c-20,-7 -27,-19 -27,-34 0,-22 17,-39 46,-39 34,0 47,20 47,39l-22 0c-3,-14 -10,-22 -25,-22 -15,0 -24,10 -24,20 0,7 5,12 14,14l32 10c20,5 27,17 27,35 0,26 -22,41 -46,41 -32,0 -49,-17 -52,-41l22 0z"/>
  <path class="fil0" d="M12871 15470l22 0 0 31 19 0 0 20 -19 0 0 81c0,7 2,10 10,10l12 0 0 19c-5,0 -10,0 -15,0 -22,0 -29,-7 -29,-27l0 -83 -20 0 0 -20 20 0 0 -31 0 0z"/>
  <path class="fil0" d="M12947 15501l24 0 0 18 0 0c12,-20 22,-20 42,-20l0 22c-5,0 -8,0 -10,0 -20,0 -32,12 -32,37l0 73 -24 0 0 -130 0 0z"/>
  <path class="fil0" d="M13054 15443c10,0 18,7 18,17 0,7 -8,15 -18,15 -7,0 -14,-8 -14,-15 0,-10 7,-17 14,-17zm-9 58l22 0 0 130 -22 0 0 -130z"/>
  <path class="fil0" d="M13219 15592c-13,15 -27,22 -42,22 -27,0 -44,-17 -49,-39l113 0c0,-47 -27,-76 -69,-76 -42,0 -66,29 -66,69 0,34 24,68 71,68 22,0 42,-10 59,-29l-17 -15 0 0zm-91 -34c2,-20 17,-39 44,-39 24,0 42,17 44,39l-88 0 0 0z"/>
  <path class="fil0" d="M13290 15595c2,14 14,19 29,19 20,0 24,-10 24,-17 0,-10 -4,-15 -22,-20l-24 -5c-20,-7 -27,-19 -27,-34 0,-22 17,-39 49,-39 32,0 44,20 44,39l-22 0c0,-14 -7,-22 -25,-22 -12,0 -22,10 -22,20 0,7 3,12 15,14l30 10c22,5 26,17 26,35 0,26 -22,41 -46,41 -32,0 -49,-17 -49,-41l20 0z"/>
 </g>
</svg>
